<svg width="123" height="32" viewBox="0 0 123 32" fill="none" xmlns="http://www.w3.org/2000/svg"><path d="M14.03 24.66l-5.66-5.65-4.82-4.83a7.33 7.33 0 01-2.31-5.47 7.4 7.4 0 013.52-6.35 7.8 7.8 0 016.08-.86c1.72.5 2.97 1.64 4.06 2.74.9-.91 1.86-1.83 3.16-2.4.8-.4 1.76-.61 2.91-.61a7.6 7.6 0 017.44 5.82c.35 1.89.12 3.7-.67 5.14-.47 1-1.28 1.78-1.97 2.47l-4.83 4.83-5.17 5.16-.87.87-.86-.87-.01.01z" fill="#9C89E9"/><path d="M29.62 6.87v-.04l-.02-.04A8.82 8.82 0 0022.33.08h-.05l-.05-.01C21.78.03 21.36 0 20.97 0c-1.32 0-2.45.24-3.47.74a9.84 9.84 0 00-2.6 1.8c-1-.91-2.19-1.77-3.7-2.22h-.06A9.31 9.31 0 008.75 0c-1.7 0-3.32.46-4.68 1.35A8.66 8.66 0 000 8.76a8.57 8.57 0 002.71 6.33l4.82 4.8 5.63 5.65 1.73 1.73 1.73-1.73 5.17-5.17 4.33-4.34.48-.48c.77-.76 1.63-1.6 2.23-2.82a8.97 8.97 0 00.78-5.85v-.01zm-2.96 4.74c-.51 1.08-1.44 1.85-2.26 2.68-3.17 3.16-6.33 6.35-9.5 9.5-3.5-3.49-6.98-7-10.48-10.48a6.19 6.19 0 01-1.95-4.56 6.22 6.22 0 016.3-6.3c.58 0 1.17.07 1.74.23 1.82.53 3.1 2.01 4.38 3.31 1.13-1.1 2.18-2.38 3.66-3.03a5.4 5.4 0 012.41-.5c.35 0 .69.02 1.02.04a6.36 6.36 0 015.2 4.82 6.45 6.45 0 01-.54 4.28l.02.01z" fill="#604EB8"/><path d="M27.2 7.33a6.35 6.35 0 00-8.65-4.37c-1.49.65-2.53 1.92-3.66 3.03-1.3-1.3-2.56-2.78-4.38-3.3a6.43 6.43 0 00-5.1.7 6.2 6.2 0 00-2.94 5.36 6.17 6.17 0 001.95 4.56L14.9 23.79l9.5-9.5c.82-.83 1.75-1.61 2.26-2.68.7-1.3.81-2.85.55-4.28h-.01z" fill="url(#paint0_linear_1806_18167)"/><path d="M9.22 14.55c-.2 0-.39-.04-.57-.12a1.37 1.37 0 01-.48-.32 1.51 1.51 0 01-.32-1.6c.04-.1.09-.18.14-.26l.18-.23a1.54 1.54 0 012.09 0c.07.07.12.15.18.23a1.49 1.49 0 01.25.82c0 .4-.16.76-.43 1.04-.14.14-.3.25-.48.32-.18.08-.37.12-.56.12zM6.27 10.14c-.82 0-1.48-.66-1.48-1.48a4.07 4.07 0 015.65-3.74c.75.32 1.1 1.18.78 1.94a1.47 1.47 0 01-1.94.77 1.12 1.12 0 00-1.55 1.03c0 .82-.66 1.48-1.47 1.48z" fill="#D9D1FF"/><path d="M53.2 23.61c0 .89-.72 1.6-1.6 1.6H39.65a1.6 1.6 0 01-1.6-1.6V2.91c0-.88.72-1.6 1.6-1.6h11.71a1.6 1.6 0 010 3.2h-9.64v6.8h8.64a1.6 1.6 0 010 3.2h-8.64v7.51h9.88c.88 0 1.6.72 1.6 1.6zM64.53 31.99a9.72 9.72 0 01-4.02-.79 6.25 6.25 0 01-3.42-3.68c-.34-.97.43-2 1.46-2h.2c.69 0 1.24.48 1.44 1.14a3.6 3.6 0 001.1 1.69c.76.65 1.83.98 3.2.98 1.54 0 2.69-.4 3.46-1.18.78-.79 1.17-1.95 1.17-3.48v-3.19a5.86 5.86 0 01-5.4 3.36 6.83 6.83 0 01-3.88-1.13 7.76 7.76 0 01-2.66-3.12 10.29 10.29 0 01-.97-4.56c0-1.71.32-3.3.94-4.6a6.96 6.96 0 016.5-4.17 6.27 6.27 0 015.7 3.45V9.14a1.56 1.56 0 113.13 0v15.47c0 2.33-.7 4.15-2.1 5.45C69 31.36 67.05 32 64.54 32v-.01zm-4.92-15.97c0 1.82.42 3.25 1.27 4.31a4.2 4.2 0 003.46 1.58 4.44 4.44 0 004.19-2.75c.4-.87.6-1.88.6-3.04 0-1.82-.43-3.27-1.3-4.36a4.23 4.23 0 00-3.5-1.63 4.2 4.2 0 00-3.44 1.58c-.86 1.05-1.28 2.48-1.28 4.31zM82.27 3.49c0 .62-.23 1.15-.68 1.58-.45.43-1.04.65-1.75.65a2.5 2.5 0 01-1.77-.65 2.11 2.11 0 01-.68-1.58c0-.67.22-1.2.68-1.61a2.55 2.55 0 011.77-.62c.73 0 1.3.2 1.75.62.45.4.68.95.68 1.6zM79.85 25.2c-.92 0-1.68-.75-1.68-1.68V9.26c0-.92.76-1.68 1.68-1.68.93 0 1.68.76 1.68 1.68v14.27c0 .93-.75 1.68-1.68 1.68zM90.61 16.2v8.05c0 .53-.43.96-.96.96H88.2a.96.96 0 01-.96-.96V8.54c0-.54.43-.97.96-.97h1.21c.53 0 .96.43.96.97v2.77a6.92 6.92 0 012.78-2.9c.92-.53 1.9-.87 2.93-1a.97.97 0 011.08.97v1.5c0 .51-.4.93-.91.95-.9.03-1.72.18-2.47.45-.99.35-1.77.93-2.33 1.74-.56.8-.84 1.87-.84 3.18zM102.16 25.21a1.7 1.7 0 01-1.7-1.7V3.02a1.7 1.7 0 013.4 0v20.5c0 .93-.76 1.7-1.7 1.7zM122.33 19.95c0 1.73-.65 3.1-1.93 4.1-1.29 1-3.1 1.49-5.46 1.49s-4.14-.54-5.47-1.63a6.06 6.06 0 01-1.78-2.36 1.5 1.5 0 011.37-2.1h.22c.62 0 1.12.44 1.3 1.03.21.63.59 1.16 1.15 1.58.83.63 1.92.95 3.28.95 1.18 0 2.12-.2 2.85-.63a2.04 2.04 0 001.08-1.86c0-.74-.24-1.29-.72-1.66a5.54 5.54 0 00-2.38-.87l-2.86-.53a7.53 7.53 0 01-3.76-1.7 4.27 4.27 0 01-1.33-3.25c0-1.04.28-1.95.84-2.74a5.6 5.6 0 012.38-1.84 8.9 8.9 0 013.55-.67c1.42 0 2.67.23 3.73.72a6.35 6.35 0 012.56 2.03c.27.36.48.75.65 1.16.4.95-.38 1.98-1.4 1.98h-.12c-.64 0-1.26-.36-1.48-.97a3.3 3.3 0 00-1.05-1.5c-.73-.6-1.69-.9-2.86-.9-1.06 0-1.92.22-2.58.65a2.03 2.03 0 00-.98 1.78c0 .7.23 1.25.72 1.6.47.37 1.24.67 2.3.9l3 .56c1.75.32 3.04.86 3.89 1.63.84.78 1.27 1.8 1.27 3.07l.02-.02z" fill="#fff"/><defs><linearGradient id="paint0_linear_1806_18167" x1="7.37" y1="1.21" x2="22.43" y2="16.27" gradientUnits="userSpaceOnUse"><stop offset=".41" stop-color="#7D6BD6" stop-opacity="0"/><stop offset=".87" stop-color="#7D6BD6" stop-opacity=".78"/><stop offset="1" stop-color="#7D6BD6"/></linearGradient></defs></svg>