<svg width="20" height="20" viewBox="0 0 20 20" fill="none" xmlns="http://www.w3.org/2000/svg">
<g id="bookmark">
<path id="Icon" d="M4.16602 5.16667C4.16602 4.23325 4.16602 3.76654 4.34767 3.41002C4.50746 3.09641 4.76243 2.84144 5.07603 2.68166C5.43255 2.5 5.89926 2.5 6.83268 2.5H13.166C14.0994 2.5 14.5661 2.5 14.9227 2.68166C15.2363 2.84144 15.4912 3.09641 15.651 3.41002C15.8327 3.76654 15.8327 4.23325 15.8327 5.16667V14.9091C15.8327 15.7463 15.8327 16.1649 15.659 16.3898C15.5079 16.5857 15.2775 16.7043 15.0302 16.7134C14.7462 16.724 14.4056 16.4807 13.7244 15.9941L9.99935 13.3333L6.27433 15.9941C5.59308 16.4807 5.25246 16.724 4.96847 16.7134C4.72122 16.7043 4.49082 16.5857 4.33965 16.3898C4.16602 16.1649 4.16602 15.7463 4.16602 14.9091V5.16667Z" fill="white"/>
</g>
</svg>
