<svg width="18" height="16" viewBox="0 0 18 16" fill="none" xmlns="http://www.w3.org/2000/svg">
<path d="M1.5 6.13338C1.5 4.45322 1.5 3.61314 1.82698 2.9714C2.1146 2.40692 2.57354 1.94797 3.13803 1.66035C3.77976 1.33337 4.61984 1.33337 6.3 1.33337H11.7C13.3802 1.33337 14.2202 1.33337 14.862 1.66035C15.4265 1.94797 15.8854 2.40692 16.173 2.9714C16.5 3.61314 16.5 4.45322 16.5 6.13337V11.7037V14.6667L13.8423 13.3379C13.5903 13.2119 13.4643 13.1489 13.3323 13.1045C13.215 13.065 13.0944 13.0365 12.9718 13.0194C12.8338 13 12.693 13 12.4112 13H6.3C4.61984 13 3.77976 13 3.13803 12.6731C2.57354 12.3854 2.1146 11.9265 1.82698 11.362C1.5 10.7203 1.5 9.8802 1.5 8.20004V6.13338Z" stroke="currentColor" strokeWidth="1.8" strokeLinecap="round" strokeLinejoin="round"/>
</svg>
