<svg width="20" height="20" viewBox="0 0 20 20" fill="none" xmlns="http://www.w3.org/2000/svg">
<g id="heart filled">
<path id="Intersect" fill-rule="evenodd" clip-rule="evenodd" d="M4.11597 4.28658C5.57543 3.04353 7.41317 3.09198 8.86371 3.99468C9.28047 4.25405 9.66527 4.58392 9.99995 4.97395C10.3358 4.58255 10.72 4.25257 11.1355 3.99391C12.5751 3.09774 14.3906 3.05785 15.8737 4.28658C17.7847 5.86994 18.0169 8.56223 16.5415 10.4548C15.3148 12.0283 11.6023 15.347 10.3856 16.4212C10.2495 16.5414 10.1814 16.6014 10.102 16.6251C10.0327 16.6457 9.9569 16.6457 9.8876 16.6251C9.80821 16.6014 9.74015 16.5414 9.60402 16.4212C8.38728 15.347 4.67481 12.0283 3.44809 10.4548C2.81749 9.64591 2.50473 8.694 2.5 7.74415V7.7004C2.50626 6.44261 3.05251 5.19234 4.11597 4.28658Z" fill="#F44E32"/>
</g>
</svg>
