<svg width="20" height="20" viewBox="0 0 20 20" fill="none" xmlns="http://www.w3.org/2000/svg">
<path fillRule="evenodd" clipRule="evenodd" d="M11.2884 9.58328C8.31925 9.58328 5.64091 10.9449 3.94675 13.1324C4.72591 9.90828 7.72175 7.49995 11.2884 7.49995C11.7492 7.49995 12.1217 7.12745 12.1217 6.66661V5.06411L16.1417 8.54245L12.1217 12.0524V10.4166C12.1217 9.95578 11.7492 9.58328 11.2884 9.58328ZM3.14925 17.4999C3.53341 17.4999 3.86841 17.2374 3.95925 16.8641C4.70091 13.8233 7.31008 11.6266 10.4551 11.2941V12.2283C10.4551 12.8166 10.8042 13.3408 11.3659 13.5949C11.9751 13.8724 12.6859 13.7724 13.1801 13.3416L17.4017 9.65494C17.7292 9.36828 17.9167 8.96244 17.9167 8.54161C17.9167 8.12078 17.7292 7.71494 17.4017 7.42828L13.1801 3.74161C12.6859 3.31078 11.9751 3.21078 11.3659 3.48828C10.8042 3.74244 10.4551 4.26661 10.4551 4.85494V5.86994C5.76841 6.28078 2.08341 10.1249 2.08341 14.7916C2.08341 15.4666 2.17008 16.1633 2.34008 16.8633C2.43008 17.2374 2.76425 17.4999 3.14925 17.4999Z" fill="currentColor"/>
</svg>
