<svg width="20" height="20" viewBox="0 0 20 20" fill="none" xmlns="http://www.w3.org/2000/svg">
<path d="M4.16669 5.16667C4.16669 4.23325 4.16669 3.76654 4.34834 3.41002C4.50813 3.09641 4.7631 2.84144 5.0767 2.68166C5.43322 2.5 5.89993 2.5 6.83335 2.5H13.1667C14.1001 2.5 14.5668 2.5 14.9233 2.68166C15.2369 2.84144 15.4919 3.09641 15.6517 3.41002C15.8334 3.76654 15.8334 4.23325 15.8334 5.16667V14.9091C15.8334 15.7463 15.8334 16.1649 15.6597 16.3898C15.5085 16.5857 15.2782 16.7043 15.0309 16.7134C14.7469 16.724 14.4063 16.4807 13.725 15.9941L10 13.3333L6.275 15.9941C5.59376 16.4807 5.25313 16.724 4.96914 16.7134C4.72189 16.7043 4.4915 16.5857 4.34032 16.3898C4.16669 16.1649 4.16669 15.7463 4.16669 14.9091V5.16667Z" stroke="currentColor" strokeWidth="1.8" strokeLinecap="round" strokeLinejoin="round"/>
</svg>
