<svg width="18" height="16" viewBox="0 0 18 16" fill="none" xmlns="http://www.w3.org/2000/svg">
<path d="M1.5 6.1335C1.5 4.45334 1.5 3.61326 1.82698 2.97152C2.1146 2.40704 2.57354 1.9481 3.13803 1.66048C3.77976 1.3335 4.61984 1.3335 6.3 1.3335H11.7C13.3802 1.3335 14.2202 1.3335 14.862 1.66048C15.4265 1.9481 15.8854 2.40704 16.173 2.97152C16.5 3.61326 16.5 4.45334 16.5 6.1335V11.7039V14.6668L13.8423 13.338C13.5903 13.212 13.4643 13.149 13.3323 13.1046C13.215 13.0651 13.0944 13.0366 12.9718 13.0195C12.8338 13.0002 12.693 13.0002 12.4112 13.0002H6.3C4.61984 13.0002 3.77976 13.0002 3.13803 12.6732C2.57354 12.3856 2.1146 11.9266 1.82698 11.3621C1.5 10.7204 1.5 9.88032 1.5 8.20016V6.1335Z" stroke="#979797" stroke-width="1.8" stroke-linecap="round" stroke-linejoin="round"/>
</svg>
