<svg width="376" height="48" viewBox="0 0 376 48" fill="none" xmlns="http://www.w3.org/2000/svg">
<rect width="376" height="48" rx="14" fill="white" fill-opacity="0.05"/>
<path d="M32.6725 28.6412L37 33M35 23C35 27.4183 31.4183 31 27 31C22.5817 31 19 27.4183 19 23C19 18.5817 22.5817 15 27 15C31.4183 15 35 18.5817 35 23Z" stroke="#515151" stroke-width="1.8" stroke-linecap="round" stroke-linejoin="round"/>
<path d="M57.5073 27.1509C57.5073 27.7856 57.3486 28.3276 57.0312 28.7769C56.7188 29.2212 56.2793 29.5605 55.7129 29.7949C55.1465 30.0293 54.48 30.1465 53.7134 30.1465C53.3081 30.1465 52.9248 30.127 52.5635 30.0879C52.2021 30.0488 51.8701 29.9927 51.5674 29.9194C51.2646 29.8462 50.9985 29.7559 50.769 29.6484V28.4546C51.1353 28.606 51.582 28.7476 52.1094 28.8794C52.6367 29.0063 53.1885 29.0698 53.7646 29.0698C54.3018 29.0698 54.7559 28.999 55.127 28.8574C55.498 28.7109 55.7788 28.5034 55.9692 28.2349C56.1646 27.9614 56.2622 27.6343 56.2622 27.2534C56.2622 26.8872 56.1816 26.582 56.0205 26.3379C55.8594 26.0889 55.5908 25.8643 55.2148 25.6641C54.8438 25.459 54.3359 25.2417 53.6914 25.0122C53.2373 24.8511 52.8369 24.6753 52.4902 24.4849C52.1436 24.2896 51.853 24.0698 51.6187 23.8257C51.3843 23.5815 51.2061 23.2983 51.084 22.9761C50.9668 22.6538 50.9082 22.2852 50.9082 21.8701C50.9082 21.2988 51.0522 20.8105 51.3403 20.4053C51.6333 19.9951 52.0361 19.6826 52.5488 19.4678C53.0664 19.248 53.6597 19.1382 54.3286 19.1382C54.8999 19.1382 55.4272 19.1919 55.9106 19.2993C56.3989 19.4067 56.8457 19.5508 57.251 19.7314L56.8628 20.8008C56.4771 20.6396 56.0669 20.5054 55.6323 20.3979C55.2026 20.2905 54.7583 20.2368 54.2993 20.2368C53.8403 20.2368 53.4521 20.3052 53.1348 20.4419C52.8223 20.5737 52.583 20.7617 52.417 21.0059C52.251 21.25 52.168 21.5405 52.168 21.8774C52.168 22.2534 52.2461 22.5659 52.4023 22.8149C52.5635 23.064 52.8174 23.2861 53.1641 23.4814C53.5156 23.6719 53.9795 23.8721 54.5557 24.082C55.1855 24.3115 55.7202 24.5557 56.1597 24.8145C56.5991 25.0684 56.9336 25.3809 57.1631 25.752C57.3926 26.1182 57.5073 26.5845 57.5073 27.1509ZM62.605 21.8262C63.2886 21.8262 63.8745 21.9775 64.3628 22.2803C64.8511 22.583 65.2246 23.0078 65.4834 23.5547C65.7422 24.0967 65.8716 24.7314 65.8716 25.459V26.2134H60.3271C60.3418 27.1558 60.5762 27.8735 61.0303 28.3667C61.4844 28.8599 62.124 29.1064 62.9492 29.1064C63.457 29.1064 63.9062 29.0601 64.2969 28.9673C64.6875 28.8745 65.0928 28.7378 65.5127 28.5571V29.6265C65.1074 29.8071 64.7046 29.939 64.3042 30.022C63.9087 30.105 63.4399 30.1465 62.8979 30.1465C62.1265 30.1465 61.4526 29.9902 60.8765 29.6777C60.3052 29.3604 59.8608 28.8965 59.5435 28.2861C59.2261 27.6758 59.0674 26.9287 59.0674 26.0449C59.0674 25.1807 59.2114 24.4336 59.4995 23.8037C59.7925 23.1689 60.2026 22.6807 60.73 22.3389C61.2622 21.9971 61.8872 21.8262 62.605 21.8262ZM62.5903 22.8223C61.9409 22.8223 61.4233 23.0347 61.0376 23.4595C60.6519 23.8843 60.4224 24.4775 60.3491 25.2393H64.5972C64.5923 24.7607 64.5166 24.3408 64.3701 23.9795C64.2285 23.6133 64.0112 23.3301 63.7183 23.1299C63.4253 22.9248 63.0493 22.8223 62.5903 22.8223ZM70.9399 21.8408C71.897 21.8408 72.6074 22.0557 73.0713 22.4854C73.5352 22.915 73.7671 23.6011 73.7671 24.5435V30H72.8809L72.6465 28.8135H72.5879C72.3633 29.1064 72.1289 29.353 71.8848 29.5532C71.6406 29.7485 71.3574 29.8975 71.0352 30C70.7178 30.0977 70.3271 30.1465 69.8633 30.1465C69.375 30.1465 68.9404 30.061 68.5596 29.8901C68.1836 29.7192 67.8857 29.4604 67.666 29.1138C67.4512 28.7671 67.3438 28.3276 67.3438 27.7954C67.3438 26.9946 67.6611 26.3794 68.2959 25.9497C68.9307 25.52 69.8975 25.2856 71.1963 25.2466L72.5806 25.188V24.6973C72.5806 24.0039 72.4316 23.5181 72.1338 23.2397C71.8359 22.9614 71.416 22.8223 70.874 22.8223C70.4541 22.8223 70.0537 22.8833 69.6729 23.0054C69.292 23.1274 68.9307 23.2715 68.5889 23.4375L68.2153 22.5146C68.5767 22.3291 68.9917 22.1704 69.4604 22.0386C69.9292 21.9067 70.4224 21.8408 70.9399 21.8408ZM72.5659 26.0449L71.3428 26.0962C70.3418 26.1353 69.6362 26.2988 69.2261 26.5869C68.8159 26.875 68.6108 27.2827 68.6108 27.8101C68.6108 28.269 68.75 28.6084 69.0283 28.8281C69.3066 29.0479 69.6753 29.1577 70.1343 29.1577C70.8472 29.1577 71.4307 28.96 71.8848 28.5645C72.3389 28.1689 72.5659 27.5757 72.5659 26.7847V26.0449ZM79.9194 21.8262C80.0806 21.8262 80.249 21.8359 80.4248 21.8555C80.6006 21.8701 80.7568 21.8921 80.8936 21.9214L80.7397 23.0493C80.6079 23.0151 80.4614 22.9883 80.3003 22.9688C80.1392 22.9492 79.9878 22.9395 79.8462 22.9395C79.5239 22.9395 79.2188 23.0054 78.9307 23.1372C78.6475 23.2642 78.3984 23.4497 78.1836 23.6938C77.9688 23.9331 77.8003 24.2236 77.6782 24.5654C77.5562 24.9023 77.4951 25.2783 77.4951 25.6934V30H76.272V21.9727H77.2827L77.4146 23.4521H77.4658C77.6318 23.1543 77.832 22.8833 78.0664 22.6392C78.3008 22.3901 78.5718 22.1924 78.8794 22.0459C79.1919 21.8994 79.5386 21.8262 79.9194 21.8262ZM85.625 30.1465C84.9023 30.1465 84.2651 29.9976 83.7134 29.6997C83.1616 29.4019 82.7319 28.9478 82.4243 28.3374C82.1167 27.7271 81.9629 26.958 81.9629 26.0303C81.9629 25.0586 82.124 24.2651 82.4463 23.6499C82.7734 23.0298 83.2227 22.5708 83.7939 22.2729C84.3652 21.9751 85.0146 21.8262 85.7422 21.8262C86.1426 21.8262 86.5283 21.8677 86.8994 21.9507C87.2754 22.0288 87.583 22.1289 87.8223 22.251L87.4561 23.269C87.2119 23.1714 86.9287 23.0835 86.6064 23.0054C86.2891 22.9272 85.9912 22.8882 85.7129 22.8882C85.1562 22.8882 84.6924 23.0078 84.3213 23.2471C83.9551 23.4863 83.6792 23.8379 83.4937 24.3018C83.313 24.7656 83.2227 25.3369 83.2227 26.0156C83.2227 26.665 83.3105 27.2192 83.4863 27.6782C83.667 28.1372 83.9331 28.4888 84.2847 28.7329C84.6411 28.9722 85.0854 29.0918 85.6177 29.0918C86.0425 29.0918 86.4258 29.0479 86.7676 28.96C87.1094 28.8672 87.4194 28.7598 87.6978 28.6377V29.7217C87.4292 29.8584 87.1289 29.9634 86.7969 30.0366C86.4697 30.1099 86.0791 30.1465 85.625 30.1465ZM90.8179 18.6035V22.0093C90.8179 22.2046 90.813 22.4023 90.8032 22.6025C90.7935 22.7979 90.7764 22.9785 90.752 23.1445H90.8325C90.9985 22.8613 91.2085 22.6245 91.4624 22.4341C91.7212 22.2388 92.0142 22.0923 92.3413 21.9946C92.6685 21.8921 93.0151 21.8408 93.3813 21.8408C94.0259 21.8408 94.563 21.9434 94.9927 22.1484C95.4272 22.3535 95.752 22.6709 95.9668 23.1006C96.1865 23.5303 96.2964 24.0869 96.2964 24.7705V30H95.0952V24.8511C95.0952 24.1821 94.9414 23.6816 94.6338 23.3496C94.3311 23.0176 93.8647 22.8516 93.2349 22.8516C92.6392 22.8516 92.1631 22.9663 91.8066 23.1958C91.4551 23.4204 91.2012 23.7524 91.0449 24.1919C90.8936 24.6313 90.8179 25.1685 90.8179 25.8032V30H89.6021V18.6035H90.8179Z" fill="#979797"/>
</svg>
