<svg width="18" height="18" viewBox="0 0 18 18" fill="none" xmlns="http://www.w3.org/2000/svg">
<g id="pen">
<path id="Icon" d="M10.4999 4.50001L13.4999 7.50001M3.1324 15.5735L4.57478 15.285C5.10448 15.1791 5.36933 15.1261 5.6163 15.0292C5.83551 14.9433 6.04384 14.8318 6.23698 14.6971C6.45458 14.5453 6.64556 14.3543 7.02753 13.9724L14.9014 6.09854C15.1984 5.80152 15.3469 5.65302 15.4025 5.48177C15.4515 5.33114 15.4515 5.16888 15.4025 5.01825C15.3469 4.847 15.1984 4.69849 14.9014 4.40148L13.5984 3.09854C13.3014 2.80152 13.1529 2.65302 12.9816 2.59738C12.831 2.54843 12.6687 2.54843 12.5181 2.59738C12.3469 2.65302 12.1984 2.80152 11.9014 3.09854L4.02753 10.9724C3.64556 11.3543 3.45458 11.5453 3.30282 11.7629C3.16812 11.956 3.05662 12.1644 2.97064 12.3836C2.87377 12.6306 2.8208 12.8954 2.71486 13.4251L2.42638 14.8675C2.36737 15.1626 2.33786 15.3101 2.3814 15.4153C2.41946 15.5073 2.49255 15.5804 2.58455 15.6185C2.68978 15.662 2.83732 15.6325 3.1324 15.5735Z" stroke="white" strokeWidth="1.2" strokeLinecap="round" strokeLinejoin="round"/>
</g>
</svg>
