<svg width="14" height="14" viewBox="0 0 14 14" fill="none" xmlns="http://www.w3.org/2000/svg">
<g id="circle-question">
<path id="Icon" d="M5.72396 5.54297C5.82674 5.25079 6.02961 5.00442 6.29664 4.84749C6.56366 4.69055 6.87761 4.63319 7.18289 4.68555C7.48816 4.73791 7.76504 4.89662 7.96451 5.13357C8.16397 5.37052 8.27314 5.67042 8.27268 5.98015C8.27268 6.85449 6.96116 7.29167 6.96116 7.29167M6.97721 9.04167H6.98305M12.25 7C12.25 9.8995 9.8995 12.25 7 12.25C4.10051 12.25 1.75 9.8995 1.75 7C1.75 4.10051 4.10051 1.75 7 1.75C9.8995 1.75 12.25 4.10051 12.25 7Z" stroke="#979797" strokeWidth="0.875" strokeLinecap="round" strokeLinejoin="round"/>
</g>
</svg>
