<svg width="120" height="116" viewBox="0 0 120 116" fill="none" xmlns="http://www.w3.org/2000/svg">
<g filter="url(#filter0_d_591_67343)">
<path d="M57.8022 86C73.1569 86 85.6043 73.464 85.6043 58C85.6043 42.536 73.1569 30 57.8022 30C42.4474 30 30 42.536 30 58C30 73.464 42.4474 86 57.8022 86Z" fill="#5848BC"/>
<mask id="mask0_591_67343" style="mask-type:alpha" maskUnits="userSpaceOnUse" x="30" y="30" width="56" height="56">
<path d="M57.8022 86C73.1569 86 85.6043 73.464 85.6043 58C85.6043 42.536 73.1569 30 57.8022 30C42.4474 30 30 42.536 30 58C30 73.464 42.4474 86 57.8022 86Z" fill="#604EB8"/>
</mask>
<g mask="url(#mask0_591_67343)">
<rect width="6.15508" height="74.9534" transform="matrix(0.704595 0.709609 -0.704595 0.709609 82.8115 28.3281)" fill="url(#paint0_linear_591_67343)"/>
</g>
<path d="M57.8026 80.0971C69.9204 80.0971 79.7438 70.2038 79.7438 57.9997C79.7438 45.7957 69.9204 35.9023 57.8026 35.9023C45.6848 35.9023 35.8613 45.7957 35.8613 57.9997C35.8613 70.2038 45.6848 80.0971 57.8026 80.0971Z" fill="#89AFE9"/>
<path opacity="0.7" d="M57.8026 80.0971C69.9204 80.0971 79.7438 70.2038 79.7438 57.9997C79.7438 45.7957 69.9204 35.9023 57.8026 35.9023C45.6848 35.9023 35.8613 45.7957 35.8613 57.9997C35.8613 70.2038 45.6848 80.0971 57.8026 80.0971Z" fill="url(#paint1_linear_591_67343)"/>
<path d="M62.1974 30H57.8018C73.1562 30 85.6039 42.5363 85.6039 58C85.6039 73.4637 73.1562 86 57.8018 86H62.1974C77.5519 86 89.9996 73.4637 89.9996 58C89.9996 42.5363 77.5519 30 62.1974 30Z" fill="#4933B8"/>
<path opacity="0.7" d="M62.1974 30H57.8018C73.1562 30 85.6039 42.5363 85.6039 58C85.6039 73.4637 73.1562 86 57.8018 86H62.1974C77.5519 86 89.9996 73.4637 89.9996 58C89.9996 42.5363 77.5519 30 62.1974 30Z" fill="url(#paint2_linear_591_67343)"/>
<mask id="mask1_591_67343" style="mask-type:alpha" maskUnits="userSpaceOnUse" x="57" y="30" width="33" height="56">
<path opacity="0.7" d="M62.1974 30H57.8018C73.1562 30 85.6039 42.5363 85.6039 58C85.6039 73.4637 73.1562 86 57.8018 86H62.1974C77.5519 86 89.9996 73.4637 89.9996 58C89.9996 42.5363 77.5519 30 62.1974 30Z" fill="url(#paint3_linear_591_67343)"/>
</mask>
<g mask="url(#mask1_591_67343)">
<rect x="83.082" y="59.2344" width="3.34128" height="12.4413" transform="rotate(-90 83.082 59.2344)" fill="url(#paint4_linear_591_67343)"/>
<rect x="80.5938" y="70.0938" width="3.34128" height="12.4413" transform="rotate(-90 80.5938 70.0938)" fill="url(#paint5_linear_591_67343)"/>
<rect x="80.5938" y="48.375" width="3.34128" height="13.2707" transform="rotate(-90 80.5938 48.375)" fill="url(#paint6_linear_591_67343)"/>
<rect x="69.8115" y="37.5156" width="3.34128" height="19.0766" transform="rotate(-90 69.8115 37.5156)" fill="url(#paint7_linear_591_67343)"/>
</g>
<path d="M43.2705 49.4211V66.5458L57.7859 75.1075L72.3001 66.5458V49.4211L57.7859 40.8594L43.2705 49.4211Z" fill="url(#paint8_linear_591_67343)"/>
<path d="M48.2471 52.3452V63.6225L57.7858 69.2607L67.3237 63.6225V52.3452L57.7858 46.707L48.2471 52.3452Z" fill="url(#paint9_linear_591_67343)" fill-opacity="0.8"/>
</g>
<defs>
<filter id="filter0_d_591_67343" x="0" y="0" width="120" height="116" filterUnits="userSpaceOnUse" color-interpolation-filters="sRGB">
<feFlood flood-opacity="0" result="BackgroundImageFix"/>
<feColorMatrix in="SourceAlpha" type="matrix" values="0 0 0 0 0 0 0 0 0 0 0 0 0 0 0 0 0 0 127 0" result="hardAlpha"/>
<feOffset/>
<feGaussianBlur stdDeviation="15"/>
<feComposite in2="hardAlpha" operator="out"/>
<feColorMatrix type="matrix" values="0 0 0 0 0.0705882 0 0 0 0 0.0705882 0 0 0 0 0.0705882 0 0 0 0.25 0"/>
<feBlend mode="normal" in2="BackgroundImageFix" result="effect1_dropShadow_591_67343"/>
<feBlend mode="normal" in="SourceGraphic" in2="effect1_dropShadow_591_67343" result="shape"/>
</filter>
<linearGradient id="paint0_linear_591_67343" x1="3.07754" y1="0" x2="3.07754" y2="74.9534" gradientUnits="userSpaceOnUse">
<stop stop-color="#D1DEFF"/>
<stop offset="1" stop-color="#D1DBFF" stop-opacity="0"/>
</linearGradient>
<linearGradient id="paint1_linear_591_67343" x1="35.8063" y1="10.3697" x2="73.536" y2="77.8035" gradientUnits="userSpaceOnUse">
<stop stop-color="#6B83D6"/>
<stop offset="1" stop-color="#9747FF" stop-opacity="0.42"/>
</linearGradient>
<linearGradient id="paint2_linear_591_67343" x1="73.9007" y1="30" x2="73.9007" y2="86" gradientUnits="userSpaceOnUse">
<stop stop-color="#D1DEFF"/>
<stop offset="1" stop-color="#D1DBFF" stop-opacity="0"/>
</linearGradient>
<linearGradient id="paint3_linear_591_67343" x1="73.9007" y1="30" x2="73.9007" y2="86" gradientUnits="userSpaceOnUse">
<stop stop-color="#D9D1FF"/>
<stop offset="1" stop-color="#D9D1FF" stop-opacity="0"/>
</linearGradient>
<linearGradient id="paint4_linear_591_67343" x1="84.7527" y1="59.2344" x2="84.7527" y2="71.6756" gradientUnits="userSpaceOnUse">
<stop offset="0.644474" stop-color="#5848BC"/>
<stop offset="1" stop-color="#5848BC" stop-opacity="0"/>
</linearGradient>
<linearGradient id="paint5_linear_591_67343" x1="82.2644" y1="70.0938" x2="82.2644" y2="82.535" gradientUnits="userSpaceOnUse">
<stop offset="0.644474" stop-color="#5848BC"/>
<stop offset="1" stop-color="#5848BC" stop-opacity="0"/>
</linearGradient>
<linearGradient id="paint6_linear_591_67343" x1="82.2644" y1="48.375" x2="82.2644" y2="61.6457" gradientUnits="userSpaceOnUse">
<stop stop-color="#4E6CB8"/>
<stop offset="1" stop-color="#4E59B8" stop-opacity="0"/>
</linearGradient>
<linearGradient id="paint7_linear_591_67343" x1="71.4822" y1="37.5156" x2="71.4822" y2="56.5922" gradientUnits="userSpaceOnUse">
<stop stop-color="#4E6CB8"/>
<stop offset="1" stop-color="#4E59B8" stop-opacity="0"/>
</linearGradient>
<linearGradient id="paint8_linear_591_67343" x1="50.4851" y1="42.6188" x2="67.4347" y2="74.8758" gradientUnits="userSpaceOnUse">
<stop stop-color="#D1DBFF"/>
<stop offset="1" stop-color="#D1E1FF" stop-opacity="0"/>
</linearGradient>
<linearGradient id="paint9_linear_591_67343" x1="52.9881" y1="47.8657" x2="64.1634" y2="69.0886" gradientUnits="userSpaceOnUse">
<stop stop-color="#7362C6"/>
<stop offset="1" stop-color="#6BA3D6" stop-opacity="0"/>
</linearGradient>
</defs>
</svg>
