<svg width="18" height="18" viewBox="0 0 18 18" fill="none" xmlns="http://www.w3.org/2000/svg">
  <path d="M9 2.25L10.5268 6.12115C10.6677 6.47849 10.7382 6.65716 10.8461 6.80782C10.9417 6.94137 11.0586 7.0583 11.1922 7.15394C11.3428 7.26184 11.5215 7.33231 11.8789 7.47324L15.75 9L11.8789 10.5268C11.5215 10.6677 11.3428 10.7382 11.1922 10.8461C11.0586 10.9417 10.9417 11.0586 10.8461 11.1922C10.7382 11.3428 10.6677 11.5215 10.5268 11.8789L9 15.75L7.47324 11.8789C7.33231 11.5215 7.26184 11.3428 7.15394 11.1922C7.0583 11.0586 6.94137 10.9417 6.80782 10.8461C6.65716 10.7382 6.47849 10.6677 6.12115 10.5268L2.25 9L6.12115 7.47324C6.47849 7.33231 6.65716 7.26184 6.80782 7.15394C6.94137 7.0583 7.0583 6.94137 7.15394 6.80782C7.26184 6.65716 7.33231 6.47849 7.47324 6.12115L9 2.25Z" stroke="#515151" strokeWidth="1.35" strokeLinecap="round" strokeLinejoin="round"/>
</svg>