<svg width="14" height="14" viewBox="0 0 14 14" fill="none" xmlns="http://www.w3.org/2000/svg">
<g id="star-alt-3">
<path id="Icon" d="M7 1.75L8.18748 4.76089C8.29709 5.03883 8.3519 5.17779 8.43582 5.29497C8.51021 5.39884 8.60116 5.48979 8.70503 5.56417C8.82221 5.6481 8.96117 5.70291 9.23911 5.81252L12.25 7L9.23911 8.18748C8.96117 8.29709 8.82221 8.3519 8.70503 8.43582C8.60116 8.51021 8.51021 8.60116 8.43582 8.70503C8.3519 8.82221 8.29709 8.96117 8.18748 9.23911L7 12.25L5.81252 9.23911C5.70291 8.96117 5.6481 8.82221 5.56417 8.70503C5.48979 8.60116 5.39884 8.51021 5.29497 8.43582C5.17779 8.3519 5.03883 8.29709 4.76089 8.18748L1.75 7L4.76089 5.81252C5.03883 5.70291 5.17779 5.6481 5.29497 5.56417C5.39884 5.48979 5.48979 5.39884 5.56417 5.29497C5.6481 5.17779 5.70291 5.03883 5.81252 4.76089L7 1.75Z" fill="white"/>
</g>
</svg>
