<svg width="18" height="18" viewBox="0 0 18 18" fill="none" xmlns="http://www.w3.org/2000/svg">
<path d="M8.45196 2.73024C8.62559 2.3407 8.71241 2.14594 8.8333 2.08595C8.93831 2.03385 9.06165 2.03385 9.16666 2.08595C9.28755 2.14594 9.37436 2.3407 9.548 2.73024L10.931 5.83294C10.9824 5.94809 11.008 6.00567 11.0477 6.04976C11.0829 6.08878 11.1258 6.11998 11.1738 6.14134C11.228 6.16549 11.2907 6.17211 11.4161 6.18534L14.7943 6.54189C15.2184 6.58666 15.4305 6.60904 15.5249 6.70547C15.6069 6.78925 15.645 6.90655 15.6279 7.02252C15.6082 7.15603 15.4498 7.29878 15.133 7.58429L12.6095 9.85842C12.5159 9.94282 12.469 9.98502 12.4394 10.0364C12.4131 10.0819 12.3967 10.1324 12.3912 10.1846C12.385 10.2436 12.3981 10.3053 12.4243 10.4286L13.1291 13.7517C13.2176 14.1689 13.2618 14.3775 13.1993 14.4971C13.1449 14.6009 13.0452 14.6734 12.9296 14.693C12.7965 14.7155 12.6118 14.609 12.2424 14.3959L9.29975 12.6987C9.19054 12.6357 9.13593 12.6042 9.07788 12.5919C9.02652 12.581 8.97344 12.581 8.92207 12.5919C8.86403 12.6042 8.80942 12.6357 8.7002 12.6987L5.75759 14.3959C5.38815 14.609 5.20344 14.7155 5.07038 14.693C4.9548 14.6734 4.85501 14.6009 4.80068 14.4971C4.73814 14.3775 4.78239 14.1689 4.87087 13.7517L5.5757 10.4286C5.60186 10.3053 5.61494 10.2436 5.60873 10.1846C5.60323 10.1324 5.58683 10.0819 5.56058 10.0364C5.53092 9.98502 5.48409 9.94282 5.39043 9.85842L2.86697 7.58429C2.55016 7.29878 2.39175 7.15603 2.37206 7.02252C2.35495 6.90655 2.39307 6.78925 2.47507 6.70547C2.56948 6.60904 2.78154 6.58666 3.20566 6.54189L6.58388 6.18534C6.70927 6.17211 6.77196 6.16549 6.82617 6.14134C6.87413 6.11998 6.91707 6.08878 6.95222 6.04976C6.99193 6.00567 7.0176 5.94809 7.06893 5.83294L8.45196 2.73024Z" fill="white"/>
</svg>
