<svg width="20" height="20" viewBox="0 0 20 20" fill="none" xmlns="http://www.w3.org/2000/svg">
<g clip-path="url(#clip0_4475_100111)">
<path fill-rule="evenodd" clip-rule="evenodd" d="M12.5023 3.33325C13.1223 3.33325 13.7773 3.54992 14.3773 3.78909L14.8165 3.96909C15.8665 4.40909 16.4565 5.33242 16.914 6.34659C17.6565 7.99242 18.1723 10.1866 18.3507 11.8549C18.4357 12.6466 18.4565 13.4433 18.304 13.9791C18.1398 14.5516 17.5815 14.9566 17.039 15.2749L16.7707 15.4274L16.4923 15.5824C16.349 15.6624 16.2015 15.7416 16.0548 15.8191L15.6198 16.0441L15.0223 16.3416L14.5415 16.5783C14.4433 16.6312 14.3354 16.6639 14.2243 16.6744C14.1132 16.6849 14.0011 16.673 13.8947 16.6393C13.7883 16.6057 13.6897 16.551 13.6049 16.4785C13.52 16.406 13.4505 16.3173 13.4006 16.2174C13.3507 16.1176 13.3214 16.0088 13.3143 15.8974C13.3073 15.786 13.3227 15.6744 13.3596 15.5691C13.3965 15.4637 13.4542 15.3669 13.5293 15.2843C13.6043 15.2017 13.6952 15.1351 13.7965 15.0883L14.4548 14.7633L13.9715 14.2558C12.8132 14.7308 11.449 14.9999 9.99985 14.9999C8.55068 14.9999 7.18652 14.7316 6.02818 14.2558L5.54485 14.7624L6.20568 15.0874C6.30363 15.1363 6.39098 15.2041 6.46275 15.2867C6.53451 15.3694 6.5893 15.4654 6.62396 15.5693C6.65863 15.6731 6.6725 15.7828 6.66479 15.892C6.65708 16.0012 6.62793 16.1078 6.57902 16.2058C6.5301 16.3037 6.46237 16.391 6.37969 16.4628C6.29702 16.5346 6.20102 16.5894 6.09717 16.624C5.88744 16.694 5.65849 16.6779 5.46068 16.5791L5.00735 16.3541C4.67235 16.1874 4.33652 16.0224 4.00485 15.8483L3.23152 15.4274L2.96402 15.2749C2.42152 14.9566 1.86235 14.5516 1.69902 13.9791C1.54568 13.4433 1.56735 12.6474 1.65152 11.8541C1.82985 10.1866 2.34568 7.99242 3.08818 6.34659C3.54568 5.33242 4.13568 4.40909 5.18568 3.96909C5.88235 3.67742 6.72652 3.33325 7.49985 3.33325C8.00235 3.33325 8.39735 3.79575 8.32485 4.28909C8.8794 4.20703 9.43926 4.16609 9.99985 4.16659C10.5757 4.16659 11.1382 4.20825 11.6782 4.28992C11.6621 4.17158 11.6714 4.05117 11.7053 3.93668C11.7393 3.82218 11.7972 3.7162 11.8752 3.62576C11.9532 3.53532 12.0495 3.46247 12.1578 3.41205C12.266 3.36162 12.3829 3.33476 12.5023 3.33325ZM7.29152 8.74992C6.90474 8.74992 6.53381 8.90356 6.26032 9.17705C5.98683 9.45054 5.83318 9.82148 5.83318 10.2083C5.83318 10.595 5.98683 10.966 6.26032 11.2394C6.53381 11.5129 6.90474 11.6666 7.29152 11.6666C7.67829 11.6666 8.04922 11.5129 8.32271 11.2394C8.5962 10.966 8.74985 10.595 8.74985 10.2083C8.74985 9.82148 8.5962 9.45054 8.32271 9.17705C8.04922 8.90356 7.67829 8.74992 7.29152 8.74992ZM12.7082 8.74992C12.3214 8.74992 11.9505 8.90356 11.677 9.17705C11.4035 9.45054 11.2498 9.82148 11.2498 10.2083C11.2498 10.595 11.4035 10.966 11.677 11.2394C11.9505 11.5129 12.3214 11.6666 12.7082 11.6666C13.095 11.6666 13.4659 11.5129 13.7394 11.2394C14.0129 10.966 14.1665 10.595 14.1665 10.2083C14.1665 9.82148 14.0129 9.45054 13.7394 9.17705C13.4659 8.90356 13.095 8.74992 12.7082 8.74992Z" fill="#979797"/>
</g>
<defs>
<clipPath id="clip0_4475_100111">
<rect width="20" height="20" fill="white"/>
</clipPath>
</defs>
</svg>
