<svg width="20" height="20" viewBox="0 0 20 20" fill="none" xmlns="http://www.w3.org/2000/svg">
<path d="M8.95794 10.8667C8.95794 10.3917 8.56628 10 8.09128 10C7.61628 10 7.22461 10.3917 7.22461 10.8667C7.22461 11.0965 7.31592 11.317 7.47845 11.4795C7.64098 11.642 7.86142 11.7333 8.09128 11.7333C8.32113 11.7333 8.54157 11.642 8.7041 11.4795C8.86663 11.317 8.95794 11.0965 8.95794 10.8667ZM11.7413 12.8417C11.3663 13.2167 10.5663 13.35 9.99961 13.35C9.43294 13.35 8.63294 13.2167 8.25794 12.8417C8.23767 12.82 8.21316 12.8027 8.18592 12.7908C8.15868 12.779 8.1293 12.7729 8.09961 12.7729C8.06991 12.7729 8.04054 12.779 8.0133 12.7908C7.98606 12.8027 7.96155 12.82 7.94128 12.8417C7.91958 12.8619 7.90227 12.8865 7.89044 12.9137C7.87862 12.9409 7.87251 12.9703 7.87251 13C7.87251 13.0297 7.87862 13.0591 7.89044 13.0863C7.90227 13.1135 7.91958 13.1381 7.94128 13.1583C8.53294 13.75 9.66628 13.8 9.99961 13.8C10.3329 13.8 11.4663 13.75 12.0579 13.1583C12.0796 13.1381 12.0969 13.1135 12.1088 13.0863C12.1206 13.0591 12.1267 13.0297 12.1267 13C12.1267 12.9703 12.1206 12.9409 12.1088 12.9137C12.0969 12.8865 12.0796 12.8619 12.0579 12.8417C11.9746 12.7583 11.8329 12.7583 11.7413 12.8417ZM11.9079 10C11.4329 10 11.0413 10.3917 11.0413 10.8667C11.0413 11.3417 11.4329 11.7333 11.9079 11.7333C12.3829 11.7333 12.7746 11.3417 12.7746 10.8667C12.7746 10.3917 12.3913 10 11.9079 10Z" fill="#979797"/>
<path d="M9.99935 1.66675C5.39935 1.66675 1.66602 5.40008 1.66602 10.0001C1.66602 14.6001 5.39935 18.3334 9.99935 18.3334C14.5993 18.3334 18.3327 14.6001 18.3327 10.0001C18.3327 5.40008 14.5993 1.66675 9.99935 1.66675ZM14.8327 11.1084C14.8493 11.2251 14.8577 11.3501 14.8577 11.4751C14.8577 13.3417 12.6827 14.8584 9.99935 14.8584C7.31602 14.8584 5.14102 13.3417 5.14102 11.4751C5.14102 11.3501 5.14935 11.2251 5.16602 11.1084C4.74102 10.9167 4.44935 10.4917 4.44935 10.0001C4.44811 9.76112 4.51752 9.52712 4.64884 9.32747C4.78017 9.12783 4.96756 8.97144 5.18748 8.87795C5.4074 8.78446 5.65004 8.75805 5.88493 8.80201C6.11981 8.84598 6.33647 8.95838 6.50768 9.12508C7.34935 8.51675 8.51602 8.13341 9.80768 8.09175L10.4243 5.18341C10.4327 5.12508 10.466 5.07508 10.516 5.05008C10.566 5.01675 10.6243 5.00841 10.6827 5.01675L12.6993 5.45008C12.7677 5.3114 12.872 5.19354 13.0013 5.10873C13.1306 5.02392 13.2802 4.97525 13.4347 4.96777C13.5891 4.96028 13.7428 4.99426 13.8797 5.06617C14.0166 5.13808 14.1317 5.24531 14.2132 5.37674C14.2947 5.50816 14.3395 5.65899 14.3431 5.81358C14.3466 5.96817 14.3087 6.1209 14.2333 6.25591C14.158 6.39093 14.0478 6.50331 13.9144 6.58141C13.7809 6.65952 13.629 6.70049 13.4743 6.70008C13.0077 6.70008 12.6327 6.33341 12.6077 5.87508L10.7993 5.49175L10.2493 8.09175C11.5243 8.13341 12.666 8.52508 13.4993 9.12508C13.6271 9.00309 13.78 8.91049 13.9472 8.85375C14.1145 8.79701 14.2922 8.7775 14.4678 8.79659C14.6434 8.81568 14.8127 8.87291 14.9639 8.96427C15.115 9.05564 15.2444 9.17893 15.343 9.32552C15.4415 9.47211 15.5068 9.63846 15.5344 9.81294C15.5619 9.98742 15.551 10.1658 15.5024 10.3356C15.4538 10.5054 15.3687 10.6626 15.253 10.7961C15.1373 10.9296 14.9939 11.0362 14.8327 11.1084Z" fill="#979797"/>
</svg>
