<svg width="18" height="18" viewBox="0 0 18 18" fill="none" xmlns="http://www.w3.org/2000/svg">
<path d="M6 6H5.4C4.55992 6 4.13988 6 3.81901 6.16349C3.53677 6.3073 3.3073 6.53677 3.16349 6.81901C3 7.13988 3 7.55992 3 8.4V12.6C3 13.4401 3 13.8601 3.16349 14.181C3.3073 14.4632 3.53677 14.6927 3.81901 14.8365C4.13988 15 4.55992 15 5.4 15H9.6C10.4401 15 10.8601 15 11.181 14.8365C11.4632 14.6927 11.6927 14.4632 11.8365 14.181C12 13.8601 12 13.4401 12 12.6V12M8.4 12H12.6C13.4401 12 13.8601 12 14.181 11.8365C14.4632 11.6927 14.6927 11.4632 14.8365 11.181C15 10.8601 15 10.4401 15 9.6V5.4C15 4.55992 15 4.13988 14.8365 3.81901C14.6927 3.53677 14.4632 3.3073 14.181 3.16349C13.8601 3 13.4401 3 12.6 3H8.4C7.55992 3 7.13988 3 6.81901 3.16349C6.53677 3.3073 6.3073 3.53677 6.16349 3.81901C6 4.13988 6 4.55992 6 5.4V9.6C6 10.4401 6 10.8601 6.16349 11.181C6.3073 11.4632 6.53677 11.6927 6.81901 11.8365C7.13988 12 7.55992 12 8.4 12Z" stroke="#515151" strokeWidth="1.35" strokeLinecap="round" strokeLinejoin="round"/>
</svg>
