<svg width="20" height="20" viewBox="0 0 20 20" fill="none" xmlns="http://www.w3.org/2000/svg">
<path d="M15 10.0003H15.0083M9.99996 10.0003H10.0083M4.99996 10.0003H5.00829M10.8333 10.0003C10.8333 10.4606 10.4602 10.8337 9.99996 10.8337C9.53972 10.8337 9.16663 10.4606 9.16663 10.0003C9.16663 9.54009 9.53972 9.16699 9.99996 9.16699C10.4602 9.16699 10.8333 9.54009 10.8333 10.0003ZM15.8333 10.0003C15.8333 10.4606 15.4602 10.8337 15 10.8337C14.5397 10.8337 14.1666 10.4606 14.1666 10.0003C14.1666 9.54009 14.5397 9.16699 15 9.16699C15.4602 9.16699 15.8333 9.54009 15.8333 10.0003ZM5.83329 10.0003C5.83329 10.4606 5.4602 10.8337 4.99996 10.8337C4.53972 10.8337 4.16663 10.4606 4.16663 10.0003C4.16663 9.54009 4.53972 9.16699 4.99996 9.16699C5.4602 9.16699 5.83329 9.54009 5.83329 10.0003Z" stroke="#515151" strokeWidth="1.5" strokeLinecap="round" strokeLinejoin="round"/>
</svg>
