<svg width="18" height="18" viewBox="0 0 18 18" fill="none" xmlns="http://www.w3.org/2000/svg">
<path d="M6.3 10.35C6.3 10.35 7.3125 11.7 9 11.7C10.6875 11.7 11.7 10.35 11.7 10.35M11.025 6.975H11.0317M6.975 6.975H6.98175M15.75 9C15.75 12.7279 12.7279 15.75 9 15.75C5.27208 15.75 2.25 12.7279 2.25 9C2.25 5.27208 5.27208 2.25 9 2.25C12.7279 2.25 15.75 5.27208 15.75 9ZM11.3625 6.975C11.3625 7.1614 11.2114 7.3125 11.025 7.3125C10.8386 7.3125 10.6875 7.1614 10.6875 6.975C10.6875 6.7886 10.8386 6.6375 11.025 6.6375C11.2114 6.6375 11.3625 6.7886 11.3625 6.975ZM7.3125 6.975C7.3125 7.1614 7.1614 7.3125 6.975 7.3125C6.7886 7.3125 6.6375 7.1614 6.6375 6.975C6.6375 6.7886 6.7886 6.6375 6.975 6.6375C7.1614 6.6375 7.3125 6.7886 7.3125 6.975Z" stroke="#515151" strokeWidth="1.35" strokeLinecap="round" strokeLinejoin="round"/>
</svg>
