<svg width="18" height="18" viewBox="0 0 18 18" fill="none" xmlns="http://www.w3.org/2000/svg">
<path d="M9 6V15M9 5.25H6.34821C5.95749 5.25 5.58278 5.09196 5.30649 4.81066C5.03021 4.52936 4.875 4.14782 4.875 3.75C4.875 3.35218 5.03021 2.97064 5.30649 2.68934C5.58278 2.40804 5.95749 2.25 6.34821 2.25C8.41071 2.25 9 5.25 9 5.25ZM9 5.25H11.6518C12.0425 5.25 12.4172 5.09196 12.6935 4.81066C12.9698 4.52936 13.125 4.14782 13.125 3.75C13.125 3.35218 12.9698 2.97064 12.6935 2.68934C12.4172 2.40804 12.0425 2.25 11.6518 2.25C9.58929 2.25 9 5.25 9 5.25ZM3.75 9H14.25V13.35C14.25 14.1901 14.25 14.6101 14.0865 14.931C13.9427 15.2132 13.7132 15.4427 13.431 15.5865C13.1101 15.75 12.6901 15.75 11.85 15.75H6.15C5.30992 15.75 4.88988 15.75 4.56901 15.5865C4.28677 15.4427 4.0573 15.2132 3.91349 14.931C3.75 14.6101 3.75 14.1901 3.75 13.35V9ZM3.45 9H14.55C14.97 9 15.1801 9 15.3405 8.91825C15.4816 8.84635 15.5963 8.73161 15.6683 8.59049C15.75 8.43006 15.75 8.22004 15.75 7.8V6.45C15.75 6.02996 15.75 5.81994 15.6683 5.65951C15.5963 5.51839 15.4816 5.40365 15.3405 5.33175C15.1801 5.25 14.97 5.25 14.55 5.25H3.45C3.02996 5.25 2.81994 5.25 2.65951 5.33175C2.51839 5.40365 2.40365 5.51839 2.33175 5.65951C2.25 5.81994 2.25 6.02996 2.25 6.45V7.8C2.25 8.22004 2.25 8.43006 2.33175 8.59049C2.40365 8.73161 2.51839 8.84635 2.65951 8.91825C2.81994 9 3.02996 9 3.45 9Z" stroke="white" strokeOpacity="0.32" strokeWidth="1.35" strokeLinecap="round" strokeLinejoin="round"/>
</svg>
