<svg width="20" height="20" viewBox="0 0 20 20" fill="none" xmlns="http://www.w3.org/2000/svg">
<path d="M12.4999 4.40476L13.9999 5.83333L17.4999 2.5M9.16659 3.33333H7.33325C5.93312 3.33333 5.23306 3.33333 4.69828 3.60582C4.22787 3.8455 3.84542 4.22795 3.60574 4.69836C3.33325 5.23314 3.33325 5.9332 3.33325 7.33333V12.6667C3.33325 14.0668 3.33325 14.7669 3.60574 15.3016C3.84542 15.772 4.22787 16.1545 4.69828 16.3942C5.23306 16.6667 5.93312 16.6667 7.33325 16.6667H12.6666C14.0667 16.6667 14.7668 16.6667 15.3016 16.3942C15.772 16.1545 16.1544 15.772 16.3941 15.3016C16.6666 14.7669 16.6666 14.0668 16.6666 12.6667V7.91667M11.8872 13.2813L10.4561 11.8621C9.79827 11.2098 9.46937 10.8836 9.09073 10.7613C8.75762 10.6537 8.39908 10.6537 8.06598 10.7613C7.68733 10.8836 7.35843 11.2098 6.70064 11.8621L3.4854 15M11.8872 13.2813L12.1717 12.9991C12.8433 12.3331 13.179 12.0001 13.5643 11.8786C13.9032 11.7717 14.2673 11.7759 14.6036 11.8905C14.986 12.0209 15.314 12.3616 15.9701 13.0428L16.6666 13.75M11.8872 13.2813L14.9999 16.5145" stroke="white" strokeOpacity="0.48" strokeWidth="1.5" strokeLinecap="round" strokeLinejoin="round"/>
</svg>
