<svg width="18" height="18" viewBox="0 0 18 18" fill="none" xmlns="http://www.w3.org/2000/svg">
<path d="M12 13.5H16.5M14.25 11.25V15.75M15 9V6.6C15 5.33988 15 4.70982 14.7548 4.22852C14.5391 3.80516 14.1948 3.46095 13.7715 3.24524C13.2902 3 12.6601 3 11.4 3H5.85C4.58988 3 3.95982 3 3.47852 3.24524C3.05516 3.46095 2.71095 3.80516 2.49524 4.22852C2.25 4.70982 2.25 5.33988 2.25 6.6V9.15C2.25 10.4101 2.25 11.0402 2.49524 11.5215C2.71095 11.9448 3.05516 12.2891 3.47852 12.5048C3.95982 12.75 4.58988 12.75 5.85 12.75H8.25M2.52 4.185L7.12573 7.80059C7.66081 8.22865 7.92835 8.44268 8.22505 8.52476C8.48677 8.59716 8.76323 8.59716 9.02495 8.52476C9.32165 8.44268 9.58919 8.22865 10.1243 7.80059L14.73 4.185" stroke="#979797" strokeWidth="1.8" strokeLinecap="round" strokeLinejoin="round"/>
</svg>
