<svg width="24" height="24" viewBox="0 0 24 24" fill="none" xmlns="http://www.w3.org/2000/svg">
<path d="M11.5001 12H5.41847M5.24609 12.7972L4.24133 15.7986C3.69103 17.4424 3.41588 18.2643 3.61334 18.7704C3.78482 19.21 4.15311 19.5432 4.60755 19.6701C5.13086 19.8161 5.92126 19.4604 7.50207 18.7491L17.6365 14.1886C19.1794 13.4942 19.9509 13.1471 20.1894 12.6648C20.3966 12.2458 20.3966 11.7541 20.1894 11.3351C19.9509 10.8529 19.1794 10.5057 17.6365 9.81135L7.48458 5.24303C5.90855 4.53382 5.12053 4.17921 4.59775 4.32468C4.14373 4.45101 3.77547 4.78336 3.6034 5.22209C3.40527 5.72728 3.67748 6.54741 4.2219 8.18767L5.24804 11.2793C5.34155 11.561 5.3883 11.7019 5.40676 11.8459C5.42314 11.9738 5.42297 12.1032 5.40626 12.231C5.38744 12.375 5.34032 12.5157 5.24609 12.7972Z" stroke="white" strokeWidth="1.8" strokeLinecap="round" strokeLinejoin="round"/>
</svg>
