<svg width="18" height="18" viewBox="0 0 18 18" fill="none" xmlns="http://www.w3.org/2000/svg">
<path d="M7.72619 10.2709L15.077 2.92279M7.93512 10.6014L9.60194 13.935C10.0047 14.7406 10.2061 15.1434 10.4599 15.2514C10.68 15.3451 10.9317 15.3282 11.1374 15.2057C11.3743 15.0647 11.5198 14.6385 11.8109 13.7861L14.9602 4.56298C15.2138 3.82029 15.3406 3.44894 15.2538 3.20329C15.1783 2.98958 15.0102 2.82148 14.7965 2.74598C14.5509 2.65919 14.1795 2.78599 13.4368 3.03959L4.21371 6.18895C3.36134 6.48 2.93516 6.62553 2.79407 6.86246C2.67164 7.06808 2.65467 7.31977 2.74841 7.53996C2.85642 7.79368 3.25922 7.99508 4.06483 8.39788L7.39846 10.0647C7.53121 10.1311 7.59758 10.1643 7.65509 10.2086C7.70613 10.2479 7.75189 10.2937 7.79123 10.3447C7.83556 10.4022 7.86875 10.4686 7.93512 10.6014Z" stroke="white" strokeOpacity="0.32" strokeWidth="1.35" strokeLinecap="round" strokeLinejoin="round"/>
</svg>
