<svg width="18" height="18" viewBox="0 0 18 18" fill="none" xmlns="http://www.w3.org/2000/svg">
<path d="M8.45208 2.72975C8.62571 2.34022 8.71253 2.14545 8.83342 2.08547C8.93843 2.03336 9.06177 2.03336 9.16678 2.08547C9.28767 2.14545 9.37449 2.34022 9.54812 2.72975L10.9311 5.83245C10.9825 5.9476 11.0081 6.00518 11.0479 6.04928C11.083 6.08829 11.1259 6.11949 11.1739 6.14086C11.2281 6.165 11.2908 6.17162 11.4162 6.18485L14.7944 6.5414C15.2185 6.58617 15.4306 6.60855 15.525 6.70499C15.607 6.78876 15.6451 6.90606 15.628 7.02203C15.6083 7.15554 15.4499 7.29829 15.1331 7.5838L12.6096 9.85793C12.516 9.94233 12.4692 9.98453 12.4395 10.0359C12.4133 10.0814 12.3968 10.1319 12.3914 10.1841C12.3851 10.2431 12.3982 10.3048 12.4244 10.4281L13.1292 13.7512C13.2177 14.1684 13.2619 14.377 13.1994 14.4966C13.1451 14.6005 13.0453 14.6729 12.9297 14.6925C12.7966 14.715 12.6119 14.6085 12.2425 14.3954L9.29987 12.6982C9.19066 12.6352 9.13605 12.6037 9.078 12.5914C9.02664 12.5805 8.97356 12.5805 8.9222 12.5914C8.86415 12.6037 8.80954 12.6352 8.70033 12.6982L5.75771 14.3954C5.38828 14.6085 5.20356 14.715 5.0705 14.6925C4.95492 14.6729 4.85514 14.6005 4.80081 14.4966C4.73826 14.377 4.78251 14.1684 4.871 13.7512L5.57582 10.4281C5.60198 10.3048 5.61506 10.2431 5.60885 10.1841C5.60335 10.1319 5.58695 10.0814 5.5607 10.0359C5.53104 9.98453 5.48421 9.94233 5.39055 9.85793L2.86709 7.5838C2.55028 7.29829 2.39187 7.15554 2.37218 7.02203C2.35508 6.90606 2.39319 6.78876 2.47519 6.70499C2.5696 6.60855 2.78166 6.58617 3.20579 6.5414L6.58401 6.18485C6.70939 6.17162 6.77208 6.165 6.82629 6.14086C6.87425 6.11949 6.9172 6.08829 6.95234 6.04928C6.99205 6.00518 7.01772 5.9476 7.06905 5.83245L8.45208 2.72975Z" stroke="#515151" stroke-width="1.35" stroke-linecap="round" stroke-linejoin="round"/>
</svg>
