<svg xmlns="http://www.w3.org/2000/svg" width="18" height="18" viewBox="0 0 18 18" fill="none">
  <path d="M8.45208 2.73024C8.62571 2.3407 8.71253 2.14594 8.83342 2.08595C8.93843 2.03385 9.06177 2.03385 9.16678 2.08595C9.28767 2.14594 9.37449 2.3407 9.54812 2.73024L10.9311 5.83294C10.9825 5.94809 11.0081 6.00567 11.0479 6.04976C11.083 6.08878 11.1259 6.11998 11.1739 6.14134C11.2281 6.16549 11.2908 6.17211 11.4162 6.18534L14.7944 6.54189C15.2185 6.58666 15.4306 6.60904 15.525 6.70547C15.607 6.78925 15.6451 6.90654 15.628 7.02252C15.6083 7.15603 15.4499 7.29878 15.1331 7.58429L12.6096 9.85841C12.516 9.94282 12.4692 9.98502 12.4395 10.0364C12.4133 10.0819 12.3968 10.1324 12.3914 10.1846C12.3851 10.2436 12.3982 10.3053 12.4244 10.4286L13.1292 13.7517C13.2177 14.1689 13.2619 14.3775 13.1994 14.4971C13.1451 14.6009 13.0453 14.6734 12.9297 14.693C12.7966 14.7155 12.6119 14.609 12.2425 14.3959L9.29987 12.6987C9.19066 12.6357 9.13605 12.6042 9.078 12.5919C9.02664 12.581 8.97356 12.581 8.9222 12.5919C8.86415 12.6042 8.80954 12.6357 8.70033 12.6987L5.75771 14.3959C5.38828 14.609 5.20356 14.7155 5.0705 14.693C4.95492 14.6734 4.85514 14.6009 4.80081 14.4971C4.73826 14.3775 4.78251 14.1689 4.871 13.7517L5.57582 10.4286C5.60198 10.3053 5.61506 10.2436 5.60885 10.1846C5.60335 10.1324 5.58695 10.0819 5.5607 10.0364C5.53104 9.98502 5.48421 9.94282 5.39055 9.85841L2.86709 7.58429C2.55028 7.29878 2.39187 7.15603 2.37218 7.02252C2.35508 6.90654 2.39319 6.78925 2.47519 6.70547C2.5696 6.60904 2.78166 6.58666 3.20579 6.54189L6.58401 6.18534C6.70939 6.17211 6.77208 6.16549 6.82629 6.14134C6.87425 6.11998 6.9172 6.08878 6.95234 6.04976C6.99205 6.00567 7.01772 5.94809 7.06905 5.83294L8.45208 2.73024Z" stroke="#515151" strokeWidth="1.35" strokeLinecap="round" strokeLinejoin="round"/>
</svg>
