<svg xmlns="http://www.w3.org/2000/svg" width="18" height="18" viewBox="0 0 18 18" fill="none">
<path d="M17.6462 4.8153C17.19 2.69595 15.435 1.00888 13.3739 0.714682H13.345L13.3161 0.708685C13.0506 0.684672 12.8081 0.666656 12.5772 0.666656C11.7978 0.666656 11.1339 0.810744 10.5392 1.11695C9.92727 1.40512 9.43654 1.80138 9.00354 2.21564C8.42044 1.66329 7.72188 1.13495 6.83279 0.864778H6.81548L6.79815 0.858782C6.34206 0.732697 5.86866 0.666656 5.39524 0.666656C4.39647 0.666656 3.44387 0.948835 2.64139 1.48918C1.15188 2.44979 0.210839 4.22692 0.251252 6.02207C0.222385 7.43897 0.799714 8.84993 1.84467 9.88857C2.77418 10.8551 3.72677 11.8458 4.67359 12.8304C5.77629 13.9771 6.87898 15.1299 7.98744 16.2766L9.00354 17.3333L10.0196 16.2766C11.0357 15.226 12.0461 14.1752 13.0563 13.1186C13.9051 12.236 14.7538 11.3475 15.6024 10.4649C15.7063 10.3568 15.7987 10.2608 15.8854 10.1707C16.3356 9.70842 16.8437 9.19206 17.1959 8.44757C17.7212 7.42092 17.8771 6.10012 17.6462 4.8153ZM15.92 7.76318C15.6197 8.42358 15.0712 8.89184 14.5921 9.40226C12.7273 11.3355 10.8741 13.2807 9.00932 15.2079C6.95403 13.0766 4.90452 10.9332 2.84923 8.80182C2.12757 8.08132 1.67148 7.06073 1.70035 6.01606C1.65416 4.70723 2.37005 3.42842 3.42656 2.74398C4.00966 2.35373 4.70245 2.1616 5.40102 2.1616C5.74742 2.1616 6.09381 2.20964 6.42866 2.3057C7.49672 2.62991 8.24724 3.53649 9.00354 4.32899C9.66747 3.65656 10.2852 2.87606 11.1512 2.4738C11.5958 2.24566 12.0807 2.16761 12.5714 2.16761C12.7735 2.16761 12.9756 2.17962 13.1718 2.19764C14.644 2.40776 15.9084 3.63855 16.2317 5.1395C16.3933 6.01606 16.3241 6.96465 15.9084 7.75711L15.92 7.76318Z" fill="#979797"/>
<path d="M11.5 8.58333L6.5 8.58331M9 6.08331V11.0833" stroke="#979797" stroke-width="1.8" stroke-linecap="round" stroke-linejoin="round"/>
</svg>