<svg width="18" height="18" viewBox="0 0 18 18" fill="none" xmlns="http://www.w3.org/2000/svg">
<path d="M8 6L5 9M5 9L8 12M5 9H13M5.8 17H12.2C13.8802 17 14.7202 17 15.362 16.673C15.9265 16.3854 16.3854 15.9265 16.673 15.362C17 14.7202 17 13.8802 17 12.2V5.8C17 4.11984 17 3.27976 16.673 2.63803C16.3854 2.07354 15.9265 1.6146 15.362 1.32698C14.7202 1 13.8802 1 12.2 1H5.8C4.11984 1 3.27976 1 2.63803 1.32698C2.07354 1.6146 1.6146 2.07354 1.32698 2.63803C1 3.27976 1 4.11984 1 5.8V12.2C1 13.8802 1 14.7202 1.32698 15.362C1.6146 15.9265 2.07354 16.3854 2.63803 16.673C3.27976 17 4.11984 17 5.8 17Z" stroke="#515151" stroke-width="1.8" stroke-linecap="round" stroke-linejoin="round"/>
</svg>
