<svg width="48" height="48" viewBox="0 0 48 48" fill="none" xmlns="http://www.w3.org/2000/svg">
<rect width="48" height="48" rx="24" transform="matrix(1 0 0 -1 0 48)" fill="#5848BC"/>
<path d="M22.5863 33.0004L16.0003 26.4144C15.7204 26.1347 15.5298 25.7783 15.4526 25.3902C15.3753 25.0022 15.4149 24.5999 15.5663 24.2344L15.6343 24.0894C15.802 23.7616 16.0569 23.4865 16.371 23.2943C16.6851 23.1022 17.0461 23.0005 17.4143 23.0004H20.0003L21.0003 16.0004C21.0003 15.4699 21.211 14.9612 21.5861 14.5862C21.9612 14.2111 22.4699 14.0004 23.0003 14.0004H25.0003L25.1503 14.0054C25.6534 14.0432 26.1237 14.2698 26.4668 14.6398C26.8099 15.0098 27.0005 15.4958 27.0003 16.0004L27.9993 23.0004H30.5863C30.9818 23.0004 31.3684 23.1178 31.6972 23.3376C32.026 23.5573 32.2823 23.8697 32.4336 24.2351C32.585 24.6005 32.6246 25.0025 32.5475 25.3904C32.4703 25.7783 32.2799 26.1347 32.0003 26.4144L25.4143 33.0004C25.0392 33.3753 24.5306 33.5859 24.0003 33.5859C23.47 33.5859 22.9613 33.3753 22.5863 33.0004Z" fill="white"/>
</svg>
