<svg width="70" height="56" viewBox="0 0 70 56" fill="none" xmlns="http://www.w3.org/2000/svg">
<g id="Group 70">
<g id="Group 66">
<path id="Vector" opacity="0.24" d="M36.9482 54.0304C32.6612 49.6847 28.3743 45.3386 24.0873 40.9924C20.4256 37.2803 16.7861 33.5682 13.1244 29.8789C9.66354 26.5061 7.72101 21.8882 7.87731 17.2708C7.67636 11.6346 10.8023 5.81729 15.8707 2.62572C18.483 0.928058 21.6312 0 24.9804 0C26.5657 0 28.151 0.203716 29.6916 0.63381C33.599 1.7882 36.4569 4.43653 38.9353 6.97168C40.9895 4.86663 43.1553 2.73891 46.1026 1.42603C47.9111 0.498016 50.1216 0.022656 52.7339 0.022656C53.6047 0.022656 54.4757 0.0679212 55.3461 0.158452C62.2902 1.13178 68.1177 6.5869 69.6362 13.4454C70.44 17.7914 69.9043 21.9791 68.1177 25.2838C67.0463 27.5699 65.2152 29.3805 63.6302 30.9879C63.2729 31.3501 55.949 38.7744 52.667 42.102C48.7596 46.0854 44.8299 50.047 40.9002 54.008L38.9353 56L36.9705 54.008L36.9482 54.0304Z" fill="url(#paint0_linear_241_54251)"/>
</g>
<g id="Group 43">
<g id="Group 20">
<path id="Vector_2" d="M28.5799 53.7914C24.3666 49.5753 20.1534 45.3586 15.9402 41.142C12.3414 37.5405 8.76458 33.939 5.16579 30.3596C1.76449 27.0873 -0.144623 22.607 0.00898475 18.1272C-0.18851 12.659 2.88362 7.01504 7.86487 3.91857C10.4323 2.2715 13.5264 1.37109 16.818 1.37109C18.376 1.37109 19.934 1.56874 21.4481 1.98602C25.2883 3.106 28.0971 5.67542 30.5329 8.13502C32.5517 6.0927 34.6802 4.02839 37.5768 2.75463C39.3543 1.85427 41.5267 1.39307 44.0941 1.39307C44.95 1.39307 45.8059 1.43699 46.6614 1.52482C53.486 2.46914 59.2133 7.76171 60.7056 14.4158C61.4956 18.6323 60.9691 22.6952 59.2134 25.9015C58.1604 28.1194 56.3608 29.8761 54.803 31.4356C54.4518 31.787 47.2539 38.9901 44.0283 42.2185C40.1881 46.0832 36.326 49.9267 32.4639 53.7697L30.5329 55.7024L28.6018 53.7697L28.5799 53.7914Z" fill="#D9D1FF"/>
<path id="Vector_3" d="M28.5799 53.7914C24.3666 49.5753 20.1534 45.3586 15.9402 41.142C12.3414 37.5405 8.76458 33.939 5.16579 30.3596C1.76449 27.0873 -0.144623 22.607 0.00898475 18.1272C-0.18851 12.659 2.88362 7.01504 7.86487 3.91857C10.4323 2.2715 13.5264 1.37109 16.818 1.37109C18.376 1.37109 19.934 1.56874 21.4481 1.98602C25.2883 3.106 28.0971 5.67542 30.5329 8.13502C32.5517 6.0927 34.6802 4.02839 37.5768 2.75463C39.3543 1.85427 41.5267 1.39307 44.0941 1.39307C44.95 1.39307 45.8059 1.43699 46.6614 1.52482C53.486 2.46914 59.2133 7.76171 60.7056 14.4158C61.4956 18.6323 60.9691 22.6952 59.2134 25.9015C58.1604 28.1194 56.3608 29.8761 54.803 31.4356C54.4518 31.787 47.2539 38.9901 44.0283 42.2185C40.1881 46.0832 36.326 49.9267 32.4639 53.7697L30.5329 55.7024L28.6018 53.7697L28.5799 53.7914Z" fill="url(#paint1_linear_241_54251)"/>
</g>
</g>
<g id="Group 67">
<rect id="Rectangle 1" x="29" y="18" width="4" height="20" rx="2" fill="#6150B9"/>
<rect id="Rectangle 2" x="21" y="30" width="4" height="20" rx="2" transform="rotate(-90 21 30)" fill="#6150B9"/>
</g>
</g>
<defs>
<linearGradient id="paint0_linear_241_54251" x1="20.1179" y1="-3.25419" x2="59.5811" y2="34.3049" gradientUnits="userSpaceOnUse">
<stop stop-color="#7D6BD6" stop-opacity="0.3"/>
<stop offset="1" stop-color="#7D6BD6"/>
</linearGradient>
<linearGradient id="paint1_linear_241_54251" x1="2.3486" y1="-14.9283" x2="63.7169" y2="57.3297" gradientUnits="userSpaceOnUse">
<stop offset="0.41" stop-color="#7D6BD6" stop-opacity="0"/>
<stop offset="0.87" stop-color="#7D6BD6" stop-opacity="0.78"/>
<stop offset="1" stop-color="#7D6BD6"/>
</linearGradient>
</defs>
</svg>
