<svg width="32" height="32" viewBox="0 0 32 32" fill="none" xmlns="http://www.w3.org/2000/svg">
<path d="M16 4C14.4241 4 12.8637 4.31039 11.4078 4.91345C9.95189 5.5165 8.62902 6.40042 7.51472 7.51472C6.40042 8.62902 5.5165 9.95189 4.91345 11.4078C4.31039 12.8637 4 14.4241 4 16C4 17.5759 4.31039 19.1363 4.91345 20.5922C5.5165 22.0481 6.40042 23.371 7.51472 24.4853C8.62902 25.5996 9.95189 26.4835 11.4078 27.0866C12.8637 27.6896 14.4241 28 16 28C19.1826 28 22.2348 26.7357 24.4853 24.4853C26.7357 22.2348 28 19.1826 28 16C28 12.8174 26.7357 9.76516 24.4853 7.51472C22.2348 5.26428 19.1826 4 16 4ZM17.5 11C17.5 11.3976 17.3421 11.7788 17.061 12.06C16.7798 12.3411 16.3986 12.499 16.001 12.499C15.6034 12.499 15.2222 12.3411 14.941 12.06C14.6599 11.7788 14.502 11.3976 14.502 11C14.502 10.6027 14.6598 10.2217 14.9408 9.94075C15.2217 9.65982 15.6027 9.502 16 9.502C16.3973 9.502 16.7783 9.65982 17.0592 9.94075C17.3402 10.2217 17.498 10.6027 17.498 11H17.5ZM16 14C16.2652 14 16.5196 14.1054 16.7071 14.2929C16.8946 14.4804 17 14.7348 17 15V21C17 21.2652 16.8946 21.5196 16.7071 21.7071C16.5196 21.8946 16.2652 22 16 22C15.7348 22 15.4804 21.8946 15.2929 21.7071C15.1054 21.5196 15 21.2652 15 21V15C15 14.7348 15.1054 14.4804 15.2929 14.2929C15.4804 14.1054 15.7348 14 16 14Z" fill="white"/>
</svg>
