<svg width="22" height="22" viewBox="0 0 22 22" fill="none" xmlns="http://www.w3.org/2000/svg">
<path d="M16.5 2.83047H5.5C4.36494 2.83047 3.46245 3.14352 2.844 3.76197C2.22555 4.38042 1.9125 5.28291 1.9125 6.41797V15.5846C1.9125 16.7197 2.22555 17.6222 2.844 18.2406C3.46245 18.8591 4.36494 19.1721 5.5 19.1721H16.5C17.6351 19.1721 18.5376 18.8591 19.156 18.2406C19.7745 17.6222 20.0875 16.7197 20.0875 15.5846V6.41797C20.0875 5.28291 19.7745 4.38042 19.156 3.76197C18.5376 3.14352 17.6351 2.83047 16.5 2.83047ZM3.5875 15.5846V6.41797C3.5875 5.71235 3.73865 5.24476 4.03272 4.95069C4.32679 4.65662 4.79438 4.50547 5.5 4.50547H12.9125V17.4971H5.5C4.79438 17.4971 4.32679 17.346 4.03272 17.0519C3.73865 16.7578 3.5875 16.2903 3.5875 15.5846ZM18.4125 15.5846C18.4125 16.2903 18.2613 16.7578 17.9673 17.0519C17.6732 17.346 17.2056 17.4971 16.5 17.4971H14.5875V4.50547H16.5C17.2056 4.50547 17.6732 4.65662 17.9673 4.95069C18.2613 5.24476 18.4125 5.71235 18.4125 6.41797V15.5846Z" fill="#515151" stroke="#515151" stroke-width="0.3"/>
</svg>
