<svg width="32" height="32" viewBox="0 0 32 32" fill="none" xmlns="http://www.w3.org/2000/svg">
<rect width="32" height="32" rx="16" fill="white" fill-opacity="0.08"/>
<path d="M9.33331 21.3346C9.33331 19.0437 11.2734 17.1865 13.6666 17.1865C16.0599 17.1865 18 19.0437 18 21.3346M23.3333 21.3347C23.3333 19.6165 21.9734 18.0013 20.3333 18.0013C20.0387 18.0013 19.7541 18.0463 19.4855 18.13M16.1428 13.0383C16.1428 14.3475 15.0342 15.4087 13.6666 15.4087C12.2991 15.4087 11.1905 14.3475 11.1905 13.0383C11.1905 11.7292 12.2991 10.668 13.6666 10.668C15.0342 10.668 16.1428 11.7292 16.1428 13.0383ZM22 14.5347C22 15.4551 21.2538 16.2013 20.3333 16.2013C19.4128 16.2013 18.6666 15.4551 18.6666 14.5347C18.6666 13.6142 19.4128 12.868 20.3333 12.868C21.2538 12.868 22 13.6142 22 14.5347Z" stroke="#979797" stroke-linecap="round" stroke-linejoin="round"/>
</svg>
