<svg width="32" height="32" viewBox="0 0 32 32" fill="none" xmlns="http://www.w3.org/2000/svg">
<g filter="url(#filter0_b_280_40166)">
<path d="M18.6631 25.7156L21.0631 28.0013L26.6631 22.668" stroke="#5848BC" stroke-width="2.4" stroke-linecap="round" stroke-linejoin="round"/>
<mask id="path-2-outside-1_280_40166" maskUnits="userSpaceOnUse" x="4.00195" y="3" width="17" height="26" fill="black">
<rect fill="white" x="4.00195" y="3" width="17" height="26"/>
<path fill-rule="evenodd" clip-rule="evenodd" d="M14.3353 14.6667C17.2808 14.6667 19.6686 12.2789 19.6686 9.33333C19.6686 6.38781 17.2808 4 14.3353 4C11.3898 4 9.00195 6.38781 9.00195 9.33333C9.00195 12.2789 11.3898 14.6667 14.3353 14.6667ZM5.00195 28C5.00195 22.8453 9.18063 18.6667 14.3353 18.6667C16.1289 18.6667 17.8044 19.1726 19.2268 20.0496C16.2793 20.4298 14.002 22.949 14.002 26C14.002 26.7013 14.1223 27.3744 14.3434 28H5.00195Z"/>
</mask>
<path fill-rule="evenodd" clip-rule="evenodd" d="M14.3353 14.6667C17.2808 14.6667 19.6686 12.2789 19.6686 9.33333C19.6686 6.38781 17.2808 4 14.3353 4C11.3898 4 9.00195 6.38781 9.00195 9.33333C9.00195 12.2789 11.3898 14.6667 14.3353 14.6667ZM5.00195 28C5.00195 22.8453 9.18063 18.6667 14.3353 18.6667C16.1289 18.6667 17.8044 19.1726 19.2268 20.0496C16.2793 20.4298 14.002 22.949 14.002 26C14.002 26.7013 14.1223 27.3744 14.3434 28H5.00195Z" fill="#5848BC"/>
<path d="M5.00195 28H4.00195C4.00195 28.5523 4.44967 29 5.00195 29V28ZM19.2268 20.0496L19.3547 21.0414C19.7748 20.9872 20.1152 20.6742 20.2044 20.2601C20.2936 19.8461 20.1122 19.4207 19.7516 19.1984L19.2268 20.0496ZM14.3434 28V29C14.668 29 14.9724 28.8424 15.1598 28.5774C15.3473 28.3123 15.3944 27.9728 15.2862 27.6668L14.3434 28ZM18.6686 9.33333C18.6686 11.7266 16.7285 13.6667 14.3353 13.6667V15.6667C17.8331 15.6667 20.6686 12.8311 20.6686 9.33333H18.6686ZM14.3353 5C16.7285 5 18.6686 6.9401 18.6686 9.33333H20.6686C20.6686 5.83553 17.8331 3 14.3353 3V5ZM10.002 9.33333C10.002 6.9401 11.9421 5 14.3353 5V3C10.8375 3 8.00195 5.83553 8.00195 9.33333H10.002ZM14.3353 13.6667C11.9421 13.6667 10.002 11.7266 10.002 9.33333H8.00195C8.00195 12.8311 10.8375 15.6667 14.3353 15.6667V13.6667ZM14.3353 17.6667C8.62834 17.6667 4.00195 22.2931 4.00195 28H6.00195C6.00195 23.3976 9.73291 19.6667 14.3353 19.6667V17.6667ZM19.7516 19.1984C18.176 18.2269 16.3196 17.6667 14.3353 17.6667V19.6667C15.9383 19.6667 17.4328 20.1183 18.702 20.9008L19.7516 19.1984ZM15.002 26C15.002 23.4583 16.8994 21.3581 19.3547 21.0414L19.0989 19.0578C15.6591 19.5015 13.002 22.4397 13.002 26H15.002ZM15.2862 27.6668C15.1024 27.1467 15.002 26.5862 15.002 26H13.002C13.002 26.8164 13.1421 27.6021 13.4005 28.3332L15.2862 27.6668ZM5.00195 29H14.3434V27H5.00195V29Z" fill="#5848BC" mask="url(#path-2-outside-1_280_40166)"/>
</g>
<defs>
<filter id="filter0_b_280_40166" x="-88" y="-88" width="208" height="208" filterUnits="userSpaceOnUse" color-interpolation-filters="sRGB">
<feFlood flood-opacity="0" result="BackgroundImageFix"/>
<feGaussianBlur in="BackgroundImageFix" stdDeviation="44"/>
<feComposite in2="SourceAlpha" operator="in" result="effect1_backgroundBlur_280_40166"/>
<feBlend mode="normal" in="SourceGraphic" in2="effect1_backgroundBlur_280_40166" result="shape"/>
</filter>
</defs>
</svg>
