<svg width="28" height="28" viewBox="0 0 28 28" fill="none" xmlns="http://www.w3.org/2000/svg">
<path d="M11.3902 4.46119C10.7458 5.01038 9.94448 5.34228 9.10046 5.40963C7.13084 5.56681 5.56681 7.13084 5.40963 9.10046C5.34228 9.94448 5.01038 10.7458 4.46119 11.3902C3.1796 12.8941 3.1796 15.1059 4.46119 16.6098C5.01038 17.2543 5.34228 18.0555 5.40963 18.8995C5.56681 20.8692 7.13084 22.4332 9.10046 22.5904C9.94448 22.6577 10.7458 22.9896 11.3902 23.5388C12.8941 24.8204 15.1059 24.8204 16.6098 23.5388C17.2543 22.9896 18.0555 22.6577 18.8995 22.5904C20.8692 22.4332 22.4332 20.8692 22.5904 18.8995C22.6577 18.0555 22.9896 17.2543 23.5388 16.6098C24.8204 15.1059 24.8204 12.8941 23.5388 11.3902C22.9896 10.7458 22.6577 9.94448 22.5904 9.10046C22.4332 7.13084 20.8692 5.56681 18.8995 5.40963C18.0555 5.34228 17.2543 5.01038 16.6098 4.46119C15.1059 3.1796 12.8941 3.1796 11.3902 4.46119Z" fill="#5848BC"/>
<path d="M9.33301 14.3889L12.2048 17.5L18.6663 10.5" stroke="white" strokeWidth="1.75" strokeLinecap="round" strokeLinejoin="round"/>
</svg>
