<svg width="24" height="24" viewBox="0 0 24 24" fill="none" xmlns="http://www.w3.org/2000/svg">
<g id="bell">
<path id="Icon" d="M15.0001 18C15.0001 19.6569 13.6569 21 12.0001 21C10.3432 21 9.00006 19.6569 9.00006 18M18.0001 8.6C18.0001 7.11479 17.3679 5.69041 16.2427 4.6402C15.1175 3.59 13.5914 3 12.0001 3C10.4088 3 8.88264 3.59 7.75742 4.6402C6.6322 5.69041 6.00006 7.11479 6.00006 8.6C6.00006 11.2862 5.32386 13.1835 4.52752 14.4866C3.75622 15.7486 3.37057 16.3797 3.38491 16.5436C3.40101 16.7277 3.43735 16.7925 3.58609 16.9023C3.71847 17 4.34769 17 5.60611 17H18.394C19.6524 17 20.2817 17 20.414 16.9023C20.5628 16.7925 20.5991 16.7277 20.6152 16.5436C20.6296 16.3797 20.2439 15.7486 19.4726 14.4866C18.6763 13.1835 18.0001 11.2862 18.0001 8.6Z" stroke="#979797" strokeWidth="1.8" strokeLinecap="round" strokeLinejoin="round"/>
</g>
</svg>
