<svg width="24" height="24" viewBox="0 0 24 24" fill="none" xmlns="http://www.w3.org/2000/svg">
<g id="coins-alt">
<path id="Icon" d="M14 10.5C14 11.8807 11.7614 13 9 13C6.23858 13 4 11.8807 4 10.5M14 10.5C14 9.11929 11.7614 8 9 8C6.23858 8 4 9.11929 4 10.5M14 10.5V19C14 20.1046 11.7614 21 9 21C6.23858 21 4 20.1046 4 19V10.5M14 15C14 16.1046 11.7614 17 9 17C6.23858 17 4 16.1046 4 15M20 5.5C20 4.11929 17.7614 3 15 3C13.0209 3 11.3104 3.57493 10.5 4.40897M20 5.5C20 6.42535 18.9945 7.23328 17.5 7.66554M20 5.5V14C20 14.7403 18.9945 15.3866 17.5 15.7324M20 10C20 10.7567 18.9495 11.4152 17.3999 11.755" stroke="#515151" strokeWidth="1.8" strokeLinecap="round" strokeLinejoin="round"/>
</g>
</svg>
