<svg width="209" height="22" viewBox="0 0 209 22" fill="none" xmlns="http://www.w3.org/2000/svg">
<g id="Logo">
<path id="Vector" d="M11.2875 19.9283C9.76563 18.4065 8.24376 16.8849 6.72189 15.3633C5.42904 14.0616 4.12731 12.7692 2.83472 11.4767C1.60619 10.2941 0.918598 8.68076 0.964348 7.06738C0.890879 5.09662 2.00961 3.05239 3.80652 1.9342C4.73229 1.33837 5.85075 1.01758 7.03353 1.01758C7.60191 1.01758 8.16114 1.09078 8.70207 1.23745C10.0864 1.64086 11.1042 2.56663 11.9843 3.4558C12.7176 2.7133 13.4878 1.97995 14.5331 1.51249C15.1747 1.1917 15.9632 1.02673 16.8892 1.02673C17.2009 1.02673 17.5125 1.04502 17.815 1.07247C20.2812 1.41156 22.344 3.32744 22.8849 5.72906C23.1691 7.25093 22.9767 8.71737 22.344 9.87243C21.9589 10.6792 21.3173 11.3117 20.7489 11.8709C20.6206 11.999 18.026 14.5933 16.8615 15.7575C15.468 17.1508 14.0837 18.544 12.6902 19.9283L11.9934 20.6248L11.2967 19.9283H11.2875Z" fill="#9C89E9"/>
<path id="Vector_2" d="M23.8661 5.57321V5.5366L23.857 5.5C23.2334 2.70412 20.8224 0.476619 17.9985 0.0823588H17.9619L17.925 0.0732096C17.5585 0.0366093 17.2283 0.0182983 16.9075 0.0182983C15.8439 0.0182983 14.9273 0.210717 14.1113 0.604977C13.2679 0.980669 12.5895 1.51245 12.0025 2.05339C11.2051 1.32003 10.2425 0.623291 9.02311 0.2659H9.0048L8.9865 0.256751C8.36295 0.0917807 7.71196 0 7.06123 0C5.68602 0 4.38402 0.375703 3.28386 1.0816C1.23936 2.35589 -0.0532177 4.70233 0.00168268 7.06735C-0.0349176 8.93746 0.753603 10.7982 2.1837 12.1734C3.45799 13.4474 4.76914 14.7583 6.07087 16.06C7.58359 17.5724 9.0963 19.094 10.6182 20.6065L12.0119 22L13.4146 20.6065C14.8081 19.2224 16.1925 17.8292 17.586 16.4448C18.7502 15.2806 19.9146 14.1075 21.088 12.9433C21.2255 12.7967 21.3539 12.6774 21.4823 12.5491C22.0967 11.9441 22.7934 11.2565 23.2792 10.2758C24.0036 8.91918 24.2235 7.24174 23.9027 5.54575L23.8661 5.57321ZM21.4731 9.39578C21.0605 10.2667 20.3089 10.8899 19.6488 11.5592C17.0908 14.1075 14.5422 16.6741 11.9842 19.2224C9.16063 16.4082 6.34591 13.5849 3.52231 10.7707C2.53221 9.8175 1.89951 8.47001 1.94526 7.09508C1.88121 5.36248 2.86215 3.68507 4.31997 2.7776C5.12679 2.25497 6.07087 2.00738 7.02436 2.00738C7.50124 2.00738 7.97784 2.07168 8.43642 2.1909C9.90312 2.62176 10.9301 3.82259 11.9751 4.85843C12.892 3.96926 13.7354 2.94256 14.9273 2.41078C15.5323 2.10829 16.2107 2.00738 16.88 2.00738C17.1551 2.00738 17.4301 2.02593 17.7052 2.05339C19.7222 2.32843 21.464 3.95068 21.904 5.94002C22.1241 7.09508 22.0323 8.35079 21.464 9.39578H21.4731Z" fill="#604EB8"/>
<path id="Vector_3" d="M21.9222 5.94031C21.4731 3.95098 19.7402 2.33787 17.7234 2.05368C16.7883 1.96191 15.7982 1.98936 14.9456 2.41107C13.7537 2.94285 12.9102 3.96954 11.9934 4.85844C10.9481 3.81345 9.9214 2.61264 8.45443 2.1912C7.07923 1.82439 5.53905 1.99852 4.33797 2.77789C2.88042 3.68536 1.89948 5.36278 1.96353 7.09537C1.91778 8.47945 2.55022 9.82694 3.54058 10.771C6.36418 13.5852 9.16975 16.4085 12.0025 19.2319C14.5605 16.6836 17.109 14.117 19.667 11.5687C20.3272 10.8902 21.0788 10.2669 21.4914 9.40523C22.0598 8.36024 22.1515 7.10452 21.9314 5.94946L21.9222 5.94031Z" fill="url(#paint0_linear_3052_2469)"/>
<path id="Vector_4" d="M7.40944 11.7607C7.25362 11.7607 7.0978 11.7333 6.95113 11.6689C6.80446 11.614 6.68524 11.5223 6.56602 11.4125C6.34588 11.1832 6.21777 10.8807 6.21777 10.5691C6.21777 10.4956 6.21777 10.4224 6.24522 10.3398C6.26352 10.2666 6.28182 10.1931 6.30927 10.1199C6.33672 10.0464 6.38274 9.97324 6.41934 9.91833C6.46509 9.85402 6.51112 9.78996 6.56602 9.73479C7.00603 9.29478 7.81284 9.29478 8.2437 9.73479C8.29887 9.78996 8.34462 9.85402 8.39037 9.91833C8.42724 9.98239 8.47299 10.0556 8.49129 10.1199C8.51874 10.1931 8.5462 10.2666 8.56477 10.3398C8.58307 10.4224 8.59221 10.4956 8.59221 10.5691C8.59221 10.8898 8.46384 11.1832 8.2437 11.4125C8.13363 11.5223 7.99611 11.614 7.85859 11.6689C7.71192 11.7333 7.56526 11.7607 7.40944 11.7607Z" fill="#D9D1FF"/>
<path id="Vector_5" d="M5.03471 8.20401C4.37456 8.20401 3.84277 7.67223 3.84277 7.01235C3.84277 5.20656 5.30975 3.73071 7.12496 3.73071C7.56497 3.73071 7.99583 3.82248 8.39924 3.98745C9.00449 4.24392 9.28868 4.94066 9.03194 5.54565C8.7752 6.15063 8.07844 6.43483 7.47346 6.17809C7.36339 6.13234 7.24418 6.10488 7.12496 6.10488C6.63005 6.10488 6.22663 6.50829 6.22663 7.01235C6.22663 7.67223 5.69486 8.20401 5.03471 8.20401Z" fill="#D9D1FF"/>
<path id="Vector_6" d="M48.7932 6.96698C48.5182 6.24278 48.1422 5.56432 47.6931 4.95019C46.8494 3.80428 45.7678 2.90596 44.5024 2.27353C43.2373 1.6411 41.8072 1.32031 40.267 1.32031C38.9833 1.32031 37.7731 1.56763 36.6729 2.05366C35.5727 2.53942 34.5918 3.22703 33.7667 4.08848C32.9416 4.9502 32.2817 5.97688 31.8231 7.14109C31.3648 8.30531 31.1263 9.57932 31.1263 10.936C31.1263 12.2926 31.3648 13.5669 31.8231 14.7402C32.2817 15.9136 32.9416 16.9494 33.7667 17.82C34.5918 18.6909 35.5727 19.3785 36.6729 19.8643C37.7731 20.35 38.9833 20.5976 40.267 20.5976C41.8072 20.5976 43.2281 20.2768 44.5024 19.6353C45.7769 18.9934 46.8494 18.0859 47.6931 16.9403C48.1422 16.3259 48.5182 15.6477 48.7932 14.9235C48.9582 14.4743 48.903 13.9703 48.628 13.576C48.3621 13.1909 47.9313 12.9619 47.4546 12.9619C46.8311 12.9619 46.2902 13.3376 46.1069 13.8968C45.9053 14.5201 45.6117 15.0976 45.236 15.6111C44.6768 16.3811 43.9706 17.0043 43.118 17.4444C42.2746 17.8844 41.3211 18.1134 40.2853 18.1134C39.3684 18.1134 38.5158 17.9301 37.7456 17.5819C36.9757 17.2245 36.2972 16.7201 35.738 16.0877C35.1788 15.4461 34.7385 14.6851 34.436 13.8145C34.1335 12.9436 33.9868 11.9718 33.9868 10.9451C33.9868 9.91841 34.1426 8.95604 34.436 8.08517C34.7385 7.22344 35.1788 6.46265 35.738 5.82107C36.3064 5.17949 36.9848 4.67516 37.7456 4.33607C38.5067 3.98783 39.3593 3.81343 40.2853 3.81343C41.3211 3.81343 42.2746 4.03357 43.1089 4.46443C43.9523 4.90444 44.6676 5.50943 45.2269 6.28853C45.6117 6.81116 45.9053 7.38842 46.1069 8.00282C46.2902 8.56178 46.8311 8.93774 47.4638 8.93774C47.9404 8.93774 48.3621 8.71761 48.628 8.32362C48.903 7.92936 48.9582 7.42529 48.7838 6.97613L48.7932 6.96698Z" fill="white"/>
<path id="Vector_7" d="M53.3951 6.95749H52.451C52.0568 6.95749 51.7449 7.27828 51.7449 7.67227V19.8914C51.7449 20.2856 52.0659 20.5973 52.451 20.5973H53.5695C53.9638 20.5973 54.2754 20.2765 54.2754 19.8914V13.6306C54.2754 12.6133 54.5044 11.7699 54.9447 11.1375C55.3847 10.5048 55.9988 10.0464 56.7691 9.76225C57.3557 9.55153 58.0067 9.43231 58.6943 9.41401C59.0612 9.40486 59.3728 9.08407 59.3728 8.70811V7.5439C59.3728 7.34233 59.281 7.14075 59.1252 7.01238C58.9694 6.87486 58.7584 6.81082 58.5751 6.83827C57.7866 6.93892 57.0258 7.19565 56.3108 7.60821C55.6323 8.00247 55.0545 8.50653 54.6145 9.11151L54.0919 9.82658V7.68142C54.0919 7.28743 53.7711 6.96664 53.386 6.96664L53.3951 6.95749Z" fill="white"/>
<path id="Vector_8" d="M73.3908 11.0822C73.134 10.1565 72.7123 9.33162 72.1439 8.63487C71.5755 7.94726 70.8697 7.39745 70.0628 7.01234C69.2469 6.62723 68.3208 6.43481 67.3033 6.43481C66.0564 6.43481 64.9377 6.73731 63.9568 7.35144C62.985 7.95642 62.2059 8.7907 61.6372 9.83569C61.0689 10.8807 60.7847 12.0906 60.7847 13.4381C60.7847 14.8591 61.0597 16.1239 61.6098 17.1964C62.1507 18.2691 62.9301 19.1122 63.911 19.6989C64.892 20.2856 66.0565 20.5881 67.3673 20.5881C68.9718 20.5881 70.347 20.1481 71.4472 19.2864C72.0705 18.8006 72.5748 18.2048 72.9508 17.508C73.1432 17.1415 73.134 16.7015 72.923 16.3441C72.7123 15.9864 72.3364 15.7665 71.9146 15.7665C71.4563 15.7665 71.0255 16.0599 70.8236 16.509C70.5852 17.0497 70.2369 17.508 69.7878 17.8565C69.1276 18.3606 68.3025 18.6173 67.3216 18.6173C66.4873 18.6173 65.7628 18.4063 65.1762 17.9849C64.5895 17.5723 64.1312 16.9674 63.8193 16.1974C63.6085 15.6839 63.471 15.0881 63.4067 14.4282L63.3701 14.1074H72.4739C72.7947 14.1074 73.1066 13.9791 73.3265 13.7498C73.5466 13.5299 73.6567 13.2457 73.6567 12.9432C73.6475 12.2831 73.5557 11.6506 73.3908 11.0639V11.0822ZM63.3975 12.4666L63.4436 12.1364C63.5259 11.5957 63.6543 11.1097 63.8284 10.6974C64.1495 9.94575 64.5986 9.35907 65.1853 8.94651C65.772 8.53395 66.469 8.33238 67.239 8.33238C68.33 8.33238 69.1734 8.68977 69.8427 9.42312C70.4477 10.0924 70.7962 11.009 70.888 12.1641L70.9062 12.4758H63.3884L63.3975 12.4666Z" fill="white"/>
<path id="Vector_9" d="M85.8956 20.3405C86.4734 20.3405 86.95 19.8731 86.95 19.2955V11.5866C86.95 9.97321 86.4826 8.68978 85.5474 7.80061C84.6213 6.91144 83.301 6.45312 81.6233 6.45312C80.5692 6.45312 79.6249 6.66412 78.8089 7.08557C78.0021 7.50728 77.351 8.1031 76.8836 8.85475C76.6268 9.26731 76.4344 9.72563 76.3061 10.2114C76.2234 10.5139 76.2969 10.8349 76.4893 11.0914C76.6909 11.3573 77.0028 11.504 77.3327 11.504H77.516C78.0021 11.504 78.4238 11.1832 78.5247 10.734C78.6622 10.1473 78.9372 9.65243 79.3315 9.27647C79.8999 8.72639 80.6698 8.45161 81.6233 8.45161C82.5768 8.45161 83.2644 8.73581 83.7688 9.28562C84.2731 9.8357 84.5295 10.6056 84.5295 11.5774V12.6224L84.2088 12.5856C83.7779 12.5398 83.4019 12.5032 83.0903 12.4941C82.7143 12.4758 82.3292 12.4666 81.9258 12.4666C79.8999 12.4666 78.3503 12.8148 77.2962 13.493C76.2509 14.1715 75.7191 15.189 75.7191 16.5182C75.7191 17.7556 76.1503 18.764 77.0028 19.5065C77.8554 20.2399 78.9921 20.6156 80.3948 20.6156C81.4034 20.6156 82.2835 20.4048 83.0168 20.0014C83.5212 19.7172 83.952 19.3507 84.3188 18.9015L84.8323 18.2691V19.3047C84.8323 19.8822 85.2998 20.3497 85.8773 20.3497L85.8956 20.3405ZM84.5387 15.3082C84.5387 16.3624 84.2179 17.2238 83.5669 17.8565C82.9162 18.4981 82.0542 18.8098 80.9266 18.8098C80.0923 18.8098 79.4139 18.5899 78.9098 18.1499C78.4055 17.7099 78.1487 17.1323 78.1487 16.4173C78.1487 15.5924 78.4787 14.978 79.1388 14.584C79.9456 14.0983 81.33 13.9147 83.1821 14.034C83.5029 14.0523 83.8697 14.0889 84.2731 14.1257L84.5387 14.1532V15.2991V15.3082Z" fill="white"/>
<path id="Vector_10" d="M92.3226 18.6995C92.68 19.3413 93.1843 19.8271 93.817 20.1388C94.4586 20.4412 95.2014 20.5971 96.0356 20.5971C96.4482 20.5971 96.8422 20.5605 97.209 20.4961C97.3923 20.4595 97.5758 20.4138 97.7682 20.3497C98.0984 20.2397 98.3275 19.9189 98.3275 19.5704V19.0206C98.3275 18.7821 98.2268 18.5528 98.0433 18.397C97.86 18.2503 97.6216 18.1771 97.3557 18.2137C97.0989 18.2503 96.8699 18.2595 96.6589 18.2503C96.2647 18.232 95.5496 18.1863 94.9721 17.6731C94.5412 17.288 94.3211 16.6095 94.3211 15.6471V8.85456H97.6859C98.1167 8.85456 98.465 8.50632 98.465 8.07546V7.48878C98.465 7.05792 98.1167 6.70969 97.6859 6.70969H94.3211V3.42803C94.3211 2.99717 93.9728 2.64893 93.542 2.64893H92.5608C92.1299 2.64893 91.7817 2.99717 91.7817 3.42803V6.70969H89.5353C89.1045 6.70969 88.7562 7.05792 88.7562 7.48878V8.07546C88.7562 8.50632 89.1045 8.85456 89.5353 8.85456H91.7817V16.243C91.7817 17.2331 91.9649 18.0579 92.3226 18.7087V18.6995Z" fill="white"/>
<path id="Vector_11" d="M111.576 8.46112C110.989 7.81927 110.274 7.31521 109.467 6.96697C108.66 6.61846 107.752 6.44434 106.781 6.44434C105.809 6.44434 104.929 6.61846 104.122 6.96697C103.315 7.31521 102.6 7.81927 102.004 8.46112C101.399 9.10271 100.931 9.8635 100.601 10.7069C100.271 11.5501 100.097 12.5036 100.097 13.512C100.097 14.5201 100.262 15.4736 100.601 16.3167C100.931 17.1785 101.408 17.9301 102.004 18.572C102.609 19.2135 103.324 19.7176 104.122 20.057C104.929 20.4052 105.827 20.5885 106.79 20.5885C107.752 20.5885 108.669 20.4144 109.476 20.0661C110.292 19.7176 110.998 19.2135 111.585 18.572C112.171 17.9301 112.639 17.1693 112.978 16.3167C113.308 15.4553 113.483 14.5201 113.483 13.512C113.483 12.5036 113.317 11.5592 112.978 10.7069C112.648 9.85435 112.181 9.10271 111.585 8.46112H111.576ZM110.32 16.0969C109.962 16.8211 109.476 17.3894 108.862 17.7834C108.238 18.1685 107.514 18.3701 106.79 18.3701C106.066 18.3701 105.341 18.1777 104.727 17.7834C104.113 17.3894 103.618 16.8211 103.269 16.0969C102.912 15.3727 102.738 14.5018 102.738 13.5211C102.738 12.5402 102.921 11.6418 103.269 10.9268C103.618 10.2117 104.113 9.65279 104.727 9.26768C105.974 8.49773 107.633 8.51603 108.853 9.26768C109.467 9.65279 109.962 10.2117 110.32 10.9268C110.677 11.6418 110.851 12.5127 110.851 13.512C110.851 14.5109 110.668 15.3635 110.32 16.0877V16.0969Z" fill="white"/>
<path id="Vector_12" d="M117.58 6.95783H116.636C116.242 6.95783 115.93 7.27862 115.93 7.67261V19.8917C115.93 20.286 116.251 20.5976 116.636 20.5976H117.754C118.148 20.5976 118.469 20.2768 118.469 19.8917V13.6309C118.469 12.6136 118.689 11.7702 119.13 11.1378C119.579 10.4959 120.175 10.0468 120.963 9.76259C121.55 9.55187 122.201 9.43265 122.888 9.41435C123.255 9.4052 123.558 9.08441 123.558 8.70845V7.5445C123.558 7.34266 123.466 7.14109 123.31 7.01272C123.145 6.86605 122.962 6.81116 122.76 6.83861C121.972 6.94868 121.211 7.20514 120.496 7.60855C119.808 8.00281 119.239 8.50687 118.799 9.1027L118.277 9.81776V7.67261C118.277 7.27862 117.956 6.95783 117.562 6.95783H117.58Z" fill="white"/>
<path id="Vector_13" d="M144.836 17.8197C145.386 16.9674 145.67 15.9956 145.67 14.9414C145.67 13.5665 145.24 12.494 144.405 11.7607C143.553 11.0273 142.324 10.4864 140.738 10.1656L137.997 9.62471C137.428 9.50575 136.888 9.33162 136.383 9.12978C135.879 8.92821 135.476 8.63488 135.164 8.27722C134.852 7.91068 134.706 7.44322 134.706 6.84739C134.706 6.29731 134.852 5.79325 135.155 5.33494C135.448 4.87663 135.879 4.49151 136.438 4.21647C136.988 3.93228 137.667 3.78561 138.474 3.78561C139.28 3.78561 139.968 3.95058 140.564 4.26222C141.16 4.58328 141.637 5.04159 141.985 5.60997C142.178 5.91246 142.315 6.23325 142.425 6.59064C142.599 7.16817 143.14 7.56243 143.764 7.56243C144.213 7.56243 144.635 7.3423 144.901 6.97576C145.157 6.6181 145.221 6.16893 145.075 5.76578C144.901 5.27975 144.671 4.8306 144.387 4.41831C143.763 3.52914 142.929 2.83239 141.921 2.33748C140.903 1.8423 139.739 1.59497 138.455 1.59497C137.172 1.59497 136.026 1.83314 135.045 2.30061C134.064 2.76807 133.285 3.41907 132.725 4.24392C132.166 5.05989 131.891 6.00396 131.891 7.0398C131.891 7.80975 132.029 8.48821 132.294 9.05659C132.551 9.6247 132.927 10.1107 133.395 10.4956C133.862 10.8807 134.394 11.1923 134.99 11.4308C135.586 11.6689 136.218 11.8614 136.86 11.9989L139.546 12.5124C140.619 12.7414 141.426 13.0716 141.948 13.5116C142.48 13.9516 142.737 14.5566 142.737 15.354C142.737 15.9956 142.554 16.5548 142.196 17.004C141.838 17.4531 141.343 17.8105 140.72 18.049C140.106 18.2874 139.381 18.4155 138.584 18.4155C137.163 18.4155 136.063 18.0581 135.311 17.3431C134.779 16.8481 134.422 16.2249 134.229 15.5007C134.082 14.9323 133.541 14.538 132.918 14.538C132.469 14.538 132.065 14.749 131.8 15.1155C131.543 15.4824 131.478 15.959 131.625 16.3898C131.79 16.8664 132.019 17.3156 132.276 17.7099C132.872 18.6265 133.715 19.3507 134.779 19.8548C135.843 20.3591 137.144 20.6155 138.63 20.6155C140.115 20.6155 141.398 20.3682 142.443 19.8731C143.489 19.3781 144.295 18.6905 144.845 17.8382L144.836 17.8197Z" fill="white"/>
<path id="Vector_14" d="M170.241 6.7008H168.736C168.454 6.7008 168.222 6.92983 168.222 7.21402V14.7308C168.222 15.4367 168.077 16.0783 167.792 16.6189C167.499 17.169 167.114 17.5999 166.629 17.9024C166.142 18.2049 165.593 18.3607 165.006 18.3607C164.126 18.3607 163.429 18.0948 162.889 17.5541C162.348 17.0315 162.073 16.1515 162.073 14.9598V7.20487C162.073 6.92068 161.842 6.69165 161.559 6.69165H160.055C159.771 6.69165 159.542 6.92068 159.542 7.20487V15.4733C159.542 16.6375 159.734 17.609 160.119 18.3698C160.504 19.1306 161.053 19.6899 161.761 20.0473C162.466 20.4049 163.281 20.5882 164.191 20.5882C165.098 20.5882 165.959 20.3592 166.71 19.91C166.877 19.8091 167.141 19.6441 167.426 19.3874C167.601 19.2407 167.757 19.0757 167.913 18.9108L168.416 18.3424V19.7999C168.416 19.7999 168.416 20.0567 168.58 20.2125C168.656 20.2766 168.793 20.3223 168.949 20.3315H170.26C170.542 20.3315 170.774 20.1024 170.774 19.8182V7.20487C170.774 6.92068 170.542 6.69165 170.26 6.69165L170.241 6.7008Z" fill="white"/>
<path id="Vector_15" d="M185.726 1.84229H184.386C184.057 1.84229 183.791 2.10817 183.791 2.43811V9.03828L183.277 8.37813C182.873 7.86492 182.397 7.4432 181.856 7.12241C181.094 6.67325 180.26 6.44396 179.353 6.44396C178.142 6.44396 177.071 6.74646 176.164 7.34229C175.265 7.93812 174.549 8.78154 174.054 9.84484C173.559 10.9173 173.312 12.1547 173.312 13.5116C173.312 14.8682 173.559 16.0873 174.054 17.1598C174.549 18.2322 175.255 19.0756 176.164 19.6806C177.06 20.2856 178.134 20.5972 179.353 20.5972C180.306 20.5972 181.197 20.3591 181.985 19.8913C182.187 19.7632 182.378 19.6349 182.553 19.4974C182.682 19.3964 182.763 19.3141 182.838 19.2589C183.048 19.0665 183.277 18.8372 183.471 18.6448L183.966 18.159V19.7447C183.966 19.7447 183.966 20.1206 184.259 20.2856C184.405 20.3682 184.534 20.3499 184.534 20.3499H185.734C186.065 20.3499 186.332 20.0749 186.332 19.7541V2.44726C186.332 2.11732 186.065 1.85143 185.734 1.85143L185.726 1.84229ZM183.277 16.0782C182.938 16.8024 182.47 17.3708 181.894 17.7647C181.315 18.159 180.629 18.3514 179.867 18.3514C178.702 18.3514 177.787 17.9389 177.044 17.0957C176.32 16.2706 175.944 15.0698 175.944 13.5299C175.944 11.9897 176.31 10.7706 177.044 9.93661C177.776 9.09319 178.702 8.68063 179.867 8.68063C180.599 8.68063 181.251 8.8639 181.856 9.23986C182.443 9.61555 182.919 10.1656 183.269 10.8715C183.616 11.5866 183.791 12.4574 183.791 13.4747C183.791 14.4923 183.616 15.354 183.277 16.0782Z" fill="white"/>
<path id="Vector_16" d="M192.408 2.12688C192.061 1.81524 191.611 1.65942 191.078 1.65942C190.548 1.65942 190.061 1.81524 189.722 2.12688C189.375 2.43853 189.2 2.85108 189.2 3.35514C189.2 3.83202 189.364 4.22602 189.722 4.55596C190.069 4.88617 190.529 5.05113 191.078 5.05113C191.63 5.05113 192.069 4.88617 192.408 4.55596C192.758 4.22602 192.93 3.83202 192.93 3.35514C192.93 2.85108 192.758 2.43853 192.408 2.12688Z" fill="white"/>
<path id="Vector_17" d="M191.337 6.95776C190.64 6.95776 190.061 7.52588 190.061 8.23178V19.3327C190.061 20.0292 190.629 20.6067 191.337 20.6067C192.042 20.6067 192.61 20.0383 192.61 19.3327V8.23178C192.61 7.53503 192.042 6.95776 191.337 6.95776Z" fill="white"/>
<path id="Vector_18" d="M208.278 10.6609C207.95 9.82691 207.49 9.09356 206.914 8.46112C206.327 7.81927 205.611 7.31521 204.804 6.96697C203.997 6.61846 203.09 6.44434 202.118 6.44434C201.147 6.44434 200.267 6.61846 199.459 6.96697C198.652 7.31521 197.936 7.81927 197.341 8.46112C196.736 9.10271 196.267 9.8635 195.939 10.7069C195.608 11.5501 195.433 12.5036 195.433 13.512C195.433 14.5201 195.6 15.4736 195.939 16.3167C196.267 17.1785 196.746 17.9301 197.341 18.572C197.947 19.2135 198.663 19.7176 199.459 20.057C200.267 20.4052 201.165 20.5885 202.126 20.5885C203.09 20.5885 204.007 20.4144 204.812 20.0661C205.63 19.7176 206.335 19.2135 206.922 18.572C207.509 17.9301 207.977 17.1693 208.316 16.3167C208.644 15.4553 208.819 14.5201 208.819 13.512C208.819 12.5036 208.655 11.5592 208.316 10.7069L208.297 10.6518L208.278 10.6609ZM205.646 16.0969C205.291 16.8211 204.804 17.3894 204.19 17.7834C203.566 18.1777 202.842 18.3701 202.118 18.3701C201.394 18.3701 200.67 18.1777 200.054 17.7834C199.44 17.3894 198.945 16.8211 198.598 16.0969C198.24 15.3727 198.065 14.5018 198.065 13.5211C198.065 12.5402 198.248 11.6418 198.598 10.9268C198.945 10.2117 199.44 9.65279 200.054 9.26768C201.303 8.49773 202.96 8.51603 204.179 9.26768C204.796 9.65279 205.291 10.2117 205.646 10.9268C206.004 11.6418 206.179 12.5127 206.179 13.512C206.179 14.5109 205.996 15.3635 205.646 16.0877V16.0969Z" fill="white"/>
<path id="Vector_19" d="M150.777 18.6999C151.135 19.3417 151.639 19.8275 152.271 20.1391C152.913 20.4416 153.656 20.5974 154.49 20.5974C154.903 20.5974 155.297 20.5608 155.663 20.4965C155.847 20.4599 156.039 20.4142 156.223 20.3501C156.562 20.2309 156.782 19.9192 156.782 19.5616V19.0118C156.782 18.7733 156.681 18.544 156.498 18.3882C156.314 18.2324 156.058 18.1592 155.819 18.2049C155.554 18.2415 155.324 18.2599 155.104 18.2416C154.71 18.2233 153.995 18.1775 153.417 17.664C152.986 17.2792 152.766 16.6007 152.766 15.6384V8.84577H156.131C156.562 8.84577 156.91 8.49753 156.91 8.06667V7.47999C156.91 7.04913 156.562 6.70088 156.131 6.70088H152.766V3.41924C152.766 2.98838 152.418 2.64014 151.987 2.64014H151.006C150.575 2.64014 150.227 2.98838 150.227 3.41924V6.70088H147.981C147.55 6.70088 147.201 7.04913 147.201 7.47999V8.06667C147.201 8.49753 147.55 8.84577 147.981 8.84577H150.227V16.2342C150.227 17.2243 150.41 18.0491 150.768 18.6999H150.777Z" fill="white"/>
</g>
<defs>
<linearGradient id="paint0_linear_3052_2469" x1="5.91501" y1="0.999537" x2="18.0607" y2="13.1562" gradientUnits="userSpaceOnUse">
<stop offset="0.41" stop-color="#7D6BD6" stop-opacity="0"/>
<stop offset="0.87" stop-color="#7D6BD6" stop-opacity="0.78"/>
<stop offset="1" stop-color="#7D6BD6"/>
</linearGradient>
</defs>
</svg>
