<svg width="16" height="16" viewBox="0 0 16 16" fill="none" xmlns="http://www.w3.org/2000/svg">
<g id="dots-vertical">
<path id="Icon" d="M7.99992 8.00016H8.00659M7.99992 4.00016H8.00659M7.99992 12.0002H8.00659M8.66659 8.00016C8.66659 8.36835 8.36811 8.66683 7.99992 8.66683C7.63173 8.66683 7.33325 8.36835 7.33325 8.00016C7.33325 7.63197 7.63173 7.3335 7.99992 7.3335C8.36811 7.3335 8.66659 7.63197 8.66659 8.00016ZM8.66659 12.0002C8.66659 12.3684 8.36811 12.6668 7.99992 12.6668C7.63173 12.6668 7.33325 12.3684 7.33325 12.0002C7.33325 11.632 7.63173 11.3335 7.99992 11.3335C8.36811 11.3335 8.66659 11.632 8.66659 12.0002ZM8.66659 4.00016C8.66659 4.36835 8.36811 4.66683 7.99992 4.66683C7.63173 4.66683 7.33325 4.36835 7.33325 4.00016C7.33325 3.63197 7.63173 3.3335 7.99992 3.3335C8.36811 3.3335 8.66659 3.63197 8.66659 4.00016Z" stroke="#979797" strokeWidth="1.2" strokeLinecap="round" strokeLinejoin="round"/>
</g>
</svg>
