<svg width="21" height="20" viewBox="0 0 21 20" fill="none" xmlns="http://www.w3.org/2000/svg">
<g id="image-square">
<path id="Icon" d="M11.8725 13.6458L10.5798 12.4685C9.9458 11.8911 9.62881 11.6024 9.26957 11.4931C8.95318 11.3968 8.61529 11.3968 8.2989 11.4931C7.93965 11.6024 7.62266 11.8911 6.98869 12.4685L3.9854 14.9999M11.8725 13.6458L12.1357 13.406C12.7697 12.8286 13.0867 12.5399 13.446 12.4306C13.7623 12.3343 14.1002 12.3343 14.4166 12.4306C14.7759 12.5399 15.0929 12.8286 15.7268 13.406L17.0844 14.7001M11.8725 13.6458L14.81 16.6324M7.83325 16.6666H13.1666C14.5667 16.6666 15.2668 16.6666 15.8016 16.3941C16.272 16.1544 16.6544 15.772 16.8941 15.3016C17.1666 14.7668 17.1666 14.0667 17.1666 12.6666V7.33325C17.1666 5.93312 17.1666 5.23306 16.8941 4.69828C16.6544 4.22787 16.272 3.84542 15.8016 3.60574C15.2668 3.33325 14.5667 3.33325 13.1666 3.33325H7.83325C6.43312 3.33325 5.73306 3.33325 5.19828 3.60574C4.72787 3.84542 4.34542 4.22787 4.10574 4.69828C3.83325 5.23306 3.83325 5.93312 3.83325 7.33325V12.6666C3.83325 14.0667 3.83325 14.7668 4.10574 15.3016C4.34542 15.772 4.72787 16.1544 5.19828 16.3941C5.73306 16.6666 6.43312 16.6666 7.83325 16.6666ZM14.6666 7.49992C14.6666 8.42039 13.9204 9.16659 12.9999 9.16659C12.0794 9.16659 11.3333 8.42039 11.3333 7.49992C11.3333 6.57944 12.0794 5.83325 12.9999 5.83325C13.9204 5.83325 14.6666 6.57944 14.6666 7.49992Z" stroke="#8C7DD0" strokeWidth="1.5" strokeLinecap="round" strokeLinejoin="round"/>
</g>
</svg>
