<svg width="21" height="20" viewBox="0 0 21 20" fill="none" xmlns="http://www.w3.org/2000/svg">
<g id="image-square">
<path id="Icon" d="M11.8725 13.646L10.5798 12.4687C9.9458 11.8914 9.62881 11.6027 9.26957 11.4933C8.95318 11.397 8.61529 11.397 8.2989 11.4933C7.93965 11.6027 7.62266 11.8914 6.98869 12.4687L3.9854 15.0002M11.8725 13.646L12.1357 13.4062C12.7697 12.8289 13.0867 12.5402 13.446 12.4308C13.7623 12.3345 14.1002 12.3345 14.4166 12.4308C14.7759 12.5402 15.0929 12.8289 15.7268 13.4062L17.0844 14.7003M11.8725 13.646L14.81 16.6327M7.83325 16.6668H13.1666C14.5667 16.6668 15.2668 16.6668 15.8016 16.3943C16.272 16.1547 16.6544 15.7722 16.8941 15.3018C17.1666 14.767 17.1666 14.067 17.1666 12.6668V7.3335C17.1666 5.93336 17.1666 5.2333 16.8941 4.69852C16.6544 4.22811 16.272 3.84566 15.8016 3.60598C15.2668 3.3335 14.5667 3.3335 13.1666 3.3335H7.83325C6.43312 3.3335 5.73306 3.3335 5.19828 3.60598C4.72787 3.84566 4.34542 4.22811 4.10574 4.69852C3.83325 5.2333 3.83325 5.93336 3.83325 7.3335V12.6668C3.83325 14.067 3.83325 14.767 4.10574 15.3018C4.34542 15.7722 4.72787 16.1547 5.19828 16.3943C5.73306 16.6668 6.43312 16.6668 7.83325 16.6668ZM14.6666 7.50016C14.6666 8.42064 13.9204 9.16683 12.9999 9.16683C12.0794 9.16683 11.3333 8.42064 11.3333 7.50016C11.3333 6.57969 12.0794 5.8335 12.9999 5.8335C13.9204 5.8335 14.6666 6.57969 14.6666 7.50016Z" stroke="#515151" strokeWidth="1.5" strokeLinecap="round" strokeLinejoin="round"/>
</g>
</svg>
