<svg width="24" height="24" viewBox="0 0 24 24" fill="none" xmlns="http://www.w3.org/2000/svg">
<g id="star">
<path id="Icon" d="M11.2691 3.63924C11.5006 3.11986 11.6164 2.86017 11.7776 2.78019C11.9176 2.71072 12.082 2.71072 12.222 2.78019C12.3832 2.86017 12.499 3.11986 12.7305 3.63924L14.5745 7.77617C14.643 7.92971 14.6772 8.00648 14.7302 8.06527C14.777 8.11729 14.8343 8.15889 14.8982 8.18738C14.9705 8.21958 15.0541 8.2284 15.2213 8.24604L19.7256 8.72145C20.2911 8.78113 20.5738 8.81097 20.6997 8.93956C20.809 9.05125 20.8598 9.20765 20.837 9.36228C20.8108 9.54029 20.5996 9.73063 20.1772 10.1113L16.8125 13.1435C16.6877 13.256 16.6252 13.3123 16.5857 13.3808C16.5507 13.4415 16.5288 13.5088 16.5215 13.5784C16.5132 13.6571 16.5306 13.7393 16.5655 13.9037L17.5053 18.3345C17.6233 18.8908 17.6823 19.1689 17.5989 19.3283C17.5264 19.4668 17.3934 19.5635 17.2393 19.5896C17.0619 19.6196 16.8156 19.4776 16.323 19.1935L12.3995 16.9305C12.2539 16.8465 12.1811 16.8045 12.1037 16.7881C12.0352 16.7736 11.9644 16.7736 11.8959 16.7881C11.8185 16.8045 11.7457 16.8465 11.6001 16.9305L7.67662 19.1935C7.18404 19.4776 6.93775 19.6196 6.76034 19.5896C6.60623 19.5635 6.47319 19.4668 6.40075 19.3283C6.31736 19.1689 6.37635 18.8908 6.49434 18.3345L7.4341 13.9037C7.46898 13.7393 7.48642 13.6571 7.47814 13.5784C7.47081 13.5088 7.44894 13.4415 7.41394 13.3808C7.37439 13.3123 7.31195 13.256 7.18708 13.1435L3.82246 10.1113C3.40005 9.73063 3.18884 9.54029 3.16258 9.36228C3.13978 9.20765 3.19059 9.05125 3.29993 8.93956C3.42581 8.81097 3.70856 8.78113 4.27406 8.72145L8.77835 8.24604C8.94553 8.2284 9.02911 8.21958 9.10139 8.18738C9.16534 8.15889 9.2226 8.11729 9.26946 8.06527C9.32241 8.00648 9.35663 7.92971 9.42508 7.77617L11.2691 3.63924Z" stroke="#515151" strokeWidth="1.8" strokeLinecap="round" strokeLinejoin="round"/>
</g>
</svg>
