<svg width="24" height="24" viewBox="0 0 24 24" fill="none" xmlns="http://www.w3.org/2000/svg">
<g id="users-alt">
<path id="Vector" d="M2 20C2 16.5636 4.91015 13.7778 8.5 13.7778C12.0899 13.7778 15 16.5636 15 20M22.9999 20.0001C22.9999 17.4227 20.9601 15.0001 18.4999 15.0001C18.0581 15.0001 17.6312 15.0675 17.2283 15.193M12.2143 7.55556C12.2143 9.51923 10.5513 11.1111 8.5 11.1111C6.44866 11.1111 4.78571 9.51923 4.78571 7.55556C4.78571 5.59188 6.44866 4 8.5 4C10.5513 4 12.2143 5.59188 12.2143 7.55556ZM21 9.80005C21 11.1808 19.8807 12.3 18.5 12.3C17.1193 12.3 16 11.1808 16 9.80005C16 8.41934 17.1193 7.30005 18.5 7.30005C19.8807 7.30005 21 8.41934 21 9.80005Z" stroke="#515151" strokeWidth="1.8" strokeLinecap="round" strokeLinejoin="round"/>
</g>
</svg>
