<svg xmlns="http://www.w3.org/2000/svg" width="123" height="32" fill="none"><path fill="#9C89E9" d="M14.029 24.663 8.37 19.005c-1.61-1.61-3.212-3.221-4.822-4.822-1.523-1.464-2.377-3.467-2.309-5.471-.088-2.446 1.287-4.97 3.517-6.355 1.149-.737 2.534-1.14 4.007-1.14.697 0 1.395.09 2.072.276 1.72.5 2.976 1.65 4.067 2.75.903-.913 1.856-1.837 3.153-2.406.795-.403 1.767-.61 2.917-.61.383 0 .766.02 1.149.06 3.055.422 5.618 2.789 6.286 5.765.354 1.886.118 3.703-.668 5.137-.471.992-1.277 1.778-1.974 2.475l-4.823 4.823a1299.614 1299.614 0 0 1-5.176 5.166l-.864.864-.865-.864-.01.01Z"/><path fill="#000" d="M29.615 6.866v-.04l-.02-.039C28.82 3.32 25.835.56 22.329.079h-.05l-.049-.01A14.66 14.66 0 0 0 20.972 0c-1.326 0-2.455.236-3.467.737-1.041.471-1.876 1.12-2.613 1.797C13.9 1.63 12.712.766 11.2.324h-.03l-.029-.01A9.311 9.311 0 0 0 8.754 0c-1.7 0-3.32.462-4.686 1.346C1.534 2.917-.067 5.824.002 8.76c-.049 2.318.933 4.626 2.711 6.326l4.813 4.812c1.876 1.876 3.752 3.762 5.638 5.638l1.728 1.729 1.729-1.729a1283.89 1283.89 0 0 0 5.166-5.166c1.444-1.444 2.888-2.898 4.332-4.341l.481-.482c.766-.756 1.63-1.6 2.23-2.819.893-1.68 1.169-3.752.776-5.854l.01-.01ZM26.66 11.61c-.51 1.08-1.444 1.846-2.26 2.681-3.172 3.163-6.324 6.345-9.497 9.498-3.496-3.487-6.983-6.994-10.48-10.48C3.194 12.13 2.418 10.46 2.467 8.75c-.078-2.14 1.14-4.233 2.937-5.353.992-.638 2.17-.952 3.36-.952.589 0 1.178.078 1.748.235 1.817.53 3.094 2.014 4.38 3.31 1.13-1.1 2.18-2.377 3.654-3.035.756-.373 1.581-.5 2.416-.5.344 0 .688.02 1.022.049 2.504.343 4.655 2.357 5.205 4.812.275 1.434.158 2.986-.55 4.283l.02.01Z"/><path fill="url(#a)" d="M27.2 7.327c-.55-2.465-2.702-4.469-5.206-4.813-1.16-.108-2.377-.088-3.448.442-1.483.659-2.524 1.926-3.654 3.035-1.296-1.296-2.563-2.78-4.38-3.31-1.7-.461-3.615-.245-5.108.717C3.597 4.518 2.39 6.61 2.467 8.751c-.049 1.71.727 3.389 1.955 4.558 3.497 3.487 6.984 6.993 10.48 10.48 3.173-3.163 6.325-6.335 9.498-9.498.815-.835 1.748-1.61 2.259-2.681.707-1.297.815-2.849.55-4.283h-.01Z"/><path fill="#D9D1FF" d="M9.215 14.546c-.196 0-.383-.039-.57-.117a1.368 1.368 0 0 1-.47-.315 1.513 1.513 0 0 1-.433-1.05c0-.089 0-.187.03-.285.02-.089.049-.187.078-.275.04-.089.089-.177.138-.256.059-.078.118-.157.186-.226.54-.54 1.542-.54 2.083 0 .068.069.127.148.186.226.05.079.098.167.128.256.04.088.069.186.088.275a1.473 1.473 0 0 1-.402 1.335 1.407 1.407 0 0 1-.482.315 1.361 1.361 0 0 1-.56.117ZM6.268 10.136a1.471 1.471 0 0 1-1.473-1.473A4.074 4.074 0 0 1 8.86 4.597c.55 0 1.08.108 1.582.324.746.314 1.1 1.178.776 1.935a1.468 1.468 0 0 1-1.935.776 1.12 1.12 0 0 0-1.552 1.031c0 .815-.658 1.473-1.474 1.473h.01Z"/><path fill="#000" d="M53.2 23.612c0 .884-.718 1.601-1.602 1.601H39.655a1.601 1.601 0 0 1-1.601-1.6V2.916c0-.884.717-1.6 1.6-1.6h11.709a1.601 1.601 0 0 1 0 3.201h-9.645v6.787h8.643a1.601 1.601 0 0 1 0 3.202h-8.643v7.514h9.88c.884 0 1.601.717 1.601 1.601v-.01ZM64.533 31.99c-1.532 0-2.868-.265-4.027-.786-1.159-.52-2.053-1.267-2.71-2.249a6.294 6.294 0 0 1-.708-1.434c-.334-.972.432-1.994 1.463-1.994h.197c.687 0 1.237.472 1.444 1.13.216.687.58 1.247 1.09 1.69.766.657 1.837.981 3.212.981 1.532 0 2.681-.393 3.457-1.178.776-.786 1.169-1.945 1.169-3.477V21.48c-.51 1.04-1.238 1.866-2.18 2.465-.944.6-2.014.894-3.212.894-1.464 0-2.76-.374-3.89-1.13-1.13-.756-2.013-1.797-2.662-3.123-.648-1.336-.962-2.849-.962-4.558 0-1.709.314-3.29.933-4.606.619-1.316 1.493-2.348 2.613-3.074 1.12-.727 2.406-1.1 3.88-1.1 1.266 0 2.386.294 3.358.893.973.6 1.768 1.454 2.358 2.564V9.144a1.56 1.56 0 0 1 1.561-1.562 1.56 1.56 0 0 1 1.562 1.562v15.47c0 2.328-.697 4.145-2.092 5.441C68.992 31.352 67.037 32 64.533 32v-.01Zm-4.92-15.97c0 1.817.422 3.25 1.266 4.311.845 1.051 1.994 1.582 3.458 1.582.952 0 1.787-.236 2.514-.717.717-.472 1.277-1.15 1.68-2.034.402-.873.599-1.885.599-3.044 0-1.817-.432-3.271-1.297-4.361-.864-1.09-2.033-1.63-3.496-1.63-1.464 0-2.593.53-3.448 1.58-.854 1.052-1.277 2.486-1.277 4.313ZM82.27 3.487a2.11 2.11 0 0 1-.678 1.581c-.451.432-1.04.648-1.748.648-.707 0-1.326-.216-1.778-.648a2.11 2.11 0 0 1-.677-1.581c0-.668.225-1.198.677-1.61.452-.413 1.051-.62 1.778-.62.727 0 1.297.207 1.748.62.452.412.678.952.678 1.61Zm-2.416 21.726c-.923 0-1.68-.756-1.68-1.68V9.263c0-.924.757-1.68 1.68-1.68.923 0 1.68.756 1.68 1.68v14.27c0 .924-.757 1.68-1.68 1.68ZM90.61 16.196v8.054c0 .53-.432.963-.962.963h-1.444a.964.964 0 0 1-.963-.963V8.535c0-.53.432-.962.963-.962h1.208c.53 0 .962.432.962.962v2.77c.62-1.218 1.542-2.18 2.78-2.897a7.674 7.674 0 0 1 2.927-.993c.57-.078 1.08.384 1.08.963v1.503c0 .51-.402.933-.913.953-.904.029-1.719.176-2.465.441-.992.354-1.768.934-2.328 1.749-.57.805-.845 1.866-.845 3.172ZM102.161 25.213a1.7 1.7 0 0 1-1.699-1.7V3.025a1.7 1.7 0 0 1 3.398 0v20.488a1.7 1.7 0 0 1-1.699 1.7ZM122.325 19.948c0 1.729-.648 3.094-1.925 4.096-1.287 1.002-3.104 1.493-5.461 1.493s-4.135-.54-5.471-1.63a6.064 6.064 0 0 1-1.778-2.358c-.412-.992.285-2.102 1.366-2.102h.226c.618 0 1.119.442 1.306 1.032a3.18 3.18 0 0 0 1.139 1.581c.835.629 1.926.953 3.281.953 1.179 0 2.121-.207 2.848-.629.717-.422 1.081-1.04 1.081-1.866 0-.737-.236-1.287-.717-1.66-.482-.373-1.267-.668-2.377-.864l-2.858-.53c-1.621-.315-2.868-.885-3.762-1.71-.884-.835-1.336-1.915-1.336-3.241 0-1.041.285-1.954.845-2.74.569-.786 1.355-1.405 2.377-1.847 1.021-.442 2.21-.668 3.555-.668 1.415 0 2.662.236 3.723.717 1.06.482 1.915 1.15 2.563 2.034.265.363.482.746.648 1.158.393.953-.383 1.984-1.404 1.984h-.118c-.638 0-1.257-.363-1.473-.972a3.299 3.299 0 0 0-1.051-1.493c-.737-.599-1.69-.903-2.859-.903-1.06 0-1.924.216-2.583.648-.658.432-.982 1.031-.982 1.778 0 .707.236 1.247.717 1.61.472.364 1.248.658 2.308.884l2.996.57c1.748.314 3.045.855 3.89 1.63.844.776 1.267 1.798 1.267 3.065l.019-.02Z"/><defs><linearGradient id="a" x1="7.369" x2="22.426" y1="1.208" y2="16.265" gradientUnits="userSpaceOnUse"><stop offset=".41" stop-color="#7D6BD6" stop-opacity="0"/><stop offset=".87" stop-color="#7D6BD6" stop-opacity=".78"/><stop offset="1" stop-color="#7D6BD6"/></linearGradient></defs></svg>
