<svg width="34" height="36" viewBox="0 0 34 36" fill="none" xmlns="http://www.w3.org/2000/svg">
<path d="M15 30C15 31.6569 13.6569 33 12 33C10.3431 33 9 31.6569 9 30M18 20.6C18 19.1148 17.3679 17.6904 16.2426 16.6402C15.1174 15.59 13.5913 15 12 15C10.4087 15 8.88258 15.59 7.75736 16.6402C6.63214 17.6904 6 19.1148 6 20.6C6 23.2862 5.3238 25.1835 4.52745 26.4866C3.75616 27.7486 3.37051 28.3797 3.38485 28.5436C3.40095 28.7277 3.43729 28.7925 3.58603 28.9023C3.71841 29 4.34762 29 5.60605 29H18.3939C19.6524 29 20.2816 29 20.414 28.9023C20.5627 28.7925 20.599 28.7277 20.6152 28.5436C20.6295 28.3797 20.2438 27.7486 19.4725 26.4866C18.6762 25.1835 18 23.2862 18 20.6Z" stroke="#979797" strokeWidth="1.8" strokeLinecap="round" strokeLinejoin="round"/>
<rect x="11" y="1" width="22" height="22" rx="11" fill="#FF5336"/>
<path d="M24.5781 10.3906C24.5781 10.7773 24.5 11.1133 24.3438 11.3984C24.1875 11.6836 23.9727 11.918 23.6992 12.1016C23.4297 12.2812 23.1172 12.4102 22.7617 12.4883V12.5293C23.4453 12.6152 23.9609 12.8301 24.3086 13.1738C24.6602 13.5176 24.8359 13.9727 24.8359 14.5391C24.8359 15.0352 24.7168 15.4785 24.4785 15.8691C24.2402 16.2559 23.875 16.5605 23.3828 16.7832C22.8906 17.0059 22.2578 17.1172 21.4844 17.1172C21.0195 17.1172 20.5879 17.0801 20.1895 17.0059C19.7949 16.9316 19.4199 16.8125 19.0645 16.6484V15.4238C19.4277 15.6035 19.8145 15.7422 20.2246 15.8398C20.6348 15.9375 21.0234 15.9863 21.3906 15.9863C22.1055 15.9863 22.6152 15.8535 22.9199 15.5879C23.2246 15.3184 23.377 14.9473 23.377 14.4746C23.377 14.1699 23.2969 13.9199 23.1367 13.7246C22.9805 13.5293 22.7363 13.3828 22.4043 13.2852C22.0762 13.1875 21.6523 13.1387 21.1328 13.1387H20.377V12.0312H21.1387C21.6348 12.0312 22.0332 11.9727 22.334 11.8555C22.6348 11.7344 22.8516 11.5684 22.9844 11.3574C23.1211 11.1465 23.1895 10.9004 23.1895 10.6191C23.1895 10.252 23.0703 9.9668 22.832 9.76367C22.5938 9.55664 22.2402 9.45312 21.7715 9.45312C21.4824 9.45312 21.2188 9.48633 20.9805 9.55273C20.7461 9.61914 20.5293 9.70312 20.3301 9.80469C20.1309 9.90625 19.9414 10.0156 19.7617 10.1328L19.0996 9.17773C19.4238 8.93555 19.8105 8.73047 20.2598 8.5625C20.709 8.39453 21.2324 8.31055 21.8301 8.31055C22.709 8.31055 23.3867 8.5 23.8633 8.87891C24.3398 9.25391 24.5781 9.75781 24.5781 10.3906Z" fill="white"/>
<rect x="11" y="1" width="22" height="22" rx="11" stroke="#1A1A1A" strokeWidth="2" strokeLinecap="round" strokeLinejoin="round"/>
</svg>
