<svg width="85" height="22" viewBox="0 0 85 22" fill="none" xmlns="http://www.w3.org/2000/svg">
<path d="M10.284 18.0808C8.9015 16.6984 7.51896 15.3158 6.13643 13.9332C4.95552 12.7523 3.78179 11.5714 2.60088 10.3978C1.48477 9.32486 0.858305 7.85582 0.90871 6.38694C0.843904 4.59398 1.852 2.7434 3.48656 1.72811C4.32904 1.18805 5.34434 0.892822 6.42446 0.892822C6.9357 0.892822 7.44696 0.957628 7.9438 1.09445C9.20392 1.46168 10.1256 2.30416 10.9249 3.11063C11.5874 2.44098 12.2858 1.76412 13.2363 1.34647C13.8196 1.05125 14.5324 0.90003 15.3749 0.90003C15.6558 0.90003 15.9366 0.914429 16.2173 0.943228C18.4568 1.25286 20.3362 2.98823 20.8259 5.17003C21.0851 6.55256 20.9123 7.88474 20.3362 8.93602C19.9907 9.66327 19.4001 10.2393 18.889 10.7506C18.7737 10.8658 16.4118 13.2276 15.3533 14.2862C14.0932 15.5534 12.8259 16.8136 11.5586 18.0737L10.9249 18.7074L10.2912 18.0737L10.284 18.0808Z" fill="#9C89E9"/>
<path d="M21.7117 5.03327V5.00447L21.6973 4.97567C21.1284 2.43383 18.9394 0.410445 16.3688 0.0575989H16.3328L16.2967 0.0504067C15.9656 0.0216075 15.6631 0 15.3751 0C14.403 0 13.5749 0.172811 12.8332 0.540057C12.0699 0.885679 11.4579 1.36093 10.9178 1.85777C10.1906 1.19531 9.31928 0.561648 8.21036 0.237617H8.18877L8.16716 0.230426C7.59831 0.079206 7.00786 0 6.41739 0C5.17167 0 3.98355 0.33843 2.98265 0.986492C1.12487 2.1386 -0.0488435 4.27 0.00156136 6.42302C-0.0344421 8.12238 0.685629 9.8146 1.98895 11.0603C3.14827 12.2195 4.3364 13.4077 5.51731 14.5886C6.89264 15.9639 8.26798 17.3465 9.6505 18.7218L10.9178 19.9892L12.1852 18.7218C13.4525 17.4617 14.7126 16.2015 15.9727 14.9343C17.0312 13.8757 18.0898 12.8101 19.1482 11.7515C19.2778 11.6219 19.393 11.5067 19.5012 11.3987C20.0628 10.8442 20.6964 10.2249 21.1357 9.33204C21.7909 8.10072 21.9926 6.58143 21.7046 5.04048L21.7117 5.03327ZM19.5443 8.51121C19.1699 9.30327 18.4857 9.86487 17.8881 10.4771C15.5623 12.7957 13.2509 15.1287 10.925 17.4401C8.36158 14.8839 5.80534 12.3131 3.24188 9.75691C2.3418 8.89278 1.77294 7.66873 1.80895 6.41581C1.75133 4.84606 2.64422 3.31232 3.96196 2.49143C4.68923 2.02339 5.5533 1.79297 6.4246 1.79297C6.85664 1.79297 7.28867 1.85058 7.70631 1.96579C9.03845 2.35463 9.97454 3.44193 10.9178 4.39242C11.7459 3.58595 12.5164 2.64984 13.5965 2.1674C14.151 1.89378 14.7558 1.80017 15.3679 1.80017C15.6199 1.80017 15.872 1.81457 16.1167 1.83618C17.9529 2.0882 19.5299 3.56434 19.9331 5.36451C20.1347 6.41581 20.0484 7.5535 19.5299 8.50394L19.5443 8.51121Z" fill="#604EB8"/>
<path d="M19.9405 5.3713C19.5373 3.56394 17.9603 2.09501 16.124 1.84297C15.2744 1.76377 14.3815 1.77817 13.5966 2.167C12.5093 2.64945 11.746 3.57834 10.9179 4.39202C9.96745 3.44152 9.03855 2.35423 7.70642 1.96539C6.46069 1.62695 5.05656 1.78538 3.96206 2.49103C2.63712 3.31191 1.75144 4.84566 1.80905 6.41541C1.77304 7.66833 2.3419 8.89965 3.24198 9.75652C5.80544 12.3127 8.36169 14.8835 10.9251 17.4397C13.251 15.121 15.5624 12.7953 17.8882 10.4767C18.4858 9.86447 19.1699 9.29576 19.5444 8.51081C20.0628 7.56038 20.142 6.4226 19.9476 5.3713H19.9405Z" fill="url(#paint0_linear_578_30990)"/>
<path d="M6.75674 10.6644C6.61272 10.6644 6.4759 10.6357 6.3391 10.578C6.20949 10.5277 6.09427 10.4483 5.99346 10.3477C5.79183 10.1389 5.67664 9.86509 5.67664 9.5771C5.67664 9.51229 5.67664 9.44037 5.69823 9.3683C5.71263 9.30349 5.73423 9.23157 5.75584 9.16676C5.78464 9.10196 5.82065 9.03715 5.85664 8.97946C5.89985 8.92192 5.94305 8.86423 5.99346 8.81381C6.38951 8.41786 7.12397 8.41786 7.52001 8.81381C7.57042 8.86423 7.61362 8.92192 7.65682 8.97946C7.69283 9.03715 7.72883 9.10196 7.75044 9.16676C7.77924 9.23157 7.80083 9.30349 7.81525 9.3683C7.82965 9.44037 7.83684 9.51229 7.83684 9.5771C7.83684 9.87236 7.72163 10.1389 7.52001 10.3477C7.4192 10.4483 7.2968 10.5277 7.16718 10.578C7.03757 10.6357 6.90075 10.6644 6.75674 10.6644Z" fill="#D9D1FF"/>
<path d="M4.59525 7.43138C3.9976 7.43138 3.51514 6.94887 3.51514 6.3512C3.51514 4.70945 4.85448 3.37012 6.49623 3.37012C6.89948 3.37012 7.28832 3.44934 7.65555 3.60775C8.2028 3.83817 8.46203 4.47182 8.22441 5.02628C7.99398 5.57353 7.36032 5.83275 6.80586 5.59513C6.70506 5.55193 6.59704 5.53033 6.48904 5.53033C6.03539 5.53033 5.66816 5.89756 5.66816 6.3512C5.66816 6.94887 5.1857 7.43138 4.58805 7.43138H4.59525Z" fill="#D9D1FF"/>
<path d="M38.6633 15.998C38.6633 16.6302 38.1502 17.1388 37.5225 17.1388H28.9733C28.3411 17.1388 27.8325 16.6256 27.8325 15.998V1.19082C27.8325 0.558587 28.3457 0.0500488 28.9733 0.0500488H37.353C37.9853 0.0500488 38.4938 0.563168 38.4938 1.19082C38.4938 1.82306 37.9807 2.3316 37.353 2.3316H30.4486V7.18791H36.6383C37.2705 7.18791 37.7791 7.70103 37.7791 8.32868C37.7791 8.96092 37.266 9.46946 36.6383 9.46946H30.4486V14.8526H37.5179C38.1502 14.8526 38.6587 15.3657 38.6587 15.9934L38.6633 15.998Z" fill="white"/>
<path d="M46.0722 22.0001C44.9772 22.0001 44.0151 21.8122 43.1904 21.4411C42.3657 21.07 41.7197 20.534 41.2524 19.833C41.037 19.5169 40.8675 19.1733 40.7438 18.8068C40.5056 18.1104 41.0508 17.382 41.793 17.382H41.935C42.4253 17.382 42.8238 17.721 42.9705 18.1883C43.1262 18.6785 43.3874 19.0817 43.7539 19.3932C44.3037 19.8605 45.0688 20.0942 46.0493 20.0942C47.1443 20.0942 47.9689 19.8101 48.5233 19.2512C49.0777 18.6877 49.3572 17.8585 49.3572 16.7635V14.4774C48.9906 15.2241 48.4729 15.8106 47.7994 16.2412C47.1259 16.6719 46.3608 16.8826 45.5041 16.8826C44.4549 16.8826 43.5294 16.6123 42.7185 16.0717C41.9075 15.5311 41.2753 14.7843 40.8125 13.8314C40.3498 12.8784 40.1207 11.7926 40.1207 10.5694C40.1207 9.34616 40.3452 8.21455 40.7896 7.27078C41.234 6.32701 41.8571 5.59398 42.6589 5.06711C43.4607 4.54483 44.3862 4.28369 45.4308 4.28369C46.3379 4.28369 47.1351 4.49902 47.8361 4.92509C48.5325 5.35574 49.096 5.96507 49.5267 6.75766V5.63979C49.5267 5.0213 50.0261 4.52193 50.6446 4.52193C51.2631 4.52193 51.7625 5.0213 51.7625 5.63979V16.7131C51.7625 18.3807 51.2631 19.6773 50.2597 20.6073C49.2609 21.5373 47.8636 22.0001 46.0676 22.0001H46.0722ZM42.549 10.5694C42.549 11.8705 42.8513 12.8968 43.4561 13.6527C44.0609 14.4086 44.8856 14.7843 45.9301 14.7843C46.6128 14.7843 47.213 14.6148 47.7261 14.2712C48.2438 13.9322 48.6424 13.4465 48.9311 12.8189C49.2151 12.1912 49.3617 11.4674 49.3617 10.6427C49.3617 9.34158 49.0502 8.3016 48.4317 7.52276C47.8132 6.74392 46.9793 6.3545 45.9301 6.3545C44.881 6.3545 44.0746 6.73017 43.4653 7.48611C42.8559 8.24204 42.549 9.26828 42.549 10.5694Z" fill="white"/>
<path d="M58.0648 1.59434C58.0648 2.03873 57.9045 2.41441 57.5792 2.72595C57.2539 3.03748 56.837 3.18867 56.3284 3.18867C55.8199 3.18867 55.38 3.0329 55.0547 2.72595C54.7294 2.41441 54.5691 2.03873 54.5691 1.59434C54.5691 1.11787 54.7294 0.733028 55.0547 0.439817C55.38 0.146606 55.8061 0 56.3284 0C56.8507 0 57.2539 0.146606 57.5792 0.439817C57.9045 0.733028 58.0648 1.11787 58.0648 1.59434ZM56.3376 17.1437C55.6732 17.1437 55.1372 16.6031 55.1372 15.9434V5.72678C55.1372 5.06247 55.6778 4.52645 56.3376 4.52645C57.0019 4.52645 57.5379 5.06706 57.5379 5.72678V15.9388C57.5379 16.6031 56.9973 17.1391 56.3376 17.1391V17.1437Z" fill="white"/>
<path d="M63.3304 10.6883V16.4563C63.3304 16.8366 63.0234 17.1436 62.6431 17.1436H61.6123C61.232 17.1436 60.925 16.8366 60.925 16.4563V5.20895C60.925 4.82869 61.232 4.52173 61.6123 4.52173H62.4782C62.8585 4.52173 63.1654 4.82869 63.1654 5.20895V7.18812C63.6098 6.31765 64.2742 5.62586 65.1538 5.11732C65.809 4.73706 66.51 4.50341 67.2476 4.4072C67.6599 4.35222 68.0219 4.6775 68.0219 5.09441V6.17105C68.0219 6.53756 67.7332 6.83993 67.3667 6.85368C66.7207 6.872 66.1343 6.98196 65.6028 7.1698C64.8973 7.42178 64.3429 7.83869 63.9351 8.42053C63.532 9.00237 63.3304 9.7583 63.3304 10.6929V10.6883Z" fill="white"/>
<path d="M70.8901 17.1431C70.2212 17.1431 69.676 16.5979 69.676 15.929V1.26388C69.676 0.594994 70.2212 0.0498047 70.8901 0.0498047C71.559 0.0498047 72.1043 0.594994 72.1043 1.26388V15.929C72.1043 16.5979 71.559 17.1431 70.8901 17.1431Z" fill="white"/>
<path d="M84.625 13.3824C84.625 14.6194 84.1622 15.5952 83.2459 16.3099C82.325 17.0246 81.0239 17.382 79.3424 17.382C77.661 17.382 76.3873 16.9926 75.4252 16.2137C74.8525 15.751 74.431 15.1875 74.1561 14.5278C73.8583 13.8131 74.3623 13.025 75.132 13.025H75.2923C75.7367 13.025 76.0941 13.3366 76.2315 13.7627C76.3782 14.2162 76.6485 14.5919 77.0471 14.8943C77.6427 15.3478 78.4261 15.5723 79.3928 15.5723C80.2358 15.5723 80.9139 15.4211 81.427 15.1188C81.9447 14.8164 82.2013 14.372 82.2013 13.7856C82.2013 13.2633 82.0318 12.8647 81.6882 12.5944C81.3446 12.3241 80.781 12.1179 79.9838 11.9759L77.9359 11.5956C76.7767 11.3712 75.8788 10.9634 75.2465 10.3678C74.6097 9.77224 74.2935 8.99798 74.2935 8.04504C74.2935 7.29827 74.4951 6.64312 74.9029 6.07961C75.3061 5.51609 75.8742 5.07628 76.6072 4.76016C77.3357 4.44404 78.1879 4.28369 79.1546 4.28369C80.1717 4.28369 81.0605 4.4532 81.821 4.79681C82.5816 5.14042 83.1955 5.62147 83.6537 6.24912C83.8415 6.50568 83.9973 6.78515 84.121 7.08294C84.4005 7.76099 83.8461 8.4986 83.113 8.4986H83.0306C82.5724 8.4986 82.1326 8.23746 81.9768 7.80681C81.8256 7.38073 81.5736 7.02338 81.2254 6.73933C80.7031 6.30868 80.0205 6.09794 79.1775 6.09794C78.4169 6.09794 77.7984 6.2537 77.3311 6.56066C76.8638 6.8722 76.6301 7.29369 76.6301 7.83429C76.6301 8.34283 76.7997 8.72767 77.1433 8.98881C77.4823 9.24995 78.0367 9.4607 78.7972 9.62105L80.9414 10.0242C82.1967 10.2487 83.1222 10.6335 83.727 11.1925C84.3317 11.7514 84.6295 12.4799 84.6295 13.3824H84.625Z" fill="white"/>
<defs>
<linearGradient id="paint0_linear_578_30990" x1="5.4022" y1="0.885281" x2="16.4409" y2="11.9239" gradientUnits="userSpaceOnUse">
<stop offset="0.41" stop-color="#7D6BD6" stop-opacity="0"/>
<stop offset="0.87" stop-color="#7D6BD6" stop-opacity="0.78"/>
<stop offset="1" stop-color="#7D6BD6"/>
</linearGradient>
</defs>
</svg>
