<svg width="108" height="22" viewBox="0 0 108 22" fill="none" xmlns="http://www.w3.org/2000/svg">
<path d="M10.284 18.081C8.9015 16.6986 7.51896 15.316 6.13643 13.9335C4.95552 12.7526 3.78179 11.5717 2.60088 10.398C1.48477 9.3251 0.858305 7.85606 0.90871 6.38719C0.843904 4.59422 1.852 2.74364 3.48656 1.72835C4.32904 1.1883 5.34434 0.893066 6.42446 0.893066C6.9357 0.893066 7.44696 0.957872 7.9438 1.09469C9.20392 1.46192 10.1256 2.3044 10.9249 3.11088C11.5874 2.44122 12.2858 1.76436 13.2363 1.34671C13.8196 1.05149 14.5324 0.900274 15.3749 0.900274C15.6558 0.900274 15.9366 0.914673 16.2173 0.943473C18.4568 1.2531 20.3362 2.98847 20.8259 5.17027C21.0851 6.55281 20.9123 7.88499 20.3362 8.93627C19.9907 9.66352 19.4001 10.2395 18.889 10.7508C18.7737 10.8661 16.4118 13.2279 15.3533 14.2864C14.0932 15.5536 12.8259 16.8139 11.5586 18.0739L10.9249 18.7076L10.2912 18.0739L10.284 18.081Z" fill="#9C89E9"/>
<path d="M21.7117 5.03327V5.00447L21.6973 4.97567C21.1284 2.43383 18.9394 0.410445 16.3688 0.0575989H16.3328L16.2967 0.0504067C15.9656 0.0216075 15.6631 0 15.3751 0C14.403 0 13.5749 0.172811 12.8332 0.540057C12.0699 0.885679 11.4579 1.36093 10.9178 1.85777C10.1906 1.19531 9.31928 0.561648 8.21036 0.237617H8.18877L8.16716 0.230426C7.59831 0.079206 7.00786 0 6.41739 0C5.17167 0 3.98355 0.33843 2.98265 0.986492C1.12487 2.1386 -0.0488435 4.27 0.00156136 6.42302C-0.0344421 8.12238 0.685629 9.8146 1.98895 11.0603C3.14827 12.2195 4.3364 13.4077 5.51731 14.5886C6.89264 15.9639 8.26798 17.3465 9.6505 18.7218L10.9178 19.9892L12.1852 18.7218C13.4525 17.4617 14.7126 16.2015 15.9727 14.9343C17.0312 13.8757 18.0898 12.8101 19.1482 11.7515C19.2778 11.6219 19.393 11.5067 19.5012 11.3987C20.0628 10.8442 20.6964 10.2249 21.1357 9.33204C21.7909 8.10072 21.9926 6.58143 21.7046 5.04048L21.7117 5.03327ZM19.5443 8.51121C19.1699 9.30327 18.4857 9.86487 17.8881 10.4771C15.5623 12.7957 13.2509 15.1287 10.925 17.4401C8.36158 14.8839 5.80534 12.3131 3.24188 9.75691C2.3418 8.89278 1.77294 7.66873 1.80895 6.41581C1.75133 4.84606 2.64422 3.31232 3.96196 2.49143C4.68923 2.02339 5.5533 1.79297 6.4246 1.79297C6.85664 1.79297 7.28867 1.85058 7.70631 1.96579C9.03845 2.35463 9.97454 3.44193 10.9178 4.39242C11.7459 3.58595 12.5164 2.64984 13.5965 2.1674C14.151 1.89378 14.7558 1.80017 15.3679 1.80017C15.6199 1.80017 15.872 1.81457 16.1167 1.83618C17.9529 2.0882 19.5299 3.56434 19.9331 5.36451C20.1347 6.41581 20.0484 7.5535 19.5299 8.50394L19.5443 8.51121Z" fill="#604EB8"/>
<path d="M19.9405 5.3713C19.5373 3.56394 17.9603 2.09501 16.124 1.84297C15.2744 1.76377 14.3815 1.77817 13.5966 2.167C12.5093 2.64945 11.746 3.57834 10.9179 4.39202C9.96745 3.44152 9.03855 2.35423 7.70642 1.96539C6.46069 1.62695 5.05656 1.78538 3.96206 2.49103C2.63712 3.31191 1.75144 4.84566 1.80905 6.41541C1.77304 7.66833 2.3419 8.89965 3.24198 9.75652C5.80544 12.3127 8.36169 14.8835 10.9251 17.4397C13.251 15.121 15.5624 12.7953 17.8882 10.4767C18.4858 9.86447 19.1699 9.29576 19.5444 8.51081C20.0628 7.56038 20.142 6.4226 19.9476 5.3713H19.9405Z" fill="url(#paint0_linear_231_788)"/>
<path d="M6.75674 10.6642C6.61272 10.6642 6.4759 10.6354 6.3391 10.5777C6.20949 10.5274 6.09427 10.4481 5.99346 10.3474C5.79183 10.1386 5.67664 9.86485 5.67664 9.57685C5.67664 9.51205 5.67664 9.44013 5.69823 9.36805C5.71263 9.30325 5.73423 9.23133 5.75584 9.16652C5.78464 9.10171 5.82065 9.03691 5.85664 8.97921C5.89985 8.92168 5.94305 8.86399 5.99346 8.81356C6.38951 8.41761 7.12397 8.41761 7.52001 8.81356C7.57042 8.86399 7.61362 8.92168 7.65682 8.97921C7.69283 9.03691 7.72883 9.10171 7.75044 9.16652C7.77924 9.23133 7.80083 9.30325 7.81525 9.36805C7.82965 9.44013 7.83684 9.51205 7.83684 9.57685C7.83684 9.87212 7.72163 10.1386 7.52001 10.3474C7.4192 10.4481 7.2968 10.5274 7.16718 10.5777C7.03757 10.6354 6.90075 10.6642 6.75674 10.6642Z" fill="#D9D1FF"/>
<path d="M4.59525 7.43138C3.9976 7.43138 3.51514 6.94887 3.51514 6.3512C3.51514 4.70945 4.85448 3.37012 6.49623 3.37012C6.89948 3.37012 7.28832 3.44934 7.65555 3.60775C8.2028 3.83817 8.46203 4.47182 8.22441 5.02628C7.99398 5.57353 7.36032 5.83275 6.80586 5.59513C6.70506 5.55193 6.59704 5.53033 6.48904 5.53033C6.03539 5.53033 5.66816 5.89756 5.66816 6.3512C5.66816 6.94887 5.1857 7.43138 4.58805 7.43138H4.59525Z" fill="#D9D1FF"/>
<path d="M38.5571 15.9977C38.5571 16.63 38.0439 17.1385 37.4163 17.1385H28.8671C28.2348 17.1385 27.7263 16.6254 27.7263 15.9977V1.19058C27.7263 0.558343 28.2394 0.0498047 28.8671 0.0498047H37.2467C37.879 0.0498047 38.3876 0.562924 38.3876 1.19058C38.3876 1.82282 37.8744 2.33135 37.2467 2.33135H30.3423V7.18766H36.532C37.1643 7.18766 37.6728 7.70078 37.6728 8.32844C37.6728 8.96067 37.1597 9.46921 36.532 9.46921H30.3423V14.8524H37.4117C38.0439 14.8524 38.5525 15.3655 38.5525 15.9932L38.5571 15.9977Z" fill="white"/>
<path d="M45.9659 22.0001C44.8709 22.0001 43.9088 21.8122 43.0841 21.4411C42.2594 21.07 41.6134 20.534 41.1461 19.833C40.9308 19.5169 40.7613 19.1733 40.6376 18.8068C40.3993 18.1104 40.9445 17.382 41.6867 17.382H41.8288C42.319 17.382 42.7176 17.721 42.8642 18.1883C43.02 18.6785 43.2811 19.0817 43.6476 19.3932C44.1974 19.8605 44.9626 20.0942 45.943 20.0942C47.038 20.0942 47.8627 19.8101 48.417 19.2512C48.9714 18.6877 49.2509 17.8585 49.2509 16.7635V14.4774C48.8844 15.2241 48.3667 15.8106 47.6932 16.2412C47.0197 16.6719 46.2546 16.8826 45.3978 16.8826C44.3486 16.8826 43.4231 16.6123 42.6122 16.0717C41.8013 15.5311 41.169 14.7843 40.7063 13.8314C40.2435 12.8784 40.0145 11.7926 40.0145 10.5694C40.0145 9.34616 40.239 8.21455 40.6834 7.27078C41.1278 6.32701 41.7509 5.59398 42.5527 5.06711C43.3544 4.54483 44.2799 4.28369 45.3245 4.28369C46.2316 4.28369 47.0288 4.49902 47.7298 4.92509C48.4262 5.35574 48.9897 5.96507 49.4204 6.75766V5.63979C49.4204 5.0213 49.9198 4.52193 50.5383 4.52193C51.1568 4.52193 51.6562 5.0213 51.6562 5.63979V16.7131C51.6562 18.3807 51.1568 19.6773 50.1535 20.6073C49.1547 21.5373 47.7573 22.0001 45.9613 22.0001H45.9659ZM42.4427 10.5694C42.4427 11.8705 42.7451 12.8968 43.3498 13.6527C43.9546 14.4086 44.7793 14.7843 45.8239 14.7843C46.5065 14.7843 47.1067 14.6148 47.6199 14.2712C48.1376 13.9322 48.5362 13.4465 48.8248 12.8189C49.1089 12.1912 49.2555 11.4674 49.2555 10.6427C49.2555 9.34158 48.9439 8.3016 48.3254 7.52276C47.7069 6.74392 46.8731 6.3545 45.8239 6.3545C44.7747 6.3545 43.9684 6.73017 43.359 7.48611C42.7497 8.24204 42.4427 9.26828 42.4427 10.5694Z" fill="white"/>
<path d="M57.9585 1.59434C57.9585 2.03873 57.7981 2.41441 57.4729 2.72595C57.1476 3.03748 56.7306 3.18867 56.2221 3.18867C55.7135 3.18867 55.2737 3.0329 54.9484 2.72595C54.6231 2.41441 54.4628 2.03873 54.4628 1.59434C54.4628 1.11787 54.6231 0.733028 54.9484 0.439817C55.2737 0.146606 55.6998 0 56.2221 0C56.7444 0 57.1476 0.146606 57.4729 0.439817C57.7981 0.733028 57.9585 1.11787 57.9585 1.59434ZM56.2313 17.1437C55.5669 17.1437 55.0309 16.6031 55.0309 15.9434V5.72678C55.0309 5.06247 55.5715 4.52645 56.2313 4.52645C56.8956 4.52645 57.4316 5.06706 57.4316 5.72678V15.9388C57.4316 16.6031 56.891 17.1391 56.2313 17.1391V17.1437Z" fill="white"/>
<path d="M63.224 10.6886V16.4566C63.224 16.8368 62.9171 17.1438 62.5368 17.1438H61.506C61.1257 17.1438 60.8187 16.8368 60.8187 16.4566V5.20919C60.8187 4.82893 61.1257 4.52198 61.506 4.52198H62.3719C62.7521 4.52198 63.0591 4.82893 63.0591 5.20919V7.18837C63.5035 6.3179 64.1678 5.6261 65.0475 5.11756C65.7027 4.7373 66.4037 4.50365 67.1413 4.40744C67.5536 4.35247 67.9156 4.67775 67.9156 5.09466V6.17129C67.9156 6.5378 67.6269 6.84018 67.2604 6.85392C66.6144 6.87225 66.028 6.9822 65.4965 7.17004C64.7909 7.42202 64.2366 7.83893 63.8288 8.42077C63.4256 9.00261 63.224 9.75855 63.224 10.6932V10.6886Z" fill="white"/>
<path d="M70.7839 17.1431C70.115 17.1431 69.5698 16.5979 69.5698 15.929V1.26388C69.5698 0.594994 70.115 0.0498047 70.7839 0.0498047C71.4528 0.0498047 71.998 0.594994 71.998 1.26388V15.929C71.998 16.5979 71.4528 17.1431 70.7839 17.1431Z" fill="white"/>
<path d="M84.5187 13.3824C84.5187 14.6194 84.056 15.5952 83.1396 16.3099C82.2188 17.0246 80.9176 17.382 79.2362 17.382C77.5547 17.382 76.2811 16.9926 75.3189 16.2137C74.7462 15.751 74.3247 15.1875 74.0498 14.5278C73.752 13.8131 74.256 13.025 75.0257 13.025H75.1861C75.6305 13.025 75.9878 13.3366 76.1253 13.7627C76.2719 14.2162 76.5422 14.5919 76.9408 14.8943C77.5364 15.3478 78.3198 15.5723 79.2866 15.5723C80.1296 15.5723 80.8076 15.4211 81.3208 15.1188C81.8385 14.8164 82.0951 14.372 82.0951 13.7856C82.0951 13.2633 81.9255 12.8647 81.5819 12.5944C81.2383 12.3241 80.6748 12.1179 79.8776 11.9759L77.8296 11.5956C76.6705 11.3712 75.7725 10.9634 75.1402 10.3678C74.5034 9.77224 74.1873 8.99798 74.1873 8.04504C74.1873 7.29827 74.3889 6.64312 74.7966 6.07961C75.1998 5.51609 75.7679 5.07628 76.501 4.76016C77.2294 4.44404 78.0816 4.28369 79.0483 4.28369C80.0654 4.28369 80.9542 4.4532 81.7148 4.79681C82.4753 5.14042 83.0893 5.62147 83.5474 6.24912C83.7353 6.50568 83.891 6.78515 84.0147 7.08294C84.2942 7.76099 83.7398 8.4986 83.0068 8.4986H82.9243C82.4662 8.4986 82.0263 8.23746 81.8706 7.80681C81.7194 7.38073 81.4674 7.02338 81.1192 6.73933C80.5969 6.30868 79.9142 6.09794 79.0712 6.09794C78.3107 6.09794 77.6922 6.2537 77.2249 6.56066C76.7575 6.8722 76.5239 7.29369 76.5239 7.83429C76.5239 8.34283 76.6934 8.72767 77.037 8.98881C77.376 9.24995 77.9304 9.4607 78.691 9.62105L80.8351 10.0242C82.0905 10.2487 83.0159 10.6335 83.6207 11.1925C84.2255 11.7514 84.5233 12.4799 84.5233 13.3824H84.5187Z" fill="white"/>
<path d="M89.6861 15.4448C89.6861 15.9671 89.5166 16.4023 89.1776 16.7505C88.8385 17.0987 88.3987 17.2728 87.8581 17.2728C87.3175 17.2728 86.9005 17.0987 86.5523 16.7505C86.2041 16.4023 86.03 15.9671 86.03 15.4448C86.03 14.8904 86.2041 14.4369 86.5523 14.0887C86.9005 13.7405 87.3358 13.5664 87.8581 13.5664C88.3804 13.5664 88.834 13.7405 89.1776 14.0887C89.5166 14.4369 89.6861 14.8904 89.6861 15.4448Z" fill="white"/>
<path d="M100.533 17.1527C99.9828 17.1527 99.5338 16.7037 99.5338 16.1539V15.2056C99.1398 15.902 98.5992 16.438 97.9165 16.8228C97.2339 17.2031 96.4275 17.3955 95.4929 17.3955C94.1963 17.3955 93.1471 17.0519 92.3545 16.3601C91.5619 15.6729 91.1679 14.7474 91.1679 13.5929C91.1679 12.3559 91.6536 11.4213 92.6294 10.7891C93.6053 10.1569 95.0256 9.83616 96.8949 9.83616C97.2568 9.83616 97.6142 9.84532 97.9624 9.85907C98.3106 9.87739 98.7366 9.91404 99.2452 9.97818V9.05274C99.2452 8.16394 99.0161 7.47215 98.558 6.97277C98.0998 6.4734 97.4492 6.226 96.6108 6.226C95.7724 6.226 95.0485 6.4734 94.5308 6.97277C94.1872 7.30721 93.9489 7.72412 93.8206 8.2235C93.7015 8.68622 93.3167 9.02983 92.8402 9.02983H92.6661C92.0247 9.02983 91.5299 8.42508 91.6902 7.80201C91.8093 7.34845 91.9834 6.92696 92.2217 6.5467C92.6569 5.84116 93.2525 5.29597 94.0039 4.90655C94.7553 4.51713 95.6212 4.32471 96.6062 4.32471C98.1594 4.32471 99.3643 4.74162 100.23 5.57085C101.096 6.40009 101.527 7.56836 101.527 9.07564V16.1585C101.527 16.7083 101.078 17.1573 100.528 17.1573L100.533 17.1527ZM93.4541 13.5196C93.4541 14.1702 93.6832 14.6925 94.1413 15.0865C94.5995 15.4851 95.2088 15.6821 95.9694 15.6821C96.9819 15.6821 97.7837 15.3934 98.3701 14.8162C98.9566 14.2389 99.2498 13.4646 99.2498 12.5025V11.4809C98.7916 11.4305 98.3839 11.3984 98.0357 11.3709C97.6875 11.348 97.353 11.3343 97.0369 11.3343C95.8319 11.3343 94.934 11.513 94.3383 11.8703C93.7427 12.2277 93.4495 12.7774 93.4495 13.5242L93.4541 13.5196Z" fill="white"/>
<path d="M107.657 1.63956C107.657 2.08396 107.496 2.45963 107.171 2.77117C106.846 3.07813 106.429 3.23389 105.925 3.23389C105.421 3.23389 104.976 3.07813 104.656 2.77117C104.33 2.45963 104.17 2.08396 104.17 1.63956C104.17 1.16309 104.33 0.782833 104.656 0.489621C104.981 0.19641 105.403 0.0498047 105.925 0.0498047C106.447 0.0498047 106.846 0.19641 107.171 0.489621C107.496 0.782833 107.657 1.16767 107.657 1.63956ZM105.934 17.1568C105.27 17.1568 104.734 16.6208 104.734 15.9565V5.76284C104.734 5.09853 105.27 4.56251 105.934 4.56251C106.598 4.56251 107.134 5.09853 107.134 5.76284V15.9565C107.134 16.6208 106.598 17.1568 105.934 17.1568Z" fill="white"/>
<defs>
<linearGradient id="paint0_linear_231_788" x1="5.4022" y1="0.885281" x2="16.4409" y2="11.9239" gradientUnits="userSpaceOnUse">
<stop offset="0.41" stop-color="#7D6BD6" stop-opacity="0"/>
<stop offset="0.87" stop-color="#7D6BD6" stop-opacity="0.78"/>
<stop offset="1" stop-color="#7D6BD6"/>
</linearGradient>
</defs>
</svg>
