<svg width="83" height="82" viewBox="0 0 83 82" fill="none" xmlns="http://www.w3.org/2000/svg">
<path d="M33.3852 76.0682L36.1702 76.488L35.9521 77.9352L33.4784 77.5623L33.3123 78.6646L35.786 79.0374L35.5945 80.3079L32.8684 79.897L32.701 81.0077L36.706 81.6113L37.6165 75.5701L33.5526 74.9576L33.3852 76.0682Z" fill="white" fill-opacity="0.48"/>
<path d="M26.401 72.1444C24.6454 71.299 22.9365 72.0627 22.1416 73.8898L24.9782 75.2558L25.4249 74.3282L23.8303 73.5603C24.3122 72.9518 25.0584 72.7162 25.8711 73.1075C26.975 73.6392 27.174 74.7361 26.6645 75.794C26.0959 76.9746 25.1075 77.3014 24.2182 76.8731C23.4822 76.5187 23.1793 75.8534 23.2802 75.2125L21.9079 74.5517C21.6923 75.9211 22.2902 77.229 23.6854 77.9009C25.2954 78.6762 27.063 78.0259 27.8457 76.4006C28.6653 74.6987 27.9956 72.9123 26.401 72.1444Z" fill="white" fill-opacity="0.48"/>
<path d="M17.5433 66.0852L13.3878 70.5637L14.3359 71.4435L18.4914 66.9649L17.5433 66.0852Z" fill="white" fill-opacity="0.48"/>
<path d="M12.104 59.2862L10.2323 60.3668L9.82813 59.6668L11.0106 57.3923L10.2406 56.0586L8.98644 58.6003C8.30194 57.9933 7.47926 57.8788 6.76447 58.2915C5.6665 58.9254 5.49423 60.0565 6.26429 61.3903L7.45979 63.461L12.7507 60.4062L12.104 59.2862ZM7.7416 61.8048L7.22255 60.9058C6.83114 60.2279 6.88796 59.7136 7.41115 59.4115C7.92698 59.1137 8.40073 59.3217 8.79214 59.9996L9.31119 60.8986L7.7416 61.8048Z" fill="white" fill-opacity="0.48"/>
<path d="M7.4361 46.7926L6.2996 47.052L6.89035 49.6402L2.07061 50.7403L2.3584 52.0012L8.31464 50.6417L7.4361 46.7926Z" fill="white" fill-opacity="0.48"/>
<path d="M5.48785 36.0165C4.58842 35.9491 4.05305 36.4892 3.7608 37.5424L3.47046 38.5702C3.35254 39.005 3.14574 39.3735 2.72997 39.3424C2.30571 39.3106 1.97604 38.9275 2.02309 38.2996C2.07142 37.6547 2.53723 37.2459 3.17679 37.2512L3.27472 35.9445C1.99559 35.9339 1.12295 36.8754 1.02058 38.2415C0.922015 39.5567 1.63079 40.574 2.71689 40.6554C3.72662 40.7311 4.28066 40.0559 4.52816 39.1443L4.79835 38.1577C4.93896 37.6478 5.19031 37.3679 5.57215 37.3966C6.06428 37.4334 6.31781 37.9217 6.26884 38.5751C6.20971 39.3642 5.74453 39.7645 5.07167 39.7482L4.97374 41.055C6.27048 41.0583 7.16539 40.1611 7.28048 38.6253C7.39494 37.098 6.65031 36.1036 5.48785 36.0165Z" fill="white" fill-opacity="0.48"/>
<path d="M7.85647 26.7385C7.41291 26.5644 6.98587 26.7442 6.81489 27.1798C6.64392 27.6154 6.83159 28.0456 7.27515 28.2197C7.71079 28.3906 8.14094 28.203 8.31191 27.7673C8.48289 27.3317 8.29211 26.9095 7.85647 26.7385Z" fill="white" fill-opacity="0.48"/>
<path d="M15.4666 17.0394L13.7105 19.2414L12.5663 18.3289L14.126 16.3731L13.2546 15.6781L11.6948 17.6339L10.6903 16.8328L12.4092 14.6774L11.531 13.9771L9.00575 17.1437L13.7823 20.9529L16.3447 17.7397L15.4666 17.0394Z" fill="white" fill-opacity="0.48"/>
<path d="M22.3567 12.9526C23.9667 11.8549 24.1597 9.99315 22.9748 8.39118L20.3736 10.1647L20.9536 11.0154L22.4159 10.0184C22.7019 10.7399 22.5328 11.504 21.7876 12.0121C20.7752 12.7023 19.7258 12.3262 19.0643 11.356C18.3262 10.2733 18.5374 9.2539 19.3529 8.69788C20.0278 8.23773 20.7555 8.30805 21.2601 8.71581L22.5185 7.85782C21.4403 6.98636 20.0087 6.8502 18.7292 7.72257C17.2528 8.72915 16.9322 10.5852 17.9484 12.0756C19.0125 13.6363 20.8944 13.9496 22.3567 12.9526Z" fill="white" fill-opacity="0.48"/>
<path d="M32.033 8.31117L30.2322 2.47318L28.9963 2.8544L30.7971 8.69239L32.033 8.31117Z" fill="white" fill-opacity="0.48"/>
<path d="M40.6402 7V4.83873H41.4485L42.827 7H44.3671L42.7929 4.64303C43.6608 4.35372 44.1714 3.69853 44.1714 2.87317C44.1714 1.60534 43.2779 0.890587 41.7378 0.890587L39.3468 0.890587V7H40.6402ZM40.6402 1.96271H41.6783C42.4611 1.96271 42.878 2.26903 42.878 2.87317C42.878 3.46879 42.4611 3.77512 41.6783 3.77512H40.6402V1.96271Z" fill="white" fill-opacity="0.48"/>
<path d="M53.7942 9.20412L54.1378 8.09019L51.6009 7.30767L53.0581 2.58362L51.8222 2.20239L50.0214 8.04038L53.7942 9.20412Z" fill="white" fill-opacity="0.48"/>
<path d="M64.1007 12.905C64.6088 12.1598 64.4088 11.4261 63.6428 10.6464L62.8979 9.88105C62.5802 9.5615 62.3645 9.19816 62.5994 8.85367C62.839 8.50215 63.3356 8.40819 63.8559 8.76289C64.3902 9.12718 64.5113 9.73498 64.187 10.2862L65.2696 11.0244C65.9183 9.92189 65.5393 8.69543 64.4074 7.92371C63.3177 7.18076 62.0823 7.28592 61.4687 8.18581C60.8984 9.02243 61.2061 9.83986 61.8718 10.51L62.5911 11.2373C62.9624 11.614 63.0791 11.9716 62.8634 12.288C62.5854 12.6957 62.0357 12.6711 61.4944 12.3021C60.8406 11.8563 60.7265 11.2533 61.077 10.6787L59.9943 9.94055C59.3431 11.0619 59.6726 12.2855 60.9451 13.1531C62.2106 14.0158 63.4441 13.8682 64.1007 12.905Z" fill="white" fill-opacity="0.48"/>
<path d="M70.9518 19.5954C71.3243 19.2984 71.3822 18.8386 71.0904 18.4728C70.7986 18.1069 70.3323 18.0543 69.9597 18.3514C69.5938 18.6432 69.5413 19.1096 69.8331 19.4754C70.1249 19.8413 70.5859 19.8872 70.9518 19.5954Z" fill="white" fill-opacity="0.48"/>
<path d="M75.5464 31.0354L74.5174 28.4136L75.8798 27.879L76.7937 30.2077L77.8314 29.8004L76.9174 27.4717L78.1134 27.0023L79.1207 29.5686L80.1662 29.1583L78.6865 25.388L72.9994 27.62L74.5009 31.4458L75.5464 31.0354Z" fill="white" fill-opacity="0.48"/>
<path d="M75.6405 39.0461C75.7861 40.9892 77.3019 42.0873 79.2817 41.8621L79.0465 38.7226L78.0197 38.7995L78.152 40.5644C77.3841 40.4513 76.8069 39.9229 76.7395 39.0235C76.648 37.8016 77.4984 37.0808 78.6694 36.9931C79.9761 36.8952 80.7533 37.5878 80.8271 38.5721C80.8881 39.3867 80.4634 39.9817 79.858 40.2147L79.9718 41.7336C81.2656 41.2356 82.0993 40.0638 81.9836 38.5196C81.85 36.7377 80.403 35.5321 78.6041 35.6669C76.7204 35.808 75.5083 37.2812 75.6405 39.0461Z" fill="white" fill-opacity="0.48"/>
<path d="M74.8217 49.7467L80.7779 51.1061L81.0657 49.8452L75.1095 48.4857L74.8217 49.7467Z" fill="white" fill-opacity="0.48"/>
<path d="M71.6538 57.8564L73.5255 58.937L73.1213 59.6371L70.5604 59.7502L69.7903 61.084L72.6186 60.8992C72.4352 61.7955 72.7473 62.5653 73.4621 62.9779C74.5601 63.6119 75.6258 63.1955 76.3958 61.8617L77.5913 59.791L72.3004 56.7363L71.6538 57.8564ZM76.0162 60.3751L75.4971 61.2741C75.1057 61.952 74.632 62.1599 74.1088 61.8579C73.5929 61.56 73.5361 61.0458 73.9275 60.3679L74.4466 59.4689L76.0162 60.3751Z" fill="white" fill-opacity="0.48"/>
<path d="M63.1677 68.1459L63.9606 69.0004L65.9067 67.1947L69.2693 70.8187L70.2173 69.939L66.0619 65.4605L63.1677 68.1459Z" fill="white" fill-opacity="0.48"/>
<path d="M54.8094 75.2211C55.2007 76.0337 55.9361 76.2273 56.9944 75.9538L58.0296 75.6914C58.4652 75.576 58.8877 75.5709 59.0686 75.9465C59.2532 76.3299 59.0863 76.8069 58.519 77.0801C57.9363 77.3607 57.3494 77.1617 57.0342 76.6052L55.8536 77.1737C56.484 78.2867 57.7357 78.5717 58.97 77.9773C60.1582 77.4051 60.6849 76.2826 60.2123 75.3013C59.773 74.389 58.9112 74.2468 57.998 74.4883L57.0085 74.7476C56.4965 74.8808 56.1285 74.803 55.9624 74.458C55.7483 74.0134 56.0444 73.5497 56.6347 73.2654C57.3477 72.9221 57.9269 73.1248 58.2493 73.7156L59.4299 73.1471C58.7844 72.0224 57.56 71.696 56.1724 72.3642C54.7924 73.0287 54.3036 74.1708 54.8094 75.2211Z" fill="white" fill-opacity="0.48"/>
<path d="M45.5899 77.8091C45.6609 78.2803 46.0301 78.5603 46.4929 78.4905C46.9557 78.4208 47.2343 78.0432 47.1633 77.572C47.0936 77.1092 46.716 76.8305 46.2532 76.9003C45.7904 76.97 45.5202 77.3464 45.5899 77.8091Z" fill="white" fill-opacity="0.48"/>
<path d="M49.4854 49.4853H32.5148L32.4883 46.4889L44.3677 46.4889L31.4542 33.5754L33.5755 31.4541L46.489 44.3676L46.489 32.4882L49.4854 32.5147V49.4853Z" fill="white" fill-opacity="0.48"/>
</svg>
