<svg width="32" height="32" viewBox="0 0 32 32" fill="none" xmlns="http://www.w3.org/2000/svg">
<g id="image-square">
<path id="Icon" d="M18.196 21.8335L16.1277 19.9499C15.1133 19.0261 14.6061 18.5642 14.0314 18.3892C13.5251 18.2351 12.9845 18.2351 12.4783 18.3892C11.9035 18.5642 11.3963 19.0261 10.3819 19.9499L5.57668 24.0002M18.196 21.8335L18.6172 21.4499C19.6316 20.5261 20.1388 20.0642 20.7136 19.8892C21.2198 19.7351 21.7604 19.7351 22.2667 19.8892C22.8414 20.0642 23.3486 20.5261 24.363 21.4499L26.5351 23.5204M18.196 21.8335L22.896 26.6122M11.7333 26.6668H20.2666C22.5068 26.6668 23.6269 26.6668 24.4826 26.2309C25.2352 25.8474 25.8471 25.2354 26.2306 24.4828C26.6666 23.6271 26.6666 22.507 26.6666 20.2668V11.7335C26.6666 9.49329 26.6666 8.37318 26.2306 7.51753C25.8471 6.76489 25.2352 6.15296 24.4826 5.76947C23.6269 5.3335 22.5068 5.3335 20.2666 5.3335H11.7333C9.49304 5.3335 8.37294 5.3335 7.51729 5.76947C6.76464 6.15296 6.15272 6.76489 5.76923 7.51753C5.33325 8.37318 5.33325 9.49329 5.33325 11.7335V20.2668C5.33325 22.507 5.33325 23.6271 5.76923 24.4828C6.15272 25.2354 6.76464 25.8474 7.51729 26.2309C8.37294 26.6668 9.49304 26.6668 11.7333 26.6668ZM22.6666 12.0002C22.6666 13.4729 21.4727 14.6668 19.9999 14.6668C18.5272 14.6668 17.3333 13.4729 17.3333 12.0002C17.3333 10.5274 18.5272 9.3335 19.9999 9.3335C21.4727 9.3335 22.6666 10.5274 22.6666 12.0002Z" stroke="white" strokeOpacity="0.32" strokeWidth="2.4" strokeLinecap="round" strokeLinejoin="round"/>
</g>
</svg>
