<svg width="16" height="16" viewBox="0 0 16 16" fill="none" xmlns="http://www.w3.org/2000/svg">
  <g clipPath="url(#clip0_3482_10438)">
    <path fillRule="evenodd" clipRule="evenodd" d="M8.00033 1.99996C4.68662 1.99996 2.00033 4.68625 2.00033 7.99996C2.00033 11.3137 4.68662 14 8.00033 14C11.314 14 14.0003 11.3137 14.0003 7.99996C14.0003 4.68625 11.314 1.99996 8.00033 1.99996ZM0.666992 7.99996C0.666992 3.94987 3.95024 0.666626 8.00033 0.666626C12.0504 0.666626 15.3337 3.94987 15.3337 7.99996C15.3337 12.05 12.0504 15.3333 8.00033 15.3333C3.95024 15.3333 0.666992 12.05 0.666992 7.99996Z" fill="#515151"/>
    <path fillRule="evenodd" clipRule="evenodd" d="M7.99967 7.33337C8.36786 7.33337 8.66634 7.63185 8.66634 8.00004V10.6667C8.66634 11.0349 8.36786 11.3334 7.99967 11.3334C7.63148 11.3334 7.33301 11.0349 7.33301 10.6667V8.00004C7.33301 7.63185 7.63148 7.33337 7.99967 7.33337Z" fill="#515151"/>
    <path fillRule="evenodd" clipRule="evenodd" d="M7.33301 5.33329C7.33301 4.9651 7.63148 4.66663 7.99967 4.66663H8.00634C8.37453 4.66663 8.67301 4.9651 8.67301 5.33329C8.67301 5.70148 8.37453 5.99996 8.00634 5.99996H7.99967C7.63148 5.99996 7.33301 5.70148 7.33301 5.33329Z" fill="#515151"/>
  </g>
  <defs>
    <clipPath id="clip0_3482_10438">
      <rect width="16" height="16" fill="white"/>
    </clipPath>
  </defs>
</svg>