<svg width="18" height="18" viewBox="0 0 18 18" fill="none" xmlns="http://www.w3.org/2000/svg">
<path d="M6.00017 8.99989V11.9999H9.00017M3.62889 15.159L6.65052 13.864C6.96797 13.728 7.12669 13.6599 7.27553 13.5749C7.40775 13.4994 7.53403 13.4139 7.65327 13.3192C7.78749 13.2126 7.9096 13.0905 8.15382 12.8462L14.9016 6.09841C15.1987 5.8014 15.3472 5.6529 15.4028 5.48165C15.4517 5.33102 15.4517 5.16876 15.4028 5.01812C15.3472 4.84688 15.1987 4.69837 14.9016 4.40136L13.5987 3.09841C13.3017 2.8014 13.1532 2.6529 12.9819 2.59725C12.8313 2.54831 12.669 2.54831 12.5184 2.59725C12.3472 2.6529 12.1987 2.8014 11.9016 3.09842L5.15382 9.84624C4.9096 10.0905 4.78749 10.2126 4.68088 10.3468C4.58617 10.466 4.50067 10.5923 4.42514 10.7245C4.34011 10.8734 4.27208 11.0321 4.13603 11.3495L2.84105 14.3712C2.65659 14.8016 2.56436 15.0168 2.60694 15.15C2.64387 15.2656 2.73444 15.3562 2.85001 15.3931C2.98328 15.4357 3.19848 15.3435 3.62889 15.159Z" stroke="white" strokeOpacity="0.32" strokeWidth="1.35" strokeLinecap="round" strokeLinejoin="round"/>
</svg> 