<svg width="99" height="52" viewBox="0 0 99 52" fill="none" xmlns="http://www.w3.org/2000/svg">
<rect width="99" height="52" rx="26" fill="#5848BC" fill-opacity="0.16"/>
<path d="M28 34C30.1217 34 32.1566 33.1571 33.6569 31.6569C35.1571 30.1566 36 28.1217 36 26C36 23.8783 35.1571 21.8434 33.6569 20.3431C32.1566 18.8429 30.1217 18 28 18C25.8783 18 23.8434 18.8429 22.3431 20.3431C20.8429 21.8434 20 23.8783 20 26C20 28.1217 20.8429 30.1566 22.3431 31.6569C23.8434 33.1571 25.8783 34 28 34ZM25.1281 28.1719C25.6875 28.8188 26.6438 29.5 28 29.5C29.3562 29.5 30.3125 28.8188 30.8719 28.1719C31.0531 27.9625 31.3687 27.9406 31.5781 28.1219C31.7875 28.3031 31.8094 28.6187 31.6281 28.8281C30.9313 29.6281 29.7219 30.5 28 30.5C26.2781 30.5 25.0687 29.6281 24.3719 28.8281C24.1906 28.6187 24.2125 28.3031 24.4219 28.1219C24.6312 27.9406 24.9469 27.9625 25.1281 28.1719ZM24.5125 24.5C24.5125 24.2348 24.6179 23.9804 24.8054 23.7929C24.9929 23.6054 25.2473 23.5 25.5125 23.5C25.7777 23.5 26.0321 23.6054 26.2196 23.7929C26.4071 23.9804 26.5125 24.2348 26.5125 24.5C26.5125 24.7652 26.4071 25.0196 26.2196 25.2071C26.0321 25.3946 25.7777 25.5 25.5125 25.5C25.2473 25.5 24.9929 25.3946 24.8054 25.2071C24.6179 25.0196 24.5125 24.7652 24.5125 24.5ZM30.5125 23.5C30.7777 23.5 31.0321 23.6054 31.2196 23.7929C31.4071 23.9804 31.5125 24.2348 31.5125 24.5C31.5125 24.7652 31.4071 25.0196 31.2196 25.2071C31.0321 25.3946 30.7777 25.5 30.5125 25.5C30.2473 25.5 29.9929 25.3946 29.8054 25.2071C29.6179 25.0196 29.5125 24.7652 29.5125 24.5C29.5125 24.2348 29.6179 23.9804 29.8054 23.7929C29.9929 23.6054 30.2473 23.5 30.5125 23.5Z" fill="#7362C6"/>
<path d="M51.995 30.56H46.82V27.17H51.44V25.73H46.82V22.67H51.89V21.23H45.17V32H51.995V30.56ZM56.9898 35.06C59.2398 35.06 60.5748 33.815 60.5748 31.73V24.05H59.1648V25.46C58.6248 24.455 57.7248 23.9 56.5848 23.9C54.5898 23.9 53.2398 25.49 53.2398 27.86C53.2398 30.2 54.6498 31.835 56.6298 31.835C57.7098 31.835 58.6098 31.28 59.0598 30.32V31.76C59.0598 33.125 58.3398 33.86 56.9748 33.86C55.7448 33.86 55.0248 33.26 54.9348 32.15H53.4648C53.5548 33.95 54.9048 35.06 56.9898 35.06ZM54.7698 27.86C54.7698 26.225 55.5948 25.205 56.8998 25.205C58.2048 25.205 59.0598 26.255 59.0598 27.905C59.0598 29.48 58.1898 30.515 56.8998 30.515C55.5798 30.515 54.7698 29.51 54.7698 27.86ZM64.5171 22.205C64.5171 21.62 64.0671 21.2 63.4221 21.2C62.7771 21.2 62.3121 21.62 62.3121 22.205C62.3121 22.775 62.7771 23.21 63.4221 23.21C64.0671 23.21 64.5171 22.775 64.5171 22.205ZM64.1871 32V24.05H62.6721V32H64.1871ZM67.8052 27.935C67.8052 26.18 69.0502 25.43 70.7602 25.52V23.945C69.4552 23.945 68.2552 24.635 67.7002 25.73V24.05H66.2902V32H67.8052V27.935ZM73.4892 32V21.23H71.9592V32H73.4892ZM81.892 29.63C81.892 28.49 81.142 27.8 79.567 27.515L78.217 27.26C77.257 27.08 76.852 26.78 76.852 26.135C76.852 25.445 77.497 25.04 78.457 25.04C79.522 25.04 80.227 25.595 80.317 26.555H81.772C81.637 24.92 80.347 23.9 78.442 23.9C76.597 23.9 75.382 24.875 75.382 26.27C75.382 27.47 76.207 28.22 77.677 28.505L78.967 28.745C79.957 28.94 80.362 29.225 80.362 29.885C80.362 30.635 79.657 31.01 78.592 31.01C77.377 31.01 76.582 30.395 76.522 29.405H75.067C75.217 31.115 76.462 32.15 78.562 32.15C80.677 32.15 81.892 31.19 81.892 29.63Z" fill="#7362C6"/>
</svg>
