<svg width="122" height="52" viewBox="0 0 122 52" fill="none" xmlns="http://www.w3.org/2000/svg">
<rect width="122" height="52" rx="26" fill="#5848BC" fill-opacity="0.16"/>
<path d="M35.999 25.9998V26.0841C35.9865 27.2248 34.949 27.9998 33.8084 27.9998H30.749C29.9209 27.9998 29.249 28.6716 29.249 29.4998C29.249 29.606 29.2615 29.7091 29.2803 29.8091C29.3459 30.1279 29.4834 30.4341 29.6178 30.7435C29.8084 31.1748 29.9959 31.6029 29.9959 32.056C29.9959 33.0498 29.3209 33.9529 28.3271 33.9935C28.2178 33.9966 28.1084 33.9998 27.9959 33.9998C23.5803 33.9998 19.999 30.4185 19.999 25.9998C19.999 21.581 23.5803 17.9998 27.999 17.9998C32.4178 17.9998 35.999 21.581 35.999 25.9998ZM23.999 26.9998C23.999 26.7345 23.8937 26.4802 23.7061 26.2926C23.5186 26.1051 23.2642 25.9998 22.999 25.9998C22.7338 25.9998 22.4795 26.1051 22.2919 26.2926C22.1044 26.4802 21.999 26.7345 21.999 26.9998C21.999 27.265 22.1044 27.5193 22.2919 27.7069C22.4795 27.8944 22.7338 27.9998 22.999 27.9998C23.2642 27.9998 23.5186 27.8944 23.7061 27.7069C23.8937 27.5193 23.999 27.265 23.999 26.9998ZM23.999 23.9998C24.2642 23.9998 24.5186 23.8944 24.7061 23.7069C24.8937 23.5193 24.999 23.265 24.999 22.9998C24.999 22.7345 24.8937 22.4802 24.7061 22.2926C24.5186 22.1051 24.2642 21.9998 23.999 21.9998C23.7338 21.9998 23.4795 22.1051 23.2919 22.2926C23.1044 22.4802 22.999 22.7345 22.999 22.9998C22.999 23.265 23.1044 23.5193 23.2919 23.7069C23.4795 23.8944 23.7338 23.9998 23.999 23.9998ZM28.999 20.9998C28.999 20.7345 28.8937 20.4802 28.7061 20.2926C28.5186 20.1051 28.2642 19.9998 27.999 19.9998C27.7338 19.9998 27.4795 20.1051 27.2919 20.2926C27.1044 20.4802 26.999 20.7345 26.999 20.9998C26.999 21.265 27.1044 21.5193 27.2919 21.7069C27.4795 21.8944 27.7338 21.9998 27.999 21.9998C28.2642 21.9998 28.5186 21.8944 28.7061 21.7069C28.8937 21.5193 28.999 21.265 28.999 20.9998ZM31.999 23.9998C32.2642 23.9998 32.5186 23.8944 32.7061 23.7069C32.8937 23.5193 32.999 23.265 32.999 22.9998C32.999 22.7345 32.8937 22.4802 32.7061 22.2926C32.5186 22.1051 32.2642 21.9998 31.999 21.9998C31.7338 21.9998 31.4795 22.1051 31.2919 22.2926C31.1044 22.4802 30.999 22.7345 30.999 22.9998C30.999 23.265 31.1044 23.5193 31.2919 23.7069C31.4795 23.8944 31.7338 23.9998 31.999 23.9998Z" fill="#7362C6"/>
<path d="M49.865 32.225C52.565 32.225 54.725 30.425 55.13 27.755H53.375C53.075 29.495 51.665 30.74 49.88 30.74C47.75 30.74 46.25 29.015 46.25 26.6C46.25 24.215 47.75 22.49 49.88 22.49C51.665 22.49 53.075 23.72 53.375 25.46H55.13C54.725 22.805 52.565 21.005 49.865 21.005C46.865 21.005 44.54 23.435 44.54 26.6C44.54 29.78 46.865 32.225 49.865 32.225ZM58.2398 27.935C58.2398 26.18 59.4848 25.43 61.1948 25.52V23.945C59.8898 23.945 58.6898 24.635 58.1348 25.73V24.05H56.7248V32H58.2398V27.935ZM65.6345 32.15C67.5095 32.15 68.8745 31.085 69.2645 29.315H67.7645C67.5095 30.35 66.7295 30.965 65.6045 30.965C64.2695 30.965 63.4595 30.02 63.3395 28.4H69.2645C69.5345 25.82 67.9595 23.9 65.5895 23.9C63.3995 23.9 61.7945 25.625 61.7945 27.98C61.7945 30.485 63.3395 32.15 65.6345 32.15ZM65.5595 25.04C66.7895 25.04 67.5845 25.925 67.6595 27.395H63.3545C63.5195 25.91 64.3445 25.04 65.5595 25.04ZM75.6902 32H76.9502V26.9C76.9502 25.01 75.8102 23.9 73.8452 23.9C71.9852 23.9 70.7102 25.085 70.6352 26.87H72.0152C72.0602 25.76 72.7352 25.1 73.8452 25.1C74.8952 25.1 75.5102 25.745 75.5102 26.885V27.47C74.8652 27.395 74.4902 27.38 74.0252 27.38C71.6552 27.38 70.4102 28.19 70.4102 29.75C70.4102 31.205 71.4902 32.15 73.1402 32.15C74.3102 32.15 75.1952 31.655 75.6902 30.77V32ZM71.8502 29.705C71.8502 28.775 72.6002 28.325 74.1152 28.325C74.5052 28.325 74.9252 28.34 75.5102 28.415V29.06C75.5102 30.275 74.7152 31.07 73.4402 31.07C72.4652 31.07 71.8502 30.53 71.8502 29.705ZM83.3875 30.53C83.0725 30.68 82.7575 30.74 82.3975 30.74C81.5875 30.74 81.0625 30.35 81.0625 29.255V25.34H83.4625V24.05H81.0625V21.695H79.5475V24.05H77.7925V25.34H79.5475V29.6C79.5475 31.355 80.5675 32.15 82.0375 32.15C82.5175 32.15 82.9225 32.075 83.3875 31.865V30.53ZM86.7534 22.205C86.7534 21.62 86.3034 21.2 85.6584 21.2C85.0134 21.2 84.5484 21.62 84.5484 22.205C84.5484 22.775 85.0134 23.21 85.6584 23.21C86.3034 23.21 86.7534 22.775 86.7534 22.205ZM86.4234 32V24.05H84.9084V32H86.4234ZM90.0416 27.515C90.0416 26.105 90.9116 25.235 91.9466 25.235C93.0716 25.235 93.6716 26 93.6716 27.365V32H95.1866V26.855C95.1866 24.95 94.1066 23.9 92.4716 23.9C91.3766 23.9 90.4766 24.485 89.9366 25.37V24.05H88.5266V32H90.0416V27.515ZM100.378 35.06C102.628 35.06 103.963 33.815 103.963 31.73V24.05H102.553V25.46C102.013 24.455 101.113 23.9 99.9734 23.9C97.9784 23.9 96.6284 25.49 96.6284 27.86C96.6284 30.2 98.0384 31.835 100.018 31.835C101.098 31.835 101.998 31.28 102.448 30.32V31.76C102.448 33.125 101.728 33.86 100.363 33.86C99.1334 33.86 98.4134 33.26 98.3234 32.15H96.8534C96.9434 33.95 98.2934 35.06 100.378 35.06ZM98.1584 27.86C98.1584 26.225 98.9834 25.205 100.288 25.205C101.593 25.205 102.448 26.255 102.448 27.905C102.448 29.48 101.578 30.515 100.288 30.515C98.9684 30.515 98.1584 29.51 98.1584 27.86Z" fill="#7362C6"/>
</svg>
