<svg width="24" height="24" viewBox="0 0 24 24" fill="none" xmlns="http://www.w3.org/2000/svg">
<path d="M9.76302 3.82388C9.21064 4.29461 8.52384 4.57909 7.80039 4.63683C6.11215 4.77155 4.77155 6.11215 4.63683 7.80039C4.57909 8.52384 4.29461 9.21064 3.82388 9.76302C2.72537 11.0521 2.72537 12.9479 3.82388 14.237C4.29461 14.7894 4.57909 15.4762 4.63683 16.1996C4.77155 17.8878 6.11215 19.2285 7.80039 19.3632C8.52384 19.4209 9.21064 19.7054 9.76302 20.1761C11.0521 21.2746 12.9479 21.2746 14.237 20.1761C14.7894 19.7054 15.4762 19.4209 16.1996 19.3632C17.8878 19.2285 19.2285 17.8878 19.3632 16.1996C19.4209 15.4762 19.7054 14.7894 20.1761 14.237C21.2746 12.9479 21.2746 11.0521 20.1761 9.76302C19.7054 9.21064 19.4209 8.52384 19.3632 7.80039C19.2285 6.11215 17.8878 4.77155 16.1996 4.63683C15.4762 4.57909 14.7894 4.29461 14.237 3.82388C12.9479 2.72537 11.0521 2.72537 9.76302 3.82388Z" fill="#5848BC"/>
<path d="M8.00024 12.3333L10.4618 15L16.0002 9" stroke="white" strokeWidth="1.5" strokeLinecap="round" strokeLinejoin="round"/>
</svg> 